<?xml version="1.0" encoding="UTF-8"?>
<svg xmlns="http://www.w3.org/2000/svg" xmlns:xlink="http://www.w3.org/1999/xlink" viewBox="0 0 402.89 404.8">
  <defs>
    <style>
      .cls-1 {
        fill: #156f63;
      }

      .cls-1, .cls-2, .cls-3, .cls-4, .cls-5, .cls-6, .cls-7, .cls-8, .cls-9, .cls-10, .cls-11, .cls-12, .cls-13, .cls-14, .cls-15, .cls-16, .cls-17, .cls-18, .cls-19, .cls-20, .cls-21, .cls-22, .cls-23, .cls-24, .cls-25, .cls-26, .cls-27, .cls-28, .cls-29, .cls-30, .cls-31, .cls-32, .cls-33, .cls-34, .cls-35, .cls-36, .cls-37, .cls-38, .cls-39, .cls-40, .cls-41, .cls-42, .cls-43, .cls-44, .cls-45, .cls-46, .cls-47, .cls-48, .cls-49, .cls-50, .cls-51, .cls-52, .cls-53, .cls-54, .cls-55, .cls-56, .cls-57, .cls-58, .cls-59, .cls-60, .cls-61, .cls-62, .cls-63, .cls-64, .cls-65, .cls-66, .cls-67, .cls-68, .cls-69, .cls-70, .cls-71, .cls-72, .cls-73, .cls-74, .cls-75, .cls-76, .cls-77, .cls-78, .cls-79, .cls-80, .cls-81, .cls-82, .cls-83, .cls-84, .cls-85, .cls-86, .cls-87, .cls-88, .cls-89, .cls-90, .cls-91, .cls-92, .cls-93, .cls-94, .cls-95, .cls-96, .cls-97, .cls-98, .cls-99, .cls-100, .cls-101, .cls-102, .cls-103, .cls-104, .cls-105, .cls-106, .cls-107, .cls-108, .cls-109, .cls-110, .cls-111, .cls-112, .cls-113, .cls-114, .cls-115, .cls-116, .cls-117, .cls-118, .cls-119, .cls-120, .cls-121, .cls-122, .cls-123, .cls-124, .cls-125, .cls-126, .cls-127, .cls-128, .cls-129, .cls-130, .cls-131, .cls-132, .cls-133, .cls-134, .cls-135, .cls-136, .cls-137, .cls-138, .cls-139, .cls-140, .cls-141, .cls-142, .cls-143, .cls-144, .cls-145, .cls-146, .cls-147, .cls-148, .cls-149, .cls-150, .cls-151, .cls-152, .cls-153, .cls-154, .cls-155, .cls-156, .cls-157, .cls-158, .cls-159, .cls-160, .cls-161, .cls-162, .cls-163, .cls-164, .cls-165, .cls-166, .cls-167, .cls-168, .cls-169, .cls-170, .cls-171, .cls-172, .cls-173, .cls-174, .cls-175, .cls-176, .cls-177, .cls-178, .cls-179, .cls-180, .cls-181, .cls-182, .cls-183, .cls-184, .cls-185 {
        stroke-width: 0px;
      }

      .cls-1, .cls-2, .cls-3, .cls-4, .cls-5, .cls-6, .cls-7, .cls-8, .cls-9, .cls-10, .cls-11, .cls-12, .cls-13, .cls-14, .cls-15, .cls-16, .cls-17, .cls-18, .cls-19, .cls-20, .cls-21, .cls-22, .cls-23, .cls-24, .cls-25, .cls-26, .cls-27, .cls-28, .cls-29, .cls-30, .cls-31, .cls-32, .cls-33, .cls-34, .cls-35, .cls-36, .cls-37, .cls-38, .cls-39, .cls-40, .cls-41, .cls-42, .cls-43, .cls-44, .cls-45, .cls-46, .cls-47, .cls-48, .cls-49, .cls-50, .cls-51, .cls-52, .cls-53, .cls-54, .cls-55, .cls-56, .cls-57, .cls-58, .cls-59, .cls-60, .cls-61, .cls-62, .cls-63, .cls-64, .cls-65, .cls-66, .cls-67, .cls-68, .cls-69, .cls-70, .cls-71, .cls-72, .cls-73, .cls-74, .cls-75, .cls-76, .cls-78, .cls-79, .cls-80, .cls-81, .cls-82, .cls-83, .cls-84, .cls-85, .cls-86, .cls-87, .cls-88, .cls-89, .cls-90, .cls-91, .cls-92, .cls-93, .cls-94, .cls-95, .cls-96, .cls-97, .cls-98, .cls-100, .cls-101, .cls-102, .cls-103, .cls-104, .cls-105, .cls-106, .cls-107, .cls-108, .cls-109, .cls-110, .cls-111, .cls-112, .cls-113, .cls-114, .cls-115, .cls-116, .cls-117, .cls-118, .cls-119, .cls-120, .cls-121, .cls-122, .cls-123, .cls-124, .cls-125, .cls-126, .cls-127, .cls-128, .cls-129, .cls-130, .cls-131, .cls-132, .cls-133, .cls-134, .cls-135, .cls-136, .cls-137, .cls-138, .cls-139, .cls-140, .cls-141, .cls-142, .cls-143, .cls-144, .cls-145, .cls-146, .cls-147, .cls-148, .cls-149, .cls-150, .cls-152, .cls-153, .cls-154, .cls-155, .cls-156, .cls-157, .cls-158, .cls-159, .cls-160, .cls-161, .cls-162, .cls-163, .cls-164, .cls-165, .cls-166, .cls-167, .cls-168, .cls-169, .cls-170, .cls-171, .cls-172, .cls-173, .cls-174, .cls-175, .cls-176, .cls-177, .cls-178, .cls-179, .cls-180, .cls-181, .cls-182, .cls-183, .cls-184, .cls-185 {
        fill-rule: evenodd;
      }

      .cls-2 {
        fill: #118c74;
      }

      .cls-3 {
        fill: #0da682;
      }

      .cls-4 {
        fill: #09c192;
      }

      .cls-5 {
        fill: #0bb289;
      }

      .cls-6 {
        fill: #07cc98;
      }

      .cls-7 {
        fill: #108e75;
      }

      .cls-8 {
        fill: #02efac;
      }

      .cls-9 {
        fill: #157164;
      }

      .cls-10 {
        fill: #0da380;
      }

      .cls-11 {
        fill: #0caf87;
      }

      .cls-12 {
        fill: #03e6a7;
      }

      .cls-13 {
        fill: #09be90;
      }

      .cls-14 {
        fill: #03e8a8;
      }

      .cls-15 {
        fill: #05dfa3;
      }

      .cls-16 {
        fill: #02f0ad;
      }

      .cls-17 {
        fill: #137e6b;
      }

      .cls-18 {
        fill: #00fbb3;
      }

      .cls-19 {
        fill: #0ca984;
      }

      .cls-20 {
        fill: #07d09b;
      }

      .cls-21 {
        fill: #0e9e7e;
      }

      .cls-22 {
        fill: #07cb98;
      }

      .cls-23 {
        fill: #0bb58b;
      }

      .cls-24 {
        fill: #04e3a5;
      }

      .cls-25 {
        fill: #05dea3;
      }

      .cls-26 {
        fill: #08c594;
      }

      .cls-27 {
        fill: #12816d;
      }

      .cls-28 {
        fill: #118a72;
      }

      .cls-29 {
        fill: #0cab85;
      }

      .cls-30 {
        fill: #109277;
      }

      .cls-31 {
        fill: #118770;
      }

      .cls-32 {
        fill: #147466;
      }

      .cls-33 {
        fill: #12806c;
      }

      .cls-34 {
        fill: #0da481;
      }

      .cls-35 {
        fill: #04e6a7;
      }

      .cls-36 {
        fill: #08c795;
      }

      .cls-37 {
        fill: #02f3ae;
      }

      .cls-38 {
        fill: #0da582;
      }

      .cls-39 {
        fill: #156f62;
      }

      .cls-40 {
        fill: #00feb5;
      }

      .cls-41 {
        fill: #06d29c;
      }

      .cls-42 {
        fill: #0da381;
      }

      .cls-43 {
        fill: #109076;
      }

      .cls-44 {
        fill: #07ce99;
      }

      .cls-45 {
        fill: #02f2ae;
      }

      .cls-46 {
        fill: #0cac86;
      }

      .cls-47 {
        fill: #03ecab;
      }

      .cls-48 {
        fill: #0ab88d;
      }

      .cls-49 {
        fill: #0f9a7b;
      }

      .cls-50, .cls-151 {
        fill: #156e62;
      }

      .cls-51 {
        fill: #08c694;
      }

      .cls-52 {
        fill: #0da280;
      }

      .cls-53 {
        fill: #157063;
      }

      .cls-54 {
        fill: #02efad;
      }

      .cls-55 {
        fill: #00fdb4;
      }

      .cls-56 {
        fill: #07d19b;
      }

      .cls-57 {
        fill: #118b73;
      }

      .cls-58 {
        fill: #0aba8e;
      }

      .cls-59 {
        fill: #12826e;
      }

      .cls-60 {
        fill: #0f997b;
      }

      .cls-61 {
        fill: #05d9a0;
      }

      .cls-62 {
        fill: #0f987a;
      }

      .cls-63 {
        fill: #08ca97;
      }

      .cls-64 {
        fill: #08c896;
      }

      .cls-65 {
        fill: #108f75;
      }

      .cls-66 {
        fill: #07cb97;
      }

      .cls-67 {
        fill: #06d79f;
      }

      .cls-68 {
        fill: #0f9578;
      }

      .cls-69 {
        fill: #02f3af;
      }

      .cls-70 {
        fill: #09c292;
      }

      .cls-71 {
        fill: #147365;
      }

      .cls-72 {
        fill: #09bf91;
      }

      .cls-73 {
        fill: #01fab3;
      }

      .cls-74 {
        fill: #12826d;
      }

      .cls-75 {
        fill: #118871;
      }

      .cls-76 {
        fill: #0bb68b;
      }

      .cls-77, .cls-186, .cls-187 {
        fill: none;
      }

      .cls-78 {
        fill: #0f9478;
      }

      .cls-79 {
        fill: #0da884;
      }

      .cls-80 {
        fill: #137b69;
      }

      .cls-81 {
        fill: #0ea180;
      }

      .cls-82 {
        fill: #0e9b7c;
      }

      .cls-83 {
        fill: #08c493;
      }

      .cls-84 {
        fill: #0da883;
      }

      .cls-85 {
        fill: #0f9779;
      }

      .cls-86 {
        fill: #01f7b1;
      }

      .cls-87 {
        fill: #0e9c7d;
      }

      .cls-88 {
        fill: #09c091;
      }

      .cls-89 {
        fill: #06d49d;
      }

      .cls-90 {
        fill: #118972;
      }

      .cls-91 {
        fill: #0e9c7c;
      }

      .cls-92 {
        fill: #05daa0;
      }

      .cls-93 {
        fill: #0f977a;
      }

      .cls-94 {
        fill: #137a69;
      }

      .cls-95 {
        fill: #0bb189;
      }

      .cls-96 {
        fill: #0abb8f;
      }

      .cls-97 {
        fill: #02edab;
      }

      .cls-98 {
        fill: #08c695;
      }

      .cls-99 {
        fill: #fff;
      }

      .cls-100 {
        fill: #09c393;
      }

      .cls-101 {
        fill: #0ab68c;
      }

      .cls-102 {
        fill: #03eaaa;
      }

      .cls-103 {
        fill: #08c997;
      }

      .cls-104 {
        fill: #01f6b0;
      }

      .cls-105 {
        fill: #118670;
      }

      .cls-106 {
        fill: #12836e;
      }

      .cls-107 {
        fill: #109377;
      }

      .cls-108 {
        fill: #07cf9a;
      }

      .cls-109 {
        fill: #0cad86;
      }

      .cls-110 {
        fill: #06d69e;
      }

      .cls-111 {
        fill: #04e0a3;
      }

      .cls-112 {
        fill: #0abc8f;
      }

      .cls-113 {
        fill: #118971;
      }

      .cls-114 {
        fill: #0cac85;
      }

      .cls-115 {
        fill: #03eaa9;
      }

      .cls-116 {
        fill: #05dda2;
      }

      .cls-117 {
        fill: #137d6b;
      }

      .cls-118 {
        fill: #0da683;
      }

      .cls-119 {
        fill: #108d74;
      }

      .cls-120 {
        fill: #147264;
      }

      .cls-121 {
        fill: #109176;
      }

      .cls-122 {
        fill: #01f5b0;
      }

      .cls-186 {
        stroke: #fff9ae;
      }

      .cls-186, .cls-187 {
        stroke-miterlimit: 10;
        stroke-width: 5px;
      }

      .cls-123 {
        fill: #0cae87;
      }

      .cls-124 {
        fill: #0ab78c;
      }

      .cls-188 {
        clip-path: url(#clippath);
      }

      .cls-125 {
        fill: #0e9f7e;
      }

      .cls-126 {
        fill: #128670;
      }

      .cls-127 {
        fill: #05dba1;
      }

      .cls-128 {
        fill: #01f8b2;
      }

      .cls-129 {
        fill: #06d59d;
      }

      .cls-187 {
        stroke: #000;
      }

      .cls-130 {
        fill: #0f9679;
      }

      .cls-131 {
        fill: #02eeac;
      }

      .cls-132 {
        fill: #04e2a5;
      }

      .cls-133 {
        fill: #03ebaa;
      }

      .cls-134 {
        fill: #0ea07f;
      }

      .cls-135 {
        fill: #137c6a;
      }

      .cls-136 {
        fill: #09bd90;
      }

      .cls-137 {
        fill: #02f1ae;
      }

      .cls-138 {
        fill: #0caa85;
      }

      .cls-139 {
        fill: #03e9a9;
      }

      .cls-140 {
        fill: #0bb48a;
      }

      .cls-141 {
        fill: #147767;
      }

      .cls-142 {
        fill: #147566;
      }

      .cls-143 {
        fill: #0ea17f;
      }

      .cls-144 {
        fill: #118c73;
      }

      .cls-145 {
        fill: #137968;
      }

      .cls-146 {
        fill: #04e4a6;
      }

      .cls-147 {
        fill: #04e5a6;
      }

      .cls-148 {
        fill: #01f9b2;
      }

      .cls-149 {
        fill: #04e5a7;
      }

      .cls-150 {
        fill: #118771;
      }

      .cls-152 {
        fill: #04e3a6;
      }

      .cls-153 {
        fill: #0abb8e;
      }

      .cls-154 {
        fill: #147465;
      }

      .cls-155 {
        fill: #0e9d7d;
      }

      .cls-156 {
        fill: #108e74;
      }

      .cls-157 {
        fill: #05dea2;
      }

      .cls-158 {
        fill: #137d6a;
      }

      .cls-159 {
        fill: #12856f;
      }

      .cls-160 {
        fill: #12846f;
      }

      .cls-161 {
        fill: #04e1a4;
      }

      .cls-162 {
        fill: #0ab98d;
      }

      .cls-163 {
        fill: #08c996;
      }

      .cls-164 {
        fill: #07cd99;
      }

      .cls-165 {
        fill: #06d39c;
      }

      .cls-166 {
        fill: #01f8b1;
      }

      .cls-167 {
        fill: #05dca1;
      }

      .cls-168 {
        fill: #0bb38a;
      }

      .cls-169 {
        fill: #04e0a4;
      }

      .cls-170 {
        fill: #07d09a;
      }

      .cls-171 {
        fill: #147868;
      }

      .cls-172 {
        fill: #01f4af;
      }

      .cls-173 {
        fill: #03e7a8;
      }

      .cls-174 {
        fill: #0bb188;
      }

      .cls-175 {
        fill: #06d89f;
      }

      .cls-176 {
        fill: #06d59e;
      }

      .cls-177 {
        fill: #147667;
      }

      .cls-178 {
        fill: #137f6c;
      }

      .cls-179 {
        fill: #08c494;
      }

      .cls-180 {
        fill: #00fdb5;
      }

      .cls-181 {
        fill: #0bb088;
      }

      .cls-182 {
        fill: #09c092;
      }

      .cls-183 {
        fill: #00fcb4;
      }

      .cls-184 {
        fill: #137969;
      }

      .cls-185 {
        fill: #0da783;
      }
    </style>
    <clipPath id="clippath">
      <ellipse class="cls-77" cx="201.44" cy="202.4" rx="193.81" ry="194.74"/>
    </clipPath>
  </defs>
  <g id="Layer_1" data-name="Layer 1">
    <g class="cls-188">
      <rect class="cls-151" x="7.64" y="7.66" width="387.61" height="389.48"/>
      <path class="cls-40" d="m202.58,202.4c0,.63-.51,1.14-1.14,1.14s-1.14-.51-1.14-1.14.51-1.14,1.14-1.14,1.14.51,1.14,1.14Z"/>
      <path class="cls-180" d="m202.2,202.4c0-.42-.34-.76-.76-.76s-.76.34-.76.76.34.76.76.76.76-.34.76-.76h0Zm1.14,0c0,1.05-.85,1.9-1.89,1.9s-1.89-.85-1.89-1.9.85-1.9,1.89-1.9,1.89.85,1.89,1.9Z"/>
      <path class="cls-55" d="m202.96,202.4c0-.84-.68-1.52-1.51-1.52s-1.51.68-1.51,1.52.68,1.52,1.51,1.52,1.51-.68,1.51-1.52h0Zm1.14,0c0,1.47-1.19,2.66-2.65,2.66s-2.65-1.19-2.65-2.66,1.19-2.66,2.65-2.66,2.65,1.19,2.65,2.66Z"/>
      <path class="cls-183" d="m203.71,202.4c0-1.26-1.02-2.28-2.27-2.28s-2.27,1.02-2.27,2.28,1.02,2.28,2.27,2.28,2.27-1.02,2.27-2.28h0Zm1.14,0c0,1.89-1.53,3.42-3.41,3.42s-3.41-1.53-3.41-3.42,1.53-3.42,3.41-3.42,3.41,1.53,3.41,3.42Z"/>
      <path class="cls-183" d="m204.47,202.4c0-1.68-1.36-3.04-3.03-3.04s-3.03,1.36-3.03,3.04,1.36,3.04,3.03,3.04,3.03-1.36,3.03-3.04h0Zm1.14,0c0,2.31-1.86,4.18-4.16,4.18s-4.16-1.87-4.16-4.18,1.86-4.18,4.16-4.18,4.16,1.87,4.16,4.18Z"/>
      <path class="cls-18" d="m205.23,202.4c0-2.1-1.69-3.8-3.79-3.8s-3.79,1.7-3.79,3.8,1.69,3.8,3.79,3.8,3.79-1.7,3.79-3.8h0Zm1.14,0c0,2.73-2.2,4.94-4.92,4.94s-4.92-2.21-4.92-4.94,2.2-4.94,4.92-4.94,4.92,2.21,4.92,4.94Z"/>
      <path class="cls-18" d="m205.99,202.4c0-2.52-2.03-4.56-4.54-4.56s-4.54,2.04-4.54,4.56,2.03,4.56,4.54,4.56,4.54-2.04,4.54-4.56h0Zm1.14,0c0,3.15-2.54,5.71-5.68,5.71s-5.68-2.55-5.68-5.71,2.54-5.71,5.68-5.71,5.68,2.55,5.68,5.71Z"/>
      <path class="cls-73" d="m206.74,202.4c0-2.94-2.37-5.32-5.3-5.32s-5.3,2.38-5.3,5.32,2.37,5.32,5.3,5.32,5.3-2.38,5.3-5.32h0Zm1.14,0c0,3.57-2.88,6.47-6.43,6.47s-6.43-2.89-6.43-6.47,2.88-6.47,6.43-6.47,6.43,2.89,6.43,6.47Z"/>
      <path class="cls-148" d="m207.5,202.4c0-3.36-2.71-6.09-6.06-6.09s-6.06,2.72-6.06,6.09,2.71,6.09,6.06,6.09,6.06-2.72,6.06-6.09h0Zm1.14,0c0,3.99-3.22,7.23-7.19,7.23s-7.19-3.24-7.19-7.23,3.22-7.23,7.19-7.23,7.19,3.24,7.19,7.23Z"/>
      <path class="cls-148" d="m208.26,202.4c0-3.78-3.05-6.85-6.81-6.85s-6.81,3.07-6.81,6.85,3.05,6.85,6.81,6.85,6.81-3.07,6.81-6.85h0Zm1.14,0c0,4.41-3.56,7.99-7.95,7.99s-7.95-3.58-7.95-7.99,3.56-7.99,7.95-7.99,7.95,3.58,7.95,7.99Z"/>
      <path class="cls-128" d="m209.01,202.4c0-4.2-3.39-7.61-7.57-7.61s-7.57,3.41-7.57,7.61,3.39,7.61,7.57,7.61,7.57-3.41,7.57-7.61h0Zm1.14,0c0,4.83-3.9,8.75-8.71,8.75s-8.71-3.92-8.71-8.75,3.9-8.75,8.71-8.75,8.71,3.92,8.71,8.75Z"/>
      <path class="cls-166" d="m209.77,202.4c0-4.62-3.73-8.37-8.33-8.37s-8.33,3.75-8.33,8.37,3.73,8.37,8.33,8.37,8.33-3.75,8.33-8.37h0Zm1.14,0c0,5.25-4.24,9.51-9.46,9.51s-9.46-4.26-9.46-9.51,4.24-9.51,9.46-9.51,9.46,4.26,9.46,9.51Z"/>
      <path class="cls-86" d="m210.53,202.4c0-5.04-4.07-9.13-9.08-9.13s-9.08,4.09-9.08,9.13,4.07,9.13,9.08,9.13,9.08-4.09,9.08-9.13h0Zm1.14,0c0,5.67-4.58,10.27-10.22,10.27s-10.22-4.6-10.22-10.27,4.58-10.27,10.22-10.27,10.22,4.6,10.22,10.27Z"/>
      <path class="cls-86" d="m211.28,202.4c0-5.46-4.41-9.89-9.84-9.89s-9.84,4.43-9.84,9.89,4.41,9.89,9.84,9.89,9.84-4.43,9.84-9.89h0Zm1.14,0c0,6.09-4.91,11.03-10.98,11.03s-10.98-4.94-10.98-11.03,4.91-11.03,10.98-11.03,10.98,4.94,10.98,11.03Z"/>
      <path class="cls-104" d="m212.04,202.4c0-5.88-4.75-10.65-10.6-10.65s-10.6,4.77-10.6,10.65,4.75,10.65,10.6,10.65,10.6-4.77,10.6-10.65h0Zm1.14,0c0,6.51-5.25,11.79-11.73,11.79s-11.73-5.28-11.73-11.79,5.25-11.79,11.73-11.79,11.73,5.28,11.73,11.79Z"/>
      <path class="cls-104" d="m212.8,202.4c0-6.3-5.08-11.41-11.36-11.41s-11.36,5.11-11.36,11.41,5.08,11.41,11.36,11.41,11.36-5.11,11.36-11.41h0Zm1.14,0c0,6.93-5.59,12.55-12.49,12.55s-12.49-5.62-12.49-12.55,5.59-12.55,12.49-12.55,12.49,5.62,12.49,12.55Z"/>
      <path class="cls-122" d="m213.56,202.4c0-6.72-5.42-12.17-12.11-12.17s-12.11,5.45-12.11,12.17,5.42,12.17,12.11,12.17,12.11-5.45,12.11-12.17h0Zm1.14,0c0,7.35-5.93,13.31-13.25,13.31s-13.25-5.96-13.25-13.31,5.93-13.31,13.25-13.31,13.25,5.96,13.25,13.31Z"/>
      <path class="cls-172" d="m214.31,202.4c0-7.14-5.76-12.93-12.87-12.93s-12.87,5.79-12.87,12.93,5.76,12.93,12.87,12.93,12.87-5.79,12.87-12.93h0Zm1.14,0c0,7.77-6.27,14.07-14.01,14.07s-14.01-6.3-14.01-14.07,6.27-14.07,14.01-14.07,14.01,6.3,14.01,14.07Z"/>
      <path class="cls-172" d="m215.07,202.4c0-7.56-6.1-13.69-13.63-13.69s-13.63,6.13-13.63,13.69,6.1,13.69,13.63,13.69,13.63-6.13,13.63-13.69h0Zm1.14,0c0,8.19-6.61,14.83-14.76,14.83s-14.76-6.64-14.76-14.83,6.61-14.83,14.76-14.83,14.76,6.64,14.76,14.83Z"/>
      <path class="cls-69" d="m215.83,202.4c0-7.98-6.44-14.45-14.38-14.45s-14.38,6.47-14.38,14.45,6.44,14.45,14.38,14.45,14.38-6.47,14.38-14.45h0Zm1.14,0c0,8.61-6.95,15.59-15.52,15.59s-15.52-6.98-15.52-15.59,6.95-15.59,15.52-15.59,15.52,6.98,15.52,15.59Z"/>
      <path class="cls-37" d="m216.58,202.4c0-8.4-6.78-15.21-15.14-15.21s-15.14,6.81-15.14,15.21,6.78,15.21,15.14,15.21,15.14-6.81,15.14-15.21h0Zm1.14,0c0,9.03-7.29,16.36-16.28,16.36s-16.28-7.32-16.28-16.36,7.29-16.36,16.28-16.36,16.28,7.32,16.28,16.36Z"/>
      <path class="cls-45" d="m217.34,202.4c0-8.82-7.12-15.97-15.9-15.97s-15.9,7.15-15.9,15.97,7.12,15.97,15.9,15.97,15.9-7.15,15.9-15.97h0Zm1.14,0c0,9.45-7.63,17.12-17.03,17.12s-17.03-7.66-17.03-17.12,7.63-17.12,17.03-17.12,17.03,7.66,17.03,17.12Z"/>
      <path class="cls-45" d="m218.1,202.4c0-9.24-7.46-16.74-16.66-16.74s-16.66,7.49-16.66,16.74,7.46,16.74,16.66,16.74,16.66-7.49,16.66-16.74h0Zm1.14,0c0,9.87-7.96,17.88-17.79,17.88s-17.79-8-17.79-17.88,7.97-17.88,17.79-17.88,17.79,8,17.79,17.88Z"/>
      <path class="cls-137" d="m218.86,202.4c0-9.66-7.8-17.5-17.41-17.5s-17.41,7.83-17.41,17.5,7.8,17.5,17.41,17.5,17.41-7.83,17.41-17.5h0Zm1.14,0c0,10.29-8.3,18.64-18.55,18.64s-18.55-8.34-18.55-18.64,8.3-18.64,18.55-18.64,18.55,8.34,18.55,18.64Z"/>
      <path class="cls-16" d="m219.61,202.4c0-10.08-8.13-18.26-18.17-18.26s-18.17,8.17-18.17,18.26,8.13,18.26,18.17,18.26,18.17-8.17,18.17-18.26h0Zm1.14,0c0,10.71-8.64,19.4-19.31,19.4s-19.3-8.68-19.3-19.4,8.64-19.4,19.3-19.4,19.31,8.68,19.31,19.4Z"/>
      <path class="cls-16" d="m220.37,202.4c0-10.5-8.47-19.02-18.93-19.02s-18.93,8.51-18.93,19.02,8.47,19.02,18.93,19.02,18.93-8.51,18.93-19.02h0Zm1.14,0c0,11.13-8.98,20.16-20.06,20.16s-20.06-9.03-20.06-20.16,8.98-20.16,20.06-20.16,20.06,9.03,20.06,20.16Z"/>
      <path class="cls-54" d="m221.13,202.4c0-10.92-8.81-19.78-19.68-19.78s-19.68,8.86-19.68,19.78,8.81,19.78,19.68,19.78,19.68-8.85,19.68-19.78h0Zm1.14,0c0,11.55-9.32,20.92-20.82,20.92s-20.82-9.37-20.82-20.92,9.32-20.92,20.82-20.92,20.82,9.37,20.82,20.92Z"/>
      <path class="cls-8" d="m221.88,202.4c0-11.34-9.15-20.54-20.44-20.54s-20.44,9.2-20.44,20.54,9.15,20.54,20.44,20.54,20.44-9.2,20.44-20.54h0Zm1.14,0c0,11.97-9.66,21.68-21.58,21.68s-21.58-9.71-21.58-21.68,9.66-21.68,21.58-21.68,21.58,9.71,21.58,21.68Z"/>
      <path class="cls-131" d="m222.64,202.4c0-11.76-9.49-21.3-21.2-21.3s-21.2,9.54-21.2,21.3,9.49,21.3,21.2,21.3,21.2-9.54,21.2-21.3h0Zm1.14,0c0,12.39-10,22.44-22.33,22.44s-22.33-10.05-22.33-22.44,10-22.44,22.33-22.44,22.33,10.05,22.33,22.44Z"/>
      <path class="cls-131" d="m223.4,202.4c0-12.18-9.83-22.06-21.95-22.06s-21.95,9.88-21.95,22.06,9.83,22.06,21.95,22.06,21.95-9.88,21.95-22.06h0Zm1.14,0c0,12.81-10.34,23.2-23.09,23.2s-23.09-10.39-23.09-23.2,10.34-23.2,23.09-23.2,23.09,10.39,23.09,23.2Z"/>
      <path class="cls-97" d="m224.15,202.4c0-12.6-10.17-22.82-22.71-22.82s-22.71,10.22-22.71,22.82,10.17,22.82,22.71,22.82,22.71-10.22,22.71-22.82h0Zm1.14,0c0,13.23-10.68,23.96-23.85,23.96s-23.85-10.73-23.85-23.96,10.68-23.96,23.85-23.96,23.85,10.73,23.85,23.96Z"/>
      <path class="cls-47" d="m224.91,202.4c0-13.02-10.51-23.58-23.47-23.58s-23.47,10.56-23.47,23.58,10.51,23.58,23.47,23.58,23.47-10.56,23.47-23.58h0Zm1.14,0c0,13.65-11.02,24.72-24.6,24.72s-24.6-11.07-24.6-24.72,11.02-24.72,24.6-24.72,24.6,11.07,24.6,24.72Z"/>
      <path class="cls-47" d="m225.67,202.4c0-13.44-10.85-24.34-24.23-24.34s-24.23,10.9-24.23,24.34,10.85,24.34,24.23,24.34,24.23-10.9,24.23-24.34h0Zm1.14,0c0,14.07-11.35,25.48-25.36,25.48s-25.36-11.41-25.36-25.48,11.35-25.48,25.36-25.48,25.36,11.41,25.36,25.48Z"/>
      <path class="cls-133" d="m226.43,202.4c0-13.86-11.19-25.1-24.98-25.1s-24.98,11.24-24.98,25.1,11.19,25.1,24.98,25.1,24.98-11.24,24.98-25.1h0Zm1.14,0c0,14.49-11.69,26.24-26.12,26.24s-26.12-11.75-26.12-26.24,11.69-26.24,26.12-26.24,26.12,11.75,26.12,26.24Z"/>
      <path class="cls-133" d="m227.18,202.4c0-14.28-11.52-25.86-25.74-25.86s-25.74,11.58-25.74,25.86,11.52,25.86,25.74,25.86,25.74-11.58,25.74-25.86h0Zm1.14,0c0,14.91-12.03,27-26.88,27s-26.88-12.09-26.88-27,12.03-27.01,26.88-27.01,26.88,12.09,26.88,27.01Z"/>
      <path class="cls-102" d="m227.94,202.4c0-14.7-11.86-26.62-26.5-26.62s-26.5,11.92-26.5,26.62,11.86,26.62,26.5,26.62,26.5-11.92,26.5-26.62h0Zm1.14,0c0,15.33-12.37,27.77-27.63,27.77s-27.63-12.43-27.63-27.77,12.37-27.77,27.63-27.77,27.63,12.43,27.63,27.77Z"/>
      <path class="cls-115" d="m228.7,202.4c0-15.12-12.2-27.39-27.25-27.39s-27.25,12.26-27.25,27.39,12.2,27.39,27.25,27.39,27.25-12.26,27.25-27.39h0Zm1.14,0c0,15.75-12.71,28.53-28.39,28.53s-28.39-12.77-28.39-28.53,12.71-28.53,28.39-28.53,28.39,12.77,28.39,28.53Z"/>
      <path class="cls-139" d="m229.45,202.4c0-15.54-12.54-28.15-28.01-28.15s-28.01,12.6-28.01,28.15,12.54,28.15,28.01,28.15,28.01-12.6,28.01-28.15h0Zm1.14,0c0,16.17-13.05,29.29-29.15,29.29s-29.15-13.11-29.15-29.29,13.05-29.29,29.15-29.29,29.15,13.11,29.15,29.29Z"/>
      <path class="cls-139" d="m230.21,202.4c0-15.96-12.88-28.91-28.77-28.91s-28.77,12.94-28.77,28.91,12.88,28.91,28.77,28.91,28.77-12.94,28.77-28.91h0Zm1.14,0c0,16.59-13.39,30.05-29.9,30.05s-29.9-13.45-29.9-30.05,13.39-30.05,29.9-30.05,29.9,13.45,29.9,30.05Z"/>
      <path class="cls-14" d="m230.97,202.4c0-16.38-13.22-29.67-29.53-29.67s-29.53,13.28-29.53,29.67,13.22,29.67,29.53,29.67,29.53-13.28,29.53-29.67h0Zm1.14,0c0,17.01-13.73,30.81-30.66,30.81s-30.66-13.79-30.66-30.81,13.73-30.81,30.66-30.81,30.66,13.79,30.66,30.81Z"/>
      <path class="cls-173" d="m231.73,202.4c0-16.81-13.56-30.43-30.28-30.43s-30.28,13.62-30.28,30.43,13.56,30.43,30.28,30.43,30.28-13.62,30.28-30.43h0Zm1.14,0c0,17.44-14.07,31.57-31.42,31.57s-31.42-14.13-31.42-31.57,14.07-31.57,31.42-31.57,31.42,14.13,31.42,31.57Z"/>
      <path class="cls-173" d="m232.48,202.4c0-17.23-13.9-31.19-31.04-31.19s-31.04,13.96-31.04,31.19,13.9,31.19,31.04,31.19,31.04-13.96,31.04-31.19h0Zm1.14,0c0,17.86-14.41,32.33-32.17,32.33s-32.17-14.47-32.17-32.33,14.41-32.33,32.17-32.33,32.17,14.47,32.17,32.33Z"/>
      <path class="cls-12" d="m233.24,202.4c0-17.65-14.24-31.95-31.8-31.95s-31.8,14.3-31.8,31.95,14.24,31.95,31.8,31.95,31.8-14.3,31.8-31.95h0Zm1.14,0c0,18.28-14.74,33.09-32.93,33.09s-32.93-14.81-32.93-33.09,14.74-33.09,32.93-33.09,32.93,14.82,32.93,33.09Z"/>
      <path class="cls-35" d="m234,202.4c0-18.07-14.57-32.71-32.55-32.71s-32.55,14.64-32.55,32.71,14.57,32.71,32.55,32.71,32.55-14.64,32.55-32.71h0Zm1.14,0c0,18.7-15.08,33.85-33.69,33.85s-33.69-15.16-33.69-33.85,15.08-33.85,33.69-33.85,33.69,15.16,33.69,33.85Z"/>
      <path class="cls-149" d="m234.75,202.4c0-18.49-14.91-33.47-33.31-33.47s-33.31,14.99-33.31,33.47,14.91,33.47,33.31,33.47,33.31-14.99,33.31-33.47h0Zm1.14,0c0,19.12-15.42,34.61-34.45,34.61s-34.45-15.5-34.45-34.61,15.42-34.61,34.45-34.61,34.45,15.5,34.45,34.61Z"/>
      <path class="cls-147" d="m235.51,202.4c0-18.91-15.25-34.23-34.07-34.23s-34.07,15.33-34.07,34.23,15.25,34.23,34.07,34.23,34.07-15.33,34.07-34.23h0Zm1.14,0c0,19.54-15.76,35.37-35.2,35.37s-35.2-15.84-35.2-35.37,15.76-35.37,35.2-35.37,35.2,15.84,35.2,35.37Z"/>
      <path class="cls-146" d="m236.27,202.4c0-19.33-15.59-34.99-34.82-34.99s-34.82,15.67-34.82,34.99,15.59,34.99,34.82,34.99,34.82-15.67,34.82-34.99h0Zm1.14,0c0,19.96-16.1,36.13-35.96,36.13s-35.96-16.18-35.96-36.13,16.1-36.13,35.96-36.13,35.96,16.18,35.96,36.13Z"/>
      <path class="cls-152" d="m237.02,202.4c0-19.75-15.93-35.75-35.58-35.75s-35.58,16.01-35.58,35.75,15.93,35.75,35.58,35.75,35.58-16.01,35.58-35.75h0Zm1.14,0c0,20.38-16.44,36.89-36.72,36.89s-36.72-16.52-36.72-36.89,16.44-36.89,36.72-36.89,36.72,16.52,36.72,36.89Z"/>
      <path class="cls-24" d="m237.78,202.4c0-20.17-16.27-36.51-36.34-36.51s-36.34,16.35-36.34,36.51,16.27,36.51,36.34,36.51,36.34-16.35,36.34-36.51h0Zm1.14,0c0,20.8-16.78,37.65-37.47,37.65s-37.47-16.86-37.47-37.65,16.78-37.65,37.47-37.65,37.47,16.86,37.47,37.65Z"/>
      <path class="cls-132" d="m238.54,202.4c0-20.59-16.61-37.27-37.1-37.27s-37.1,16.69-37.1,37.27,16.61,37.27,37.1,37.27,37.1-16.69,37.1-37.27h0Zm1.14,0c0,21.22-17.12,38.42-38.23,38.42s-38.23-17.2-38.23-38.42,17.12-38.42,38.23-38.42,38.23,17.2,38.23,38.42Z"/>
      <path class="cls-132" d="m239.3,202.4c0-21.01-16.95-38.04-37.85-38.04s-37.85,17.03-37.85,38.04,16.95,38.04,37.85,38.04,37.85-17.03,37.85-38.04h0Zm1.14,0c0,21.64-17.46,39.18-38.99,39.18s-38.99-17.54-38.99-39.18,17.46-39.18,38.99-39.18,38.99,17.54,38.99,39.18Z"/>
      <path class="cls-161" d="m240.05,202.4c0-21.43-17.29-38.8-38.61-38.8s-38.61,17.37-38.61,38.8,17.29,38.8,38.61,38.8,38.61-17.37,38.61-38.8h0Zm1.14,0c0,22.06-17.79,39.94-39.75,39.94s-39.75-17.88-39.75-39.94,17.79-39.94,39.75-39.94,39.75,17.88,39.75,39.94Z"/>
      <path class="cls-161" d="m240.81,202.4c0-21.85-17.63-39.56-39.37-39.56s-39.37,17.71-39.37,39.56,17.62,39.56,39.37,39.56,39.37-17.71,39.37-39.56h0Zm1.14,0c0,22.48-18.13,40.7-40.5,40.7s-40.5-18.22-40.5-40.7,18.13-40.7,40.5-40.7,40.5,18.22,40.5,40.7Z"/>
      <path class="cls-169" d="m241.57,202.4c0-22.27-17.96-40.32-40.12-40.32s-40.12,18.05-40.12,40.32,17.96,40.32,40.12,40.32,40.12-18.05,40.12-40.32h0Zm1.14,0c0,22.9-18.47,41.46-41.26,41.46s-41.26-18.56-41.26-41.46,18.47-41.46,41.26-41.46,41.26,18.56,41.26,41.46Z"/>
      <path class="cls-111" d="m242.32,202.4c0-22.69-18.3-41.08-40.88-41.08s-40.88,18.39-40.88,41.08,18.3,41.08,40.88,41.08,40.88-18.39,40.88-41.08h0Zm1.14,0c0,23.32-18.81,42.22-42.02,42.22s-42.02-18.9-42.02-42.22,18.81-42.22,42.02-42.22,42.02,18.9,42.02,42.22Z"/>
      <path class="cls-15" d="m243.08,202.4c0-23.11-18.64-41.84-41.64-41.84s-41.64,18.73-41.64,41.84,18.64,41.84,41.64,41.84,41.64-18.73,41.64-41.84h0Zm1.14,0c0,23.74-19.15,42.98-42.77,42.98s-42.77-19.24-42.77-42.98,19.15-42.98,42.77-42.98,42.77,19.24,42.77,42.98Z"/>
      <path class="cls-25" d="m243.84,202.4c0-23.53-18.98-42.6-42.4-42.6s-42.39,19.07-42.39,42.6,18.98,42.6,42.39,42.6,42.4-19.07,42.4-42.6h0Zm1.14,0c0,24.16-19.49,43.74-43.53,43.74s-43.53-19.58-43.53-43.74,19.49-43.74,43.53-43.74,43.53,19.58,43.53,43.74Z"/>
      <path class="cls-157" d="m244.6,202.4c0-23.95-19.32-43.36-43.15-43.36s-43.15,19.41-43.15,43.36,19.32,43.36,43.15,43.36,43.15-19.41,43.15-43.36h0Zm1.14,0c0,24.58-19.83,44.5-44.29,44.5s-44.29-19.92-44.29-44.5,19.83-44.5,44.29-44.5,44.29,19.92,44.29,44.5Z"/>
      <path class="cls-116" d="m245.35,202.4c0-24.37-19.66-44.12-43.91-44.12s-43.91,19.75-43.91,44.12,19.66,44.12,43.91,44.12,43.91-19.75,43.91-44.12h0Zm1.14,0c0,25-20.17,45.26-45.04,45.26s-45.04-20.26-45.04-45.26,20.17-45.26,45.04-45.26,45.04,20.26,45.04,45.26Z"/>
      <path class="cls-116" d="m246.11,202.4c0-24.79-20-44.88-44.67-44.88s-44.67,20.09-44.67,44.88,20,44.88,44.67,44.88,44.67-20.09,44.67-44.88h0Zm1.14,0c0,25.42-20.51,46.02-45.8,46.02s-45.8-20.61-45.8-46.02,20.51-46.02,45.8-46.02,45.8,20.6,45.8,46.02Z"/>
      <path class="cls-167" d="m246.87,202.4c0-25.21-20.34-45.64-45.42-45.64s-45.42,20.43-45.42,45.64,20.34,45.64,45.42,45.64,45.42-20.43,45.42-45.64h0Zm1.14,0c0,25.84-20.85,46.78-46.56,46.78s-46.56-20.95-46.56-46.78,20.85-46.78,46.56-46.78,46.56,20.95,46.56,46.78Z"/>
      <path class="cls-167" d="m247.62,202.4c0-25.63-20.68-46.4-46.18-46.4s-46.18,20.78-46.18,46.4,20.68,46.4,46.18,46.4,46.18-20.78,46.18-46.4h0Zm1.14,0c0,26.26-21.18,47.54-47.32,47.54s-47.32-21.29-47.32-47.54,21.18-47.54,47.32-47.54,47.32,21.29,47.32,47.54Z"/>
      <path class="cls-127" d="m248.38,202.4c0-26.05-21.01-47.16-46.94-47.16s-46.94,21.12-46.94,47.16,21.01,47.16,46.94,47.16,46.94-21.12,46.94-47.16h0Zm1.14,0c0,26.68-21.52,48.3-48.07,48.3s-48.07-21.63-48.07-48.3,21.52-48.3,48.07-48.3,48.07,21.63,48.07,48.3Z"/>
      <path class="cls-92" d="m249.14,202.4c0-26.47-21.35-47.92-47.69-47.92s-47.69,21.46-47.69,47.92,21.35,47.92,47.69,47.92,47.69-21.46,47.69-47.92h0Zm1.14,0c0,27.1-21.86,49.07-48.83,49.07s-48.83-21.97-48.83-49.07,21.86-49.07,48.83-49.07,48.83,21.97,48.83,49.07Z"/>
      <path class="cls-92" d="m249.89,202.4c0-26.89-21.69-48.68-48.45-48.68s-48.45,21.8-48.45,48.68,21.69,48.69,48.45,48.69,48.45-21.8,48.45-48.69h0Zm1.14,0c0,27.52-22.2,49.83-49.59,49.83s-49.59-22.31-49.59-49.83,22.2-49.83,49.59-49.83,49.59,22.31,49.59,49.83Z"/>
      <path class="cls-61" d="m250.65,202.4c0-27.31-22.03-49.45-49.21-49.45s-49.21,22.14-49.21,49.45,22.03,49.45,49.21,49.45,49.21-22.14,49.21-49.45h0Zm1.14,0c0,27.94-22.54,50.59-50.34,50.59s-50.34-22.65-50.34-50.59,22.54-50.59,50.34-50.59,50.34,22.65,50.34,50.59Z"/>
      <path class="cls-61" d="m251.41,202.4c0-27.73-22.37-50.21-49.97-50.21s-49.97,22.48-49.97,50.21,22.37,50.21,49.97,50.21,49.97-22.48,49.97-50.21h0Zm1.14,0c0,28.36-22.88,51.35-51.1,51.35s-51.1-22.99-51.1-51.35,22.88-51.35,51.1-51.35,51.1,22.99,51.1,51.35Z"/>
      <path class="cls-175" d="m252.17,202.4c0-28.15-22.71-50.97-50.72-50.97s-50.72,22.82-50.72,50.97,22.71,50.97,50.72,50.97,50.72-22.82,50.72-50.97h0Zm1.14,0c0,28.78-23.22,52.11-51.86,52.11s-51.86-23.33-51.86-52.11,23.22-52.11,51.86-52.11,51.86,23.33,51.86,52.11Z"/>
      <path class="cls-175" d="m252.92,202.4c0-28.57-23.05-51.73-51.48-51.73s-51.48,23.16-51.48,51.73,23.05,51.73,51.48,51.73,51.48-23.16,51.48-51.73h0Zm1.14,0c0,29.2-23.56,52.87-52.62,52.87s-52.62-23.67-52.62-52.87,23.56-52.87,52.62-52.87,52.62,23.67,52.62,52.87Z"/>
      <path class="cls-67" d="m253.68,202.4c0-28.99-23.39-52.49-52.24-52.49s-52.24,23.5-52.24,52.49,23.39,52.49,52.24,52.49,52.24-23.5,52.24-52.49h0Zm1.14,0c0,29.62-23.9,53.63-53.37,53.63s-53.37-24.01-53.37-53.63,23.9-53.63,53.37-53.63,53.37,24.01,53.37,53.63Z"/>
      <path class="cls-110" d="m254.44,202.4c0-29.41-23.73-53.25-52.99-53.25s-52.99,23.84-52.99,53.25,23.73,53.25,52.99,53.25,52.99-23.84,52.99-53.25h0Zm1.14,0c0,30.04-24.23,54.39-54.13,54.39s-54.13-24.35-54.13-54.39,24.23-54.39,54.13-54.39,54.13,24.35,54.13,54.39Z"/>
      <path class="cls-110" d="m255.19,202.4c0-29.83-24.07-54.01-53.75-54.01s-53.75,24.18-53.75,54.01,24.06,54.01,53.75,54.01,53.75-24.18,53.75-54.01h0Zm1.14,0c0,30.46-24.57,55.15-54.89,55.15s-54.89-24.69-54.89-55.15,24.57-55.15,54.89-55.15,54.89,24.69,54.89,55.15Z"/>
      <path class="cls-176" d="m255.95,202.4c0-30.25-24.4-54.77-54.51-54.77s-54.51,24.52-54.51,54.77,24.4,54.77,54.51,54.77,54.51-24.52,54.51-54.77h0Zm1.14,0c0,30.88-24.91,55.91-55.64,55.91s-55.64-25.03-55.64-55.91,24.91-55.91,55.64-55.91,55.64,25.03,55.64,55.91Z"/>
      <path class="cls-129" d="m256.71,202.4c0-30.67-24.74-55.53-55.27-55.53s-55.27,24.86-55.27,55.53,24.74,55.53,55.27,55.53,55.27-24.86,55.27-55.53h0Zm1.14,0c0,31.3-25.25,56.67-56.4,56.67s-56.4-25.37-56.4-56.67,25.25-56.67,56.4-56.67,56.4,25.37,56.4,56.67Z"/>
      <path class="cls-89" d="m257.47,202.4c0-31.09-25.08-56.29-56.02-56.29s-56.02,25.2-56.02,56.29,25.08,56.29,56.02,56.29,56.02-25.2,56.02-56.29h0Zm1.14,0c0,31.72-25.59,57.43-57.16,57.43s-57.16-25.71-57.16-57.43,25.59-57.43,57.16-57.43,57.16,25.71,57.16,57.43Z"/>
      <path class="cls-89" d="m258.22,202.4c0-31.51-25.42-57.05-56.78-57.05s-56.78,25.54-56.78,57.05,25.42,57.05,56.78,57.05,56.78-25.54,56.78-57.05h0Zm1.14,0c0,32.14-25.93,58.19-57.91,58.19s-57.91-26.05-57.91-58.19,25.93-58.19,57.91-58.19,57.91,26.05,57.91,58.19Z"/>
      <path class="cls-165" d="m258.98,202.4c0-31.93-25.76-57.81-57.54-57.81s-57.54,25.88-57.54,57.81,25.76,57.81,57.54,57.81,57.54-25.88,57.54-57.81h0Zm1.14,0c0,32.56-26.27,58.95-58.67,58.95s-58.67-26.4-58.67-58.95,26.27-58.95,58.67-58.95,58.67,26.39,58.67,58.95Z"/>
      <path class="cls-165" d="m259.74,202.4c0-32.35-26.1-58.57-58.29-58.57s-58.29,26.22-58.29,58.57,26.1,58.57,58.29,58.57,58.29-26.22,58.29-58.57h0Zm1.14,0c0,32.98-26.61,59.72-59.43,59.72s-59.43-26.74-59.43-59.72,26.61-59.72,59.43-59.72,59.43,26.74,59.43,59.72Z"/>
      <path class="cls-41" d="m260.49,202.4c0-32.77-26.44-59.34-59.05-59.34s-59.05,26.57-59.05,59.34,26.44,59.33,59.05,59.33,59.05-26.57,59.05-59.33h0Zm1.14,0c0,33.4-26.95,60.48-60.19,60.48s-60.19-27.08-60.19-60.48,26.95-60.48,60.19-60.48,60.19,27.08,60.19,60.48Z"/>
      <path class="cls-56" d="m261.25,202.4c0-33.19-26.78-60.1-59.81-60.1s-59.81,26.91-59.81,60.1,26.78,60.1,59.81,60.1,59.81-26.91,59.81-60.1h0Zm1.14,0c0,33.82-27.29,61.24-60.94,61.24s-60.94-27.42-60.94-61.24,27.29-61.24,60.94-61.24,60.94,27.42,60.94,61.24Z"/>
      <path class="cls-56" d="m262.01,202.4c0-33.61-27.12-60.86-60.56-60.86s-60.56,27.25-60.56,60.86,27.12,60.86,60.56,60.86,60.56-27.25,60.56-60.86h0Zm1.14,0c0,34.24-27.62,62-61.7,62s-61.7-27.76-61.7-62,27.62-62,61.7-62,61.7,27.76,61.7,62Z"/>
      <path class="cls-20" d="m262.76,202.4c0-34.03-27.45-61.62-61.32-61.62s-61.32,27.59-61.32,61.62,27.45,61.62,61.32,61.62,61.32-27.59,61.32-61.62h0Zm1.14,0c0,34.66-27.96,62.76-62.46,62.76s-62.46-28.1-62.46-62.76,27.96-62.76,62.46-62.76,62.46,28.1,62.46,62.76Z"/>
      <path class="cls-170" d="m263.52,202.4c0-34.45-27.79-62.38-62.08-62.38s-62.08,27.93-62.08,62.38,27.79,62.38,62.08,62.38,62.08-27.93,62.08-62.38h0Zm1.14,0c0,35.08-28.3,63.52-63.21,63.52s-63.21-28.44-63.21-63.52,28.3-63.52,63.21-63.52,63.21,28.44,63.21,63.52Z"/>
      <path class="cls-108" d="m264.28,202.4c0-34.87-28.13-63.14-62.84-63.14s-62.84,28.27-62.84,63.14,28.13,63.14,62.84,63.14,62.84-28.27,62.84-63.14h0Zm1.14,0c0,35.5-28.64,64.28-63.97,64.28s-63.97-28.78-63.97-64.28,28.64-64.28,63.97-64.28,63.97,28.78,63.97,64.28Z"/>
      <path class="cls-108" d="m265.04,202.4c0-35.29-28.47-63.9-63.59-63.9s-63.59,28.61-63.59,63.9,28.47,63.9,63.59,63.9,63.59-28.61,63.59-63.9h0Zm1.14,0c0,35.92-28.98,65.04-64.73,65.04s-64.73-29.12-64.73-65.04,28.98-65.04,64.73-65.04,64.73,29.12,64.73,65.04Z"/>
      <path class="cls-44" d="m265.79,202.4c0-35.71-28.81-64.66-64.35-64.66s-64.35,28.95-64.35,64.66,28.81,64.66,64.35,64.66,64.35-28.95,64.35-64.66h0Zm1.14,0c0,36.34-29.32,65.8-65.49,65.8s-65.49-29.46-65.49-65.8,29.32-65.8,65.49-65.8,65.49,29.46,65.49,65.8Z"/>
      <path class="cls-164" d="m266.55,202.4c0-36.13-29.15-65.42-65.11-65.42s-65.11,29.29-65.11,65.42,29.15,65.42,65.11,65.42,65.11-29.29,65.11-65.42h0Zm1.14,0c0,36.76-29.66,66.56-66.24,66.56s-66.24-29.8-66.24-66.56,29.66-66.56,66.24-66.56,66.24,29.8,66.24,66.56Z"/>
      <path class="cls-164" d="m267.31,202.4c0-36.55-29.49-66.18-65.86-66.18s-65.86,29.63-65.86,66.18,29.49,66.18,65.86,66.18,65.86-29.63,65.86-66.18h0Zm1.14,0c0,37.18-30,67.32-67,67.32s-67-30.14-67-67.32,30-67.32,67-67.32,67,30.14,67,67.32Z"/>
      <path class="cls-6" d="m268.06,202.4c0-36.97-29.83-66.94-66.62-66.94s-66.62,29.97-66.62,66.94,29.83,66.94,66.62,66.94,66.62-29.97,66.62-66.94h0Zm1.14,0c0,37.6-30.34,68.08-67.76,68.08s-67.76-30.48-67.76-68.08,30.34-68.08,67.76-68.08,67.76,30.48,67.76,68.08Z"/>
      <path class="cls-6" d="m268.82,202.4c0-37.39-30.17-67.7-67.38-67.7s-67.38,30.31-67.38,67.7,30.17,67.7,67.38,67.7,67.38-30.31,67.38-67.7h0Zm1.14,0c0,38.02-30.67,68.84-68.51,68.84s-68.51-30.82-68.51-68.84,30.67-68.84,68.51-68.84,68.51,30.82,68.51,68.84Z"/>
      <path class="cls-22" d="m269.58,202.4c0-37.81-30.51-68.46-68.13-68.46s-68.13,30.65-68.13,68.46,30.5,68.46,68.13,68.46,68.13-30.65,68.13-68.46h0Zm1.14,0c0,38.44-31.01,69.6-69.27,69.6s-69.27-31.16-69.27-69.6,31.01-69.6,69.27-69.6,69.27,31.16,69.27,69.6Z"/>
      <path class="cls-66" d="m270.34,202.4c0-38.23-30.84-69.22-68.89-69.22s-68.89,30.99-68.89,69.22,30.84,69.22,68.89,69.22,68.89-30.99,68.89-69.22h0Zm1.14,0c0,38.86-31.35,70.36-70.03,70.36s-70.03-31.5-70.03-70.36,31.35-70.37,70.03-70.37,70.03,31.5,70.03,70.37Z"/>
      <path class="cls-63" d="m271.09,202.4c0-38.65-31.18-69.98-69.65-69.98s-69.65,31.33-69.65,69.98,31.18,69.98,69.65,69.98,69.65-31.33,69.65-69.98h0Zm1.14,0c0,39.28-31.69,71.13-70.78,71.13s-70.78-31.84-70.78-71.13,31.69-71.13,70.78-71.13,70.78,31.84,70.78,71.13Z"/>
      <path class="cls-103" d="m271.85,202.4c0-39.07-31.52-70.75-70.41-70.75s-70.41,31.67-70.41,70.75,31.52,70.75,70.41,70.75,70.41-31.67,70.41-70.75h0Zm1.14,0c0,39.7-32.03,71.89-71.54,71.89s-71.54-32.18-71.54-71.89,32.03-71.89,71.54-71.89,71.54,32.18,71.54,71.89Z"/>
      <path class="cls-163" d="m272.61,202.4c0-39.49-31.86-71.51-71.16-71.51s-71.16,32.01-71.16,71.51,31.86,71.51,71.16,71.51,71.16-32.01,71.16-71.51h0Zm1.14,0c0,40.12-32.37,72.65-72.3,72.65s-72.3-32.53-72.3-72.65,32.37-72.65,72.3-72.65,72.3,32.53,72.3,72.65Z"/>
      <path class="cls-64" d="m273.36,202.4c0-39.91-32.2-72.27-71.92-72.27s-71.92,32.35-71.92,72.27,32.2,72.27,71.92,72.27,71.92-32.35,71.92-72.27h0Zm1.14,0c0,40.54-32.71,73.41-73.06,73.41s-73.06-32.87-73.06-73.41,32.71-73.41,73.06-73.41,73.06,32.87,73.06,73.41Z"/>
      <path class="cls-64" d="m274.12,202.4c0-40.33-32.54-73.03-72.68-73.03s-72.68,32.7-72.68,73.03,32.54,73.03,72.68,73.03,72.68-32.7,72.68-73.03h0Zm1.14,0c0,40.96-33.05,74.17-73.81,74.17s-73.81-33.21-73.81-74.17,33.05-74.17,73.81-74.17,73.81,33.21,73.81,74.17Z"/>
      <path class="cls-36" d="m274.88,202.4c0-40.75-32.88-73.79-73.43-73.79s-73.43,33.04-73.43,73.79,32.88,73.79,73.43,73.79,73.43-33.04,73.43-73.79h0Zm1.14,0c0,41.38-33.39,74.93-74.57,74.93s-74.57-33.55-74.57-74.93,33.39-74.93,74.57-74.93,74.57,33.55,74.57,74.93Z"/>
      <path class="cls-36" d="m275.63,202.4c0-41.17-33.22-74.55-74.19-74.55s-74.19,33.38-74.19,74.55,33.22,74.55,74.19,74.55,74.19-33.38,74.19-74.55h0Zm1.14,0c0,41.8-33.72,75.69-75.33,75.69s-75.33-33.89-75.33-75.69,33.73-75.69,75.33-75.69,75.33,33.89,75.33,75.69Z"/>
      <path class="cls-98" d="m276.39,202.4c0-41.59-33.56-75.31-74.95-75.31s-74.95,33.72-74.95,75.31,33.56,75.31,74.95,75.31,74.95-33.72,74.95-75.31h0Zm1.14,0c0,42.22-34.06,76.45-76.08,76.45s-76.08-34.23-76.08-76.45,34.06-76.45,76.08-76.45,76.08,34.23,76.08,76.45Z"/>
      <path class="cls-51" d="m277.15,202.4c0-42.01-33.89-76.07-75.71-76.07s-75.71,34.06-75.71,76.07,33.89,76.07,75.71,76.07,75.71-34.06,75.71-76.07h0Zm1.14,0c0,42.64-34.4,77.21-76.84,77.21s-76.84-34.57-76.84-77.21,34.4-77.21,76.84-77.21,76.84,34.57,76.84,77.21Z"/>
      <path class="cls-26" d="m277.91,202.4c0-42.43-34.23-76.83-76.46-76.83s-76.46,34.4-76.46,76.83,34.23,76.83,76.46,76.83,76.46-34.4,76.46-76.83h0Zm1.14,0c0,43.06-34.74,77.97-77.6,77.97s-77.6-34.91-77.6-77.97,34.74-77.97,77.6-77.97,77.6,34.91,77.6,77.97Z"/>
      <path class="cls-179" d="m278.66,202.4c0-42.85-34.57-77.59-77.22-77.59s-77.22,34.74-77.22,77.59,34.57,77.59,77.22,77.59,77.22-34.74,77.22-77.59h0Zm1.14,0c0,43.48-35.08,78.73-78.36,78.73s-78.36-35.25-78.36-78.73,35.08-78.73,78.36-78.73,78.36,35.25,78.36,78.73Z"/>
      <path class="cls-83" d="m279.42,202.4c0-43.27-34.91-78.35-77.98-78.35s-77.98,35.08-77.98,78.35,34.91,78.35,77.98,78.35,77.98-35.08,77.98-78.35h0Zm1.14,0c0,43.9-35.42,79.49-79.11,79.49s-79.11-35.59-79.11-79.49,35.42-79.49,79.11-79.49,79.11,35.59,79.11,79.49Z"/>
      <path class="cls-100" d="m280.18,202.4c0-43.69-35.25-79.11-78.73-79.11s-78.73,35.42-78.73,79.11,35.25,79.11,78.73,79.11,78.73-35.42,78.73-79.11h0Zm1.14,0c0,44.32-35.76,80.25-79.87,80.25s-79.87-35.93-79.87-80.25,35.76-80.25,79.87-80.25,79.87,35.93,79.87,80.25Z"/>
      <path class="cls-100" d="m280.93,202.4c0-44.11-35.59-79.87-79.49-79.87s-79.49,35.76-79.49,79.87,35.59,79.87,79.49,79.87,79.49-35.76,79.49-79.87h0Zm1.14,0c0,44.74-36.1,81.01-80.63,81.01s-80.63-36.27-80.63-81.01,36.1-81.01,80.63-81.01,80.63,36.27,80.63,81.01Z"/>
      <path class="cls-70" d="m281.69,202.4c0-44.53-35.93-80.63-80.25-80.63s-80.25,36.1-80.25,80.63,35.93,80.63,80.25,80.63,80.25-36.1,80.25-80.63h0Zm1.14,0c0,45.16-36.44,81.78-81.38,81.78s-81.38-36.61-81.38-81.78,36.44-81.78,81.38-81.78,81.38,36.61,81.38,81.78Z"/>
      <path class="cls-70" d="m282.45,202.4c0-44.95-36.27-81.4-81.01-81.4s-81,36.44-81,81.4,36.27,81.4,81,81.4,81.01-36.44,81.01-81.4h0Zm1.14,0c0,45.58-36.78,82.54-82.14,82.54s-82.14-36.95-82.14-82.54,36.78-82.54,82.14-82.54,82.14,36.95,82.14,82.54Z"/>
      <path class="cls-4" d="m283.21,202.4c0-45.37-36.61-82.16-81.76-82.16s-81.76,36.78-81.76,82.16,36.61,82.16,81.76,82.16,81.76-36.78,81.76-82.16h0Zm1.14,0c0,46-37.11,83.3-82.9,83.3s-82.9-37.29-82.9-83.3,37.11-83.3,82.9-83.3,82.9,37.29,82.9,83.3Z"/>
      <path class="cls-182" d="m283.96,202.4c0-45.79-36.95-82.92-82.52-82.92s-82.52,37.12-82.52,82.92,36.95,82.92,82.52,82.92,82.52-37.12,82.52-82.92h0Zm1.14,0c0,46.42-37.45,84.06-83.65,84.06s-83.65-37.63-83.65-84.06,37.45-84.06,83.65-84.06,83.65,37.63,83.65,84.06Z"/>
      <path class="cls-88" d="m284.72,202.4c0-46.21-37.28-83.68-83.28-83.68s-83.28,37.46-83.28,83.68,37.28,83.68,83.28,83.68,83.28-37.46,83.28-83.68h0Zm1.14,0c0,46.84-37.79,84.82-84.41,84.82s-84.41-37.97-84.41-84.82,37.79-84.82,84.41-84.82,84.41,37.97,84.41,84.82Z"/>
      <path class="cls-72" d="m285.48,202.4c0-46.63-37.62-84.44-84.03-84.44s-84.03,37.8-84.03,84.44,37.62,84.44,84.03,84.44,84.03-37.8,84.03-84.44h0Zm1.14,0c0,47.26-38.13,85.58-85.17,85.58s-85.17-38.32-85.17-85.58,38.13-85.58,85.17-85.58,85.17,38.32,85.17,85.58Z"/>
      <path class="cls-72" d="m286.23,202.4c0-47.05-37.96-85.2-84.79-85.2s-84.79,38.14-84.79,85.2,37.96,85.2,84.79,85.2,84.79-38.14,84.79-85.2h0Zm1.14,0c0,47.68-38.47,86.34-85.93,86.34s-85.93-38.66-85.93-86.34,38.47-86.34,85.93-86.34,85.93,38.66,85.93,86.34Z"/>
      <path class="cls-13" d="m286.99,202.4c0-47.47-38.3-85.96-85.55-85.96s-85.55,38.49-85.55,85.96,38.3,85.96,85.55,85.96,85.55-38.49,85.55-85.96h0Zm1.14,0c0,48.1-38.81,87.1-86.68,87.1s-86.68-39-86.68-87.1,38.81-87.1,86.68-87.1,86.68,39,86.68,87.1Z"/>
      <path class="cls-13" d="m287.75,202.4c0-47.89-38.64-86.72-86.3-86.72s-86.3,38.83-86.3,86.72,38.64,86.72,86.3,86.72,86.3-38.83,86.3-86.72h0Zm1.14,0c0,48.52-39.15,87.86-87.44,87.86s-87.44-39.34-87.44-87.86,39.15-87.86,87.44-87.86,87.44,39.34,87.44,87.86Z"/>
      <path class="cls-136" d="m288.5,202.4c0-48.31-38.98-87.48-87.06-87.48s-87.06,39.17-87.06,87.48,38.98,87.48,87.06,87.48,87.06-39.17,87.06-87.48h0Zm1.14,0c0,48.94-39.49,88.62-88.2,88.62s-88.2-39.68-88.2-88.62,39.49-88.62,88.2-88.62,88.2,39.68,88.2,88.62Z"/>
      <path class="cls-112" d="m289.26,202.4c0-48.73-39.32-88.24-87.82-88.24s-87.82,39.51-87.82,88.24,39.32,88.24,87.82,88.24,87.82-39.51,87.82-88.24h0Zm1.14,0c0,49.36-39.83,89.38-88.95,89.38s-88.95-40.02-88.95-89.38,39.83-89.38,88.95-89.38,88.95,40.02,88.95,89.38Z"/>
      <path class="cls-112" d="m290.02,202.4c0-49.15-39.66-89-88.58-89s-88.58,39.85-88.58,89,39.66,89,88.58,89,88.58-39.85,88.58-89h0Zm1.14,0c0,49.78-40.16,90.14-89.71,90.14s-89.71-40.36-89.71-90.14,40.17-90.14,89.71-90.14,89.71,40.36,89.71,90.14Z"/>
      <path class="cls-96" d="m290.78,202.4c0-49.57-40-89.76-89.33-89.76s-89.33,40.19-89.33,89.76,40,89.76,89.33,89.76,89.33-40.19,89.33-89.76h0Zm1.14,0c0,50.2-40.5,90.9-90.47,90.9s-90.47-40.7-90.47-90.9,40.5-90.9,90.47-90.9,90.47,40.7,90.47,90.9Z"/>
      <path class="cls-153" d="m291.53,202.4c0-49.99-40.33-90.52-90.09-90.52s-90.09,40.53-90.09,90.52,40.33,90.52,90.09,90.52,90.09-40.53,90.09-90.52h0Zm1.14,0c0,50.63-40.84,91.66-91.23,91.66s-91.23-41.04-91.23-91.66,40.84-91.67,91.23-91.67,91.23,41.04,91.23,91.67Z"/>
      <path class="cls-58" d="m292.29,202.4c0-50.41-40.67-91.28-90.85-91.28s-90.85,40.87-90.85,91.28,40.67,91.28,90.85,91.28,90.85-40.87,90.85-91.28h0Zm1.14,0c0,51.05-41.18,92.43-91.98,92.43s-91.98-41.38-91.98-92.43,41.18-92.43,91.98-92.43,91.98,41.38,91.98,92.43Z"/>
      <path class="cls-58" d="m293.05,202.4c0-50.84-41.01-92.05-91.6-92.05s-91.6,41.21-91.6,92.05,41.01,92.05,91.6,92.05,91.6-41.21,91.6-92.05h0Zm1.14,0c0,51.47-41.52,93.19-92.74,93.19s-92.74-41.72-92.74-93.19,41.52-93.19,92.74-93.19,92.74,41.72,92.74,93.19Z"/>
      <path class="cls-162" d="m293.8,202.4c0-51.26-41.35-92.81-92.36-92.81s-92.36,41.55-92.36,92.81,41.35,92.81,92.36,92.81,92.36-41.55,92.36-92.81h0Zm1.14,0c0,51.89-41.86,93.95-93.5,93.95s-93.5-42.06-93.5-93.95,41.86-93.95,93.5-93.95,93.5,42.06,93.5,93.95Z"/>
      <path class="cls-162" d="m294.56,202.4c0-51.68-41.69-93.57-93.12-93.57s-93.12,41.89-93.12,93.57,41.69,93.57,93.12,93.57,93.12-41.89,93.12-93.57h0Zm1.14,0c0,52.31-42.2,94.71-94.25,94.71s-94.25-42.4-94.25-94.71,42.2-94.71,94.25-94.71,94.25,42.4,94.25,94.71Z"/>
      <path class="cls-48" d="m295.32,202.4c0-52.1-42.03-94.33-93.87-94.33s-93.87,42.23-93.87,94.33,42.03,94.33,93.87,94.33,93.87-42.23,93.87-94.33h0Zm1.14,0c0,52.73-42.54,95.47-95.01,95.47s-95.01-42.74-95.01-95.47,42.54-95.47,95.01-95.47,95.01,42.74,95.01,95.47Z"/>
      <path class="cls-124" d="m296.08,202.4c0-52.52-42.37-95.09-94.63-95.09s-94.63,42.57-94.63,95.09,42.37,95.09,94.63,95.09,94.63-42.57,94.63-95.09h0Zm1.14,0c0,53.15-42.88,96.23-95.77,96.23s-95.77-43.08-95.77-96.23,42.88-96.23,95.77-96.23,95.77,43.08,95.77,96.23Z"/>
      <path class="cls-124" d="m296.83,202.4c0-52.94-42.71-95.85-95.39-95.85s-95.39,42.91-95.39,95.85,42.71,95.85,95.39,95.85,95.39-42.91,95.39-95.85h0Zm1.14,0c0,53.57-43.22,96.99-96.52,96.99s-96.52-43.42-96.52-96.99,43.22-96.99,96.52-96.99,96.52,43.42,96.52,96.99Z"/>
      <path class="cls-101" d="m297.59,202.4c0-53.36-43.05-96.61-96.15-96.61s-96.15,43.25-96.15,96.61,43.05,96.61,96.15,96.61,96.15-43.25,96.15-96.61h0Zm1.14,0c0,53.99-43.55,97.75-97.28,97.75s-97.28-43.76-97.28-97.75,43.55-97.75,97.28-97.75,97.28,43.76,97.28,97.75Z"/>
      <path class="cls-76" d="m298.35,202.4c0-53.78-43.39-97.37-96.9-97.37s-96.9,43.59-96.9,97.37,43.38,97.37,96.9,97.37,96.9-43.59,96.9-97.37h0Zm1.14,0c0,54.41-43.89,98.51-98.04,98.51s-98.04-44.11-98.04-98.51,43.89-98.51,98.04-98.51,98.04,44.11,98.04,98.51Z"/>
      <path class="cls-23" d="m299.1,202.4c0-54.2-43.72-98.13-97.66-98.13s-97.66,43.93-97.66,98.13,43.72,98.13,97.66,98.13,97.66-43.93,97.66-98.13h0Zm1.14,0c0,54.83-44.23,99.27-98.8,99.27s-98.8-44.45-98.8-99.27,44.23-99.27,98.8-99.27,98.8,44.45,98.8,99.27Z"/>
      <path class="cls-23" d="m299.86,202.4c0-54.62-44.06-98.89-98.42-98.89s-98.42,44.28-98.42,98.89,44.06,98.89,98.42,98.89,98.42-44.28,98.42-98.89h0Zm1.14,0c0,55.25-44.57,100.03-99.55,100.03s-99.55-44.79-99.55-100.03,44.57-100.03,99.55-100.03,99.55,44.79,99.55,100.03Z"/>
      <path class="cls-140" d="m300.62,202.4c0-55.04-44.4-99.65-99.17-99.65s-99.17,44.62-99.17,99.65,44.4,99.65,99.17,99.65,99.17-44.62,99.17-99.65h0Zm1.14,0c0,55.67-44.91,100.79-100.31,100.79s-100.31-45.13-100.31-100.79,44.91-100.79,100.31-100.79,100.31,45.13,100.31,100.79Z"/>
      <path class="cls-168" d="m301.37,202.4c0-55.46-44.74-100.41-99.93-100.41s-99.93,44.96-99.93,100.41,44.74,100.41,99.93,100.41,99.93-44.96,99.93-100.41h0Zm1.14,0c0,56.09-45.25,101.55-101.07,101.55s-101.07-45.47-101.07-101.55,45.25-101.55,101.07-101.55,101.07,45.47,101.07,101.55Z"/>
      <path class="cls-168" d="m302.13,202.4c0-55.88-45.08-101.17-100.69-101.17s-100.69,45.3-100.69,101.17,45.08,101.17,100.69,101.17,100.69-45.3,100.69-101.17h0Zm1.14,0c0,56.51-45.59,102.31-101.82,102.31s-101.82-45.81-101.82-102.31,45.59-102.31,101.82-102.31,101.82,45.81,101.82,102.31Z"/>
      <path class="cls-5" d="m302.89,202.4c0-56.3-45.42-101.93-101.45-101.93s-101.45,45.64-101.45,101.93,45.42,101.93,101.45,101.93,101.45-45.64,101.45-101.93h0Zm1.14,0c0,56.93-45.93,103.08-102.58,103.08s-102.58-46.15-102.58-103.08,45.93-103.08,102.58-103.08,102.58,46.15,102.58,103.08Z"/>
      <path class="cls-5" d="m303.65,202.4c0-56.72-45.76-102.7-102.2-102.7s-102.2,45.98-102.2,102.7,45.76,102.69,102.2,102.69,102.2-45.98,102.2-102.69h0Zm1.14,0c0,57.35-46.27,103.84-103.34,103.84s-103.34-46.49-103.34-103.84,46.27-103.84,103.34-103.84,103.34,46.49,103.34,103.84Z"/>
      <path class="cls-95" d="m304.4,202.4c0-57.14-46.1-103.46-102.96-103.46s-102.96,46.32-102.96,103.46,46.1,103.46,102.96,103.46,102.96-46.32,102.96-103.46h0Zm1.14,0c0,57.77-46.6,104.6-104.1,104.6s-104.09-46.83-104.09-104.6,46.6-104.6,104.09-104.6,104.1,46.83,104.1,104.6Z"/>
      <path class="cls-174" d="m305.16,202.4c0-57.56-46.44-104.22-103.72-104.22s-103.72,46.66-103.72,104.22,46.44,104.22,103.72,104.22,103.72-46.66,103.72-104.22h0Zm1.14,0c0,58.19-46.94,105.36-104.85,105.36s-104.85-47.17-104.85-105.36,46.94-105.36,104.85-105.36,104.85,47.17,104.85,105.36Z"/>
      <path class="cls-181" d="m305.92,202.4c0-57.98-46.77-104.98-104.47-104.98s-104.47,47-104.47,104.98,46.77,104.98,104.47,104.98,104.47-47,104.47-104.98h0Zm1.14,0c0,58.61-47.28,106.12-105.61,106.12s-105.61-47.51-105.61-106.12,47.28-106.12,105.61-106.12,105.61,47.51,105.61,106.12Z"/>
      <path class="cls-181" d="m306.67,202.4c0-58.4-47.11-105.74-105.23-105.74s-105.23,47.34-105.23,105.74,47.11,105.74,105.23,105.74,105.23-47.34,105.23-105.74h0Zm1.14,0c0,59.03-47.62,106.88-106.37,106.88s-106.37-47.85-106.37-106.88,47.62-106.88,106.37-106.88,106.37,47.85,106.37,106.88Z"/>
      <path class="cls-11" d="m307.43,202.4c0-58.82-47.45-106.5-105.99-106.5s-105.99,47.68-105.99,106.5,47.45,106.5,105.99,106.5,105.99-47.68,105.99-106.5h0Zm1.14,0c0,59.45-47.96,107.64-107.12,107.64s-107.12-48.19-107.12-107.64,47.96-107.64,107.12-107.64,107.12,48.19,107.12,107.64Z"/>
      <path class="cls-123" d="m308.19,202.4c0-59.24-47.79-107.26-106.74-107.26s-106.74,48.02-106.74,107.26,47.79,107.26,106.74,107.26,106.74-48.02,106.74-107.26h0Zm1.14,0c0,59.87-48.3,108.4-107.88,108.4s-107.88-48.53-107.88-108.4,48.3-108.4,107.88-108.4,107.88,48.53,107.88,108.4Z"/>
      <path class="cls-123" d="m308.95,202.4c0-59.66-48.13-108.02-107.5-108.02s-107.5,48.36-107.5,108.02,48.13,108.02,107.5,108.02,107.5-48.36,107.5-108.02h0Zm1.14,0c0,60.29-48.64,109.16-108.64,109.16s-108.64-48.87-108.64-109.16,48.64-109.16,108.64-109.16,108.64,48.87,108.64,109.16Z"/>
      <path class="cls-109" d="m309.7,202.4c0-60.08-48.47-108.78-108.26-108.78s-108.26,48.7-108.26,108.78,48.47,108.78,108.26,108.78,108.26-48.7,108.26-108.78h0Zm1.14,0c0,60.71-48.98,109.92-109.39,109.92s-109.39-49.21-109.39-109.92,48.98-109.92,109.39-109.92,109.39,49.21,109.39,109.92Z"/>
      <path class="cls-109" d="m310.46,202.4c0-60.5-48.81-109.54-109.02-109.54s-109.02,49.04-109.02,109.54,48.81,109.54,109.02,109.54,109.02-49.04,109.02-109.54h0Zm1.14,0c0,61.13-49.32,110.68-110.15,110.68s-110.15-49.55-110.15-110.68,49.32-110.68,110.15-110.68,110.15,49.55,110.15,110.68Z"/>
      <path class="cls-46" d="m311.22,202.4c0-60.92-49.15-110.3-109.77-110.3s-109.77,49.38-109.77,110.3,49.15,110.3,109.77,110.3,109.77-49.38,109.77-110.3h0Zm1.14,0c0,61.55-49.66,111.44-110.91,111.44s-110.91-49.89-110.91-111.44,49.66-111.44,110.91-111.44,110.91,49.89,110.91,111.44Z"/>
      <path class="cls-114" d="m311.97,202.4c0-61.34-49.49-111.06-110.53-111.06s-110.53,49.72-110.53,111.06,49.49,111.06,110.53,111.06,110.53-49.72,110.53-111.06h0Zm1.14,0c0,61.97-49.99,112.2-111.67,112.2s-111.67-50.24-111.67-112.2,49.99-112.2,111.67-112.2,111.67,50.24,111.67,112.2Z"/>
      <path class="cls-29" d="m312.73,202.4c0-61.76-49.83-111.82-111.29-111.82s-111.29,50.07-111.29,111.82,49.82,111.82,111.29,111.82,111.29-50.06,111.29-111.82h0Zm1.14,0c0,62.39-50.33,112.96-112.42,112.96s-112.42-50.58-112.42-112.96,50.33-112.96,112.42-112.96,112.42,50.58,112.42,112.96Z"/>
      <path class="cls-138" d="m313.49,202.4c0-62.18-50.16-112.58-112.04-112.58s-112.04,50.41-112.04,112.58,50.16,112.58,112.04,112.58,112.04-50.41,112.04-112.58h0Zm1.14,0c0,62.81-50.67,113.73-113.18,113.73s-113.18-50.92-113.18-113.73,50.67-113.73,113.18-113.73,113.18,50.92,113.18,113.73Z"/>
      <path class="cls-138" d="m314.24,202.4c0-62.6-50.5-113.34-112.8-113.34s-112.8,50.75-112.8,113.34,50.5,113.34,112.8,113.34,112.8-50.75,112.8-113.34h0Zm1.14,0c0,63.23-51.01,114.49-113.94,114.49s-113.94-51.26-113.94-114.49,51.01-114.49,113.94-114.49,113.94,51.26,113.94,114.49Z"/>
      <path class="cls-19" d="m315,202.4c0-63.02-50.84-114.11-113.56-114.11s-113.56,51.09-113.56,114.11,50.84,114.11,113.56,114.11,113.56-51.09,113.56-114.11h0Zm1.14,0c0,63.65-51.35,115.25-114.69,115.25s-114.69-51.6-114.69-115.25,51.35-115.25,114.69-115.25,114.69,51.6,114.69,115.25Z"/>
      <path class="cls-19" d="m315.76,202.4c0-63.44-51.18-114.87-114.32-114.87s-114.32,51.43-114.32,114.87,51.18,114.87,114.32,114.87,114.32-51.43,114.32-114.87h0Zm1.14,0c0,64.07-51.69,116.01-115.45,116.01s-115.45-51.94-115.45-116.01,51.69-116.01,115.45-116.01,115.45,51.94,115.45,116.01Z"/>
      <path class="cls-79" d="m316.52,202.4c0-63.86-51.52-115.63-115.07-115.63s-115.07,51.77-115.07,115.63,51.52,115.63,115.07,115.63,115.07-51.77,115.07-115.63h0Zm1.14,0c0,64.49-52.03,116.77-116.21,116.77s-116.21-52.28-116.21-116.77,52.03-116.77,116.21-116.77,116.21,52.28,116.21,116.77Z"/>
      <path class="cls-84" d="m317.27,202.4c0-64.28-51.86-116.39-115.83-116.39s-115.83,52.11-115.83,116.39,51.86,116.39,115.83,116.39,115.83-52.11,115.83-116.39h0Zm1.14,0c0,64.91-52.37,117.53-116.97,117.53s-116.97-52.62-116.97-117.53,52.37-117.53,116.97-117.53,116.97,52.62,116.97,117.53Z"/>
      <path class="cls-185" d="m318.03,202.4c0-64.7-52.2-117.15-116.59-117.15s-116.59,52.45-116.59,117.15,52.2,117.15,116.59,117.15,116.59-52.45,116.59-117.15h0Zm1.14,0c0,65.33-52.71,118.29-117.72,118.29s-117.72-52.96-117.72-118.29,52.71-118.29,117.72-118.29,117.72,52.96,117.72,118.29Z"/>
      <path class="cls-118" d="m318.79,202.4c0-65.12-52.54-117.91-117.34-117.91s-117.34,52.79-117.34,117.91,52.54,117.91,117.34,117.91,117.34-52.79,117.34-117.91h0Zm1.14,0c0,65.75-53.04,119.05-118.48,119.05s-118.48-53.3-118.48-119.05,53.04-119.05,118.48-119.05,118.48,53.3,118.48,119.05Z"/>
      <path class="cls-3" d="m319.54,202.4c0-65.54-52.88-118.67-118.1-118.67s-118.1,53.13-118.1,118.67,52.88,118.67,118.1,118.67,118.1-53.13,118.1-118.67h0Zm1.14,0c0,66.17-53.38,119.81-119.24,119.81s-119.24-53.64-119.24-119.81,53.38-119.81,119.24-119.81,119.24,53.64,119.24,119.81Z"/>
      <path class="cls-38" d="m320.3,202.4c0-65.96-53.21-119.43-118.86-119.43s-118.86,53.47-118.86,119.43,53.21,119.43,118.86,119.43,118.86-53.47,118.86-119.43h0Zm1.14,0c0,66.59-53.72,120.57-119.99,120.57s-119.99-53.98-119.99-120.57,53.72-120.57,119.99-120.57,119.99,53.98,119.99,120.57Z"/>
      <path class="cls-38" d="m321.06,202.4c0-66.38-53.55-120.19-119.61-120.19s-119.61,53.81-119.61,120.19,53.55,120.19,119.61,120.19,119.61-53.81,119.61-120.19h0Zm1.14,0c0,67.01-54.06,121.33-120.75,121.33s-120.75-54.32-120.75-121.33,54.06-121.33,120.75-121.33,120.75,54.32,120.75,121.33Z"/>
      <path class="cls-34" d="m321.81,202.4c0-66.8-53.89-120.95-120.37-120.95s-120.37,54.15-120.37,120.95,53.89,120.95,120.37,120.95,120.37-54.15,120.37-120.95h0Zm1.14,0c0,67.43-54.4,122.09-121.51,122.09s-121.51-54.66-121.51-122.09,54.4-122.09,121.51-122.09,121.51,54.66,121.51,122.09Z"/>
      <path class="cls-34" d="m322.57,202.4c0-67.22-54.23-121.71-121.13-121.71s-121.13,54.49-121.13,121.71,54.23,121.71,121.13,121.71,121.13-54.49,121.13-121.71h0Zm1.14,0c0,67.85-54.74,122.85-122.26,122.85s-122.26-55-122.26-122.85,54.74-122.85,122.26-122.85,122.26,55,122.26,122.85Z"/>
      <path class="cls-42" d="m323.33,202.4c0-67.64-54.57-122.47-121.89-122.47s-121.89,54.83-121.89,122.47,54.57,122.47,121.89,122.47,121.89-54.83,121.89-122.47h0Zm1.14,0c0,68.27-55.08,123.61-123.02,123.61s-123.02-55.34-123.02-123.61,55.08-123.61,123.02-123.61,123.02,55.34,123.02,123.61Z"/>
      <path class="cls-10" d="m324.09,202.4c0-68.06-54.91-123.23-122.64-123.23s-122.64,55.17-122.64,123.23,54.91,123.23,122.64,123.23,122.64-55.17,122.64-123.23h0Zm1.14,0c0,68.69-55.42,124.38-123.78,124.38s-123.78-55.68-123.78-124.38,55.42-124.38,123.78-124.38,123.78,55.68,123.78,124.38Z"/>
      <path class="cls-52" d="m324.84,202.4c0-68.48-55.25-123.99-123.4-123.99s-123.4,55.51-123.4,123.99,55.25,123.99,123.4,123.99,123.4-55.51,123.4-123.99h0Zm1.14,0c0,69.11-55.76,125.14-124.54,125.14s-124.54-56.02-124.54-125.14,55.76-125.14,124.54-125.14,124.54,56.03,124.54,125.14Z"/>
      <path class="cls-81" d="m325.6,202.4c0-68.9-55.59-124.76-124.16-124.76s-124.16,55.85-124.16,124.76,55.59,124.76,124.16,124.76,124.16-55.85,124.16-124.76h0Zm1.14,0c0,69.53-56.1,125.9-125.29,125.9s-125.29-56.37-125.29-125.9,56.1-125.9,125.29-125.9,125.29,56.37,125.29,125.9Z"/>
      <path class="cls-143" d="m326.36,202.4c0-69.32-55.93-125.52-124.91-125.52s-124.91,56.2-124.91,125.52,55.93,125.52,124.91,125.52,124.91-56.2,124.91-125.52h0Zm1.14,0c0,69.95-56.43,126.66-126.05,126.66s-126.05-56.71-126.05-126.66,56.43-126.66,126.05-126.66,126.05,56.71,126.05,126.66Z"/>
      <path class="cls-134" d="m327.11,202.4c0-69.74-56.26-126.28-125.67-126.28s-125.67,56.54-125.67,126.28,56.26,126.28,125.67,126.28,125.67-56.54,125.67-126.28h0Zm1.14,0c0,70.37-56.77,127.42-126.81,127.42s-126.81-57.05-126.81-127.42,56.77-127.42,126.81-127.42,126.81,57.05,126.81,127.42Z"/>
      <path class="cls-134" d="m327.87,202.4c0-70.16-56.6-127.04-126.43-127.04s-126.43,56.88-126.43,127.04,56.6,127.04,126.43,127.04,126.43-56.88,126.43-127.04h0Zm1.14,0c0,70.79-57.11,128.18-127.56,128.18s-127.56-57.39-127.56-128.18,57.11-128.18,127.56-128.18,127.56,57.39,127.56,128.18Z"/>
      <path class="cls-125" d="m328.63,202.4c0-70.58-56.94-127.8-127.19-127.8s-127.19,57.22-127.19,127.8,56.94,127.8,127.19,127.8,127.19-57.22,127.19-127.8h0Zm1.14,0c0,71.21-57.45,128.94-128.32,128.94s-128.32-57.73-128.32-128.94,57.45-128.94,128.32-128.94,128.32,57.73,128.32,128.94Z"/>
      <path class="cls-125" d="m329.39,202.4c0-71-57.28-128.56-127.94-128.56s-127.94,57.56-127.94,128.56,57.28,128.56,127.94,128.56,127.94-57.56,127.94-128.56h0Zm1.14,0c0,71.63-57.79,129.7-129.08,129.7s-129.08-58.07-129.08-129.7,57.79-129.7,129.08-129.7,129.08,58.07,129.08,129.7Z"/>
      <path class="cls-21" d="m330.14,202.4c0-71.42-57.62-129.32-128.7-129.32s-128.7,57.9-128.7,129.32,57.62,129.32,128.7,129.32,128.7-57.9,128.7-129.32h0Zm1.14,0c0,72.05-58.13,130.46-129.83,130.46s-129.83-58.41-129.83-130.46,58.13-130.46,129.83-130.46,129.83,58.41,129.83,130.46Z"/>
      <path class="cls-155" d="m330.9,202.4c0-71.84-57.96-130.08-129.46-130.08s-129.46,58.24-129.46,130.08,57.96,130.08,129.46,130.08,129.46-58.24,129.46-130.08h0Zm1.14,0c0,72.47-58.47,131.22-130.59,131.22s-130.59-58.75-130.59-131.22,58.47-131.22,130.59-131.22,130.59,58.75,130.59,131.22Z"/>
      <path class="cls-155" d="m331.66,202.4c0-72.26-58.3-130.84-130.21-130.84s-130.21,58.58-130.21,130.84,58.3,130.84,130.21,130.84,130.21-58.58,130.21-130.84h0Zm1.14,0c0,72.89-58.81,131.98-131.35,131.98s-131.35-59.09-131.35-131.98,58.81-131.98,131.35-131.98,131.35,59.09,131.35,131.98Z"/>
      <path class="cls-87" d="m332.41,202.4c0-72.68-58.64-131.6-130.97-131.6s-130.97,58.92-130.97,131.6,58.64,131.6,130.97,131.6,130.97-58.92,130.97-131.6h0Zm1.14,0c0,73.31-59.15,132.74-132.11,132.74s-132.11-59.43-132.11-132.74,59.15-132.74,132.11-132.74,132.11,59.43,132.11,132.74Z"/>
      <path class="cls-91" d="m333.17,202.4c0-73.1-58.98-132.36-131.73-132.36s-131.73,59.26-131.73,132.36,58.98,132.36,131.73,132.36,131.73-59.26,131.73-132.36h0Zm1.14,0c0,73.73-59.48,133.5-132.86,133.5s-132.86-59.77-132.86-133.5,59.48-133.5,132.86-133.5,132.86,59.77,132.86,133.5Z"/>
      <path class="cls-82" d="m333.93,202.4c0-73.52-59.32-133.12-132.48-133.12s-132.48,59.6-132.48,133.12,59.32,133.12,132.48,133.12,132.48-59.6,132.48-133.12h0Zm1.14,0c0,74.15-59.82,134.26-133.62,134.26s-133.62-60.11-133.62-134.26S127.65,68.14,201.44,68.14s133.62,60.11,133.62,134.26Z"/>
      <path class="cls-82" d="m334.69,202.4c0-73.94-59.65-133.88-133.24-133.88s-133.24,59.94-133.24,133.88,59.65,133.88,133.24,133.88,133.24-59.94,133.24-133.88h0Zm1.14,0c0,74.57-60.16,135.02-134.38,135.02s-134.38-60.45-134.38-135.02S127.23,67.38,201.44,67.38s134.38,60.45,134.38,135.03Z"/>
      <path class="cls-49" d="m335.44,202.4c0-74.36-59.99-134.64-134-134.64s-134,60.28-134,134.64,59.99,134.64,134,134.64,134-60.28,134-134.64h0Zm1.14,0c0,74.99-60.5,135.79-135.13,135.79s-135.13-60.79-135.13-135.79S126.81,66.62,201.44,66.62s135.13,60.79,135.13,135.79Z"/>
      <path class="cls-60" d="m336.2,202.4c0-74.78-60.33-135.41-134.76-135.41S66.69,127.62,66.69,202.4s60.33,135.41,134.76,135.41,134.76-60.62,134.76-135.41h0Zm1.14,0c0,75.41-60.84,136.55-135.89,136.55s-135.89-61.13-135.89-136.55S126.39,65.86,201.44,65.86s135.89,61.13,135.89,136.55Z"/>
      <path class="cls-60" d="m336.96,202.4c0-75.2-60.67-136.17-135.51-136.17S65.93,127.2,65.93,202.4s60.67,136.17,135.51,136.17,135.51-60.96,135.51-136.17h0Zm1.14,0c0,75.83-61.18,137.31-136.65,137.31s-136.65-61.47-136.65-137.31S125.97,65.09,201.44,65.09s136.65,61.47,136.65,137.31Z"/>
      <path class="cls-62" d="m337.71,202.4c0-75.62-61.01-136.93-136.27-136.93S65.17,126.78,65.17,202.4s61.01,136.93,136.27,136.93,136.27-61.3,136.27-136.93h0Zm1.14,0c0,76.25-61.52,138.07-137.41,138.07s-137.41-61.82-137.41-138.07S125.56,64.33,201.44,64.33s137.41,61.82,137.41,138.07Z"/>
      <path class="cls-62" d="m338.47,202.4c0-76.04-61.35-137.69-137.03-137.69S64.42,126.36,64.42,202.4s61.35,137.69,137.03,137.69,137.03-61.64,137.03-137.69h0Zm1.14,0c0,76.67-61.86,138.83-138.16,138.83S63.28,279.07,63.28,202.4,125.14,63.57,201.44,63.57s138.16,62.16,138.16,138.83Z"/>
      <path class="cls-93" d="m339.23,202.4c0-76.46-61.69-138.45-137.78-138.45S63.66,125.94,63.66,202.4s61.69,138.45,137.78,138.45,137.78-61.99,137.78-138.45h0Zm1.14,0c0,77.09-62.2,139.59-138.92,139.59S62.52,279.49,62.52,202.4,124.72,62.81,201.44,62.81s138.92,62.5,138.92,139.59Z"/>
      <path class="cls-85" d="m339.98,202.4c0-76.88-62.03-139.21-138.54-139.21S62.9,125.52,62.9,202.4s62.03,139.21,138.54,139.21,138.54-62.33,138.54-139.21h0Zm1.14,0c0,77.51-62.54,140.35-139.68,140.35S61.77,279.92,61.77,202.4,124.3,62.05,201.44,62.05s139.68,62.84,139.68,140.35Z"/>
      <path class="cls-130" d="m340.74,202.4c0-77.3-62.37-139.97-139.3-139.97S62.14,125.1,62.14,202.4s62.37,139.97,139.3,139.97,139.3-62.67,139.3-139.97h0Zm1.14,0c0,77.93-62.87,141.11-140.43,141.11S61.01,280.34,61.01,202.4,123.88,61.29,201.44,61.29s140.43,63.18,140.43,141.11Z"/>
      <path class="cls-130" d="m341.5,202.4c0-77.72-62.7-140.73-140.06-140.73S61.39,124.68,61.39,202.4s62.7,140.73,140.06,140.73,140.06-63.01,140.06-140.73h0Zm1.14,0c0,78.35-63.21,141.87-141.19,141.87S60.25,280.76,60.25,202.4,123.47,60.53,201.44,60.53s141.19,63.52,141.19,141.87Z"/>
      <path class="cls-68" d="m342.26,202.4c0-78.14-63.04-141.49-140.81-141.49S60.63,124.26,60.63,202.4s63.04,141.49,140.81,141.49,140.81-63.35,140.81-141.49h0Zm1.14,0c0,78.77-63.55,142.63-141.95,142.63S59.5,281.18,59.5,202.4,123.05,59.77,201.44,59.77s141.95,63.86,141.95,142.63Z"/>
      <path class="cls-78" d="m343.01,202.4c0-78.56-63.38-142.25-141.57-142.25S59.87,123.84,59.87,202.4s63.38,142.25,141.57,142.25,141.57-63.69,141.57-142.25h0Zm1.14,0c0,79.19-63.89,143.39-142.71,143.39S58.74,281.6,58.74,202.4,122.63,59.01,201.44,59.01s142.71,64.2,142.71,143.39Z"/>
      <path class="cls-78" d="m343.77,202.4c0-78.98-63.72-143.01-142.33-143.01S59.12,123.42,59.12,202.4s63.72,143.01,142.33,143.01,142.33-64.03,142.33-143.01h0Zm1.14,0c0,79.61-64.23,144.15-143.46,144.15S57.98,282.02,57.98,202.4,122.21,58.25,201.44,58.25s143.46,64.54,143.46,144.15Z"/>
      <path class="cls-107" d="m344.53,202.4c0-79.4-64.06-143.77-143.08-143.77S58.36,123,58.36,202.4s64.06,143.77,143.08,143.77,143.08-64.37,143.08-143.77h0Zm1.14,0c0,80.03-64.57,144.91-144.22,144.91S57.22,282.44,57.22,202.4,121.79,57.49,201.44,57.49s144.22,64.88,144.22,144.91Z"/>
      <path class="cls-107" d="m345.28,202.4c0-79.82-64.4-144.53-143.84-144.53S57.6,122.58,57.6,202.4s64.4,144.53,143.84,144.53,143.84-64.71,143.84-144.53h0Zm1.14,0c0,80.45-64.91,145.67-144.98,145.67S56.47,282.86,56.47,202.4,121.38,56.73,201.44,56.73s144.98,65.22,144.98,145.67Z"/>
      <path class="cls-30" d="m346.04,202.4c0-80.24-64.74-145.29-144.6-145.29S56.85,122.16,56.85,202.4s64.74,145.29,144.6,145.29,144.6-65.05,144.6-145.29h0Zm1.14,0c0,80.87-65.25,146.44-145.73,146.44S55.71,283.28,55.71,202.4,120.96,55.97,201.44,55.97s145.73,65.56,145.73,146.44Z"/>
      <path class="cls-30" d="m346.8,202.4c0-80.66-65.08-146.06-145.35-146.06S56.09,121.74,56.09,202.4s65.08,146.06,145.35,146.06,145.35-65.39,145.35-146.06h0Zm1.14,0c0,81.29-65.59,147.2-146.49,147.2S54.95,283.7,54.95,202.4,120.54,55.21,201.44,55.21s146.49,65.9,146.49,147.2Z"/>
      <path class="cls-121" d="m347.55,202.4c0-81.08-65.42-146.82-146.11-146.82S55.33,121.32,55.33,202.4s65.42,146.82,146.11,146.82,146.11-65.73,146.11-146.82h0Zm1.14,0c0,81.71-65.92,147.96-147.25,147.96S54.2,284.12,54.2,202.4,120.12,54.44,201.44,54.44s147.25,66.24,147.25,147.96Z"/>
      <path class="cls-43" d="m348.31,202.4c0-81.5-65.76-147.58-146.87-147.58S54.57,120.9,54.57,202.4s65.76,147.58,146.87,147.58,146.87-66.07,146.87-147.58h0Zm1.14,0c0,82.13-66.26,148.72-148,148.72S53.44,284.54,53.44,202.4,119.7,53.68,201.44,53.68s148,66.58,148,148.72Z"/>
      <path class="cls-43" d="m349.07,202.4c0-81.92-66.09-148.34-147.63-148.34S53.82,120.48,53.82,202.4s66.09,148.34,147.63,148.34,147.63-66.41,147.63-148.34h0Zm1.14,0c0,82.55-66.6,149.48-148.76,149.48S52.68,284.96,52.68,202.4,119.28,52.92,201.44,52.92s148.76,66.92,148.76,149.48Z"/>
      <path class="cls-65" d="m349.83,202.4c0-82.34-66.43-149.1-148.38-149.1S53.06,120.06,53.06,202.4s66.43,149.1,148.38,149.1,148.38-66.75,148.38-149.1h0Zm1.14,0c0,82.97-66.94,150.24-149.52,150.24S51.92,285.38,51.92,202.4,118.87,52.16,201.44,52.16s149.52,67.26,149.52,150.24Z"/>
      <path class="cls-65" d="m350.58,202.4c0-82.76-66.77-149.86-149.14-149.86S52.3,119.64,52.3,202.4s66.77,149.86,149.14,149.86,149.14-67.09,149.14-149.86h0Zm1.14,0c0,83.39-67.28,151-150.28,151S51.17,285.8,51.17,202.4,118.45,51.4,201.44,51.4s150.28,67.6,150.28,151Z"/>
      <path class="cls-7" d="m351.34,202.4c0-83.18-67.11-150.62-149.9-150.62S51.55,119.22,51.55,202.4s67.11,150.62,149.9,150.62,149.9-67.43,149.9-150.62h0Zm1.14,0c0,83.82-67.62,151.76-151.03,151.76S50.41,286.22,50.41,202.4,118.03,50.64,201.44,50.64s151.03,67.95,151.03,151.76Z"/>
      <path class="cls-156" d="m352.1,202.4c0-83.6-67.45-151.38-150.65-151.38S50.79,118.8,50.79,202.4s67.45,151.38,150.65,151.38,150.65-67.77,150.65-151.38h0Zm1.14,0c0,84.24-67.96,152.52-151.79,152.52S49.65,286.64,49.65,202.4,117.61,49.88,201.44,49.88s151.79,68.29,151.79,152.52Z"/>
      <path class="cls-119" d="m352.85,202.4c0-84.03-67.79-152.14-151.41-152.14S50.03,118.38,50.03,202.4s67.79,152.14,151.41,152.14,151.41-68.12,151.41-152.14h0Zm1.14,0c0,84.66-68.3,153.28-152.55,153.28S48.9,287.06,48.9,202.4,117.19,49.12,201.44,49.12s152.55,68.63,152.55,153.28Z"/>
      <path class="cls-2" d="m353.61,202.4c0-84.45-68.13-152.9-152.17-152.9S49.28,117.96,49.28,202.4s68.13,152.9,152.17,152.9,152.17-68.46,152.17-152.9h0Zm1.14,0c0,85.08-68.64,154.04-153.3,154.04S48.14,287.48,48.14,202.4,116.78,48.36,201.44,48.36s153.3,68.97,153.3,154.04Z"/>
      <path class="cls-144" d="m354.37,202.4c0-84.87-68.47-153.66-152.93-153.66S48.52,117.54,48.52,202.4s68.47,153.66,152.93,153.66,152.93-68.8,152.93-153.66h0Zm1.14,0c0,85.5-68.98,154.8-154.06,154.8S47.38,287.9,47.38,202.4,116.36,47.6,201.44,47.6s154.06,69.31,154.06,154.8Z"/>
      <path class="cls-57" d="m355.13,202.4c0-85.29-68.81-154.42-153.68-154.42S47.76,117.12,47.76,202.4s68.81,154.42,153.68,154.42,153.68-69.14,153.68-154.42h0Zm1.14,0c0,85.92-69.31,155.56-154.82,155.56S46.63,288.32,46.63,202.4,115.94,46.84,201.44,46.84s154.82,69.65,154.82,155.56Z"/>
      <path class="cls-57" d="m355.88,202.4c0-85.71-69.14-155.18-154.44-155.18S47,116.7,47,202.4s69.14,155.18,154.44,155.18,154.44-69.48,154.44-155.18h0Zm1.14,0c0,86.34-69.65,156.32-155.57,156.32S45.87,288.74,45.87,202.4,115.52,46.08,201.44,46.08s155.57,69.99,155.57,156.32Z"/>
      <path class="cls-28" d="m356.64,202.4c0-86.13-69.48-155.94-155.2-155.94S46.25,116.28,46.25,202.4s69.48,155.94,155.2,155.94,155.2-69.82,155.2-155.94h0Zm1.14,0c0,86.76-69.99,157.09-156.33,157.09S45.11,289.16,45.11,202.4,115.1,45.32,201.44,45.32s156.33,70.33,156.33,157.09Z"/>
      <path class="cls-28" d="m357.4,202.4c0-86.55-69.82-156.71-155.95-156.71S45.49,115.86,45.49,202.4s69.82,156.71,155.95,156.71,155.95-70.16,155.95-156.71h0Zm1.14,0c0,87.18-70.33,157.85-157.09,157.85S44.35,289.58,44.35,202.4,114.69,44.56,201.44,44.56s157.09,70.67,157.09,157.85Z"/>
      <path class="cls-90" d="m358.15,202.4c0-86.97-70.16-157.47-156.71-157.47S44.73,115.44,44.73,202.4s70.16,157.47,156.71,157.47,156.71-70.5,156.71-157.47h0Zm1.14,0c0,87.6-70.67,158.61-157.85,158.61S43.6,290,43.6,202.4,114.27,43.8,201.44,43.8s157.85,71.01,157.85,158.61Z"/>
      <path class="cls-113" d="m358.91,202.4c0-87.39-70.5-158.23-157.47-158.23S43.98,115.02,43.98,202.4s70.5,158.23,157.47,158.23,157.47-70.84,157.47-158.23h0Zm1.14,0c0,88.02-71.01,159.37-158.6,159.37S42.84,290.42,42.84,202.4,113.85,43.03,201.44,43.03s158.6,71.35,158.6,159.37Z"/>
      <path class="cls-75" d="m359.67,202.4c0-87.81-70.84-158.99-158.22-158.99S43.22,114.6,43.22,202.4s70.84,158.99,158.22,158.99,158.22-71.18,158.22-158.99h0Zm1.14,0c0,88.44-71.35,160.13-159.36,160.13S42.08,290.84,42.08,202.4,113.43,42.27,201.44,42.27s159.36,71.69,159.36,160.13Z"/>
      <path class="cls-150" d="m360.42,202.4c0-88.23-71.18-159.75-158.98-159.75S42.46,114.18,42.46,202.4s71.18,159.75,158.98,159.75,158.98-71.52,158.98-159.75h0Zm1.14,0c0,88.86-71.69,160.89-160.12,160.89S41.33,291.26,41.33,202.4,113.01,41.51,201.44,41.51s160.12,72.03,160.12,160.89Z"/>
      <path class="cls-31" d="m361.18,202.4c0-88.65-71.52-160.51-159.74-160.51S41.7,113.76,41.7,202.4s71.52,160.51,159.74,160.51,159.74-71.86,159.74-160.51h0Zm1.14,0c0,89.28-72.03,161.65-160.87,161.65S40.57,291.68,40.57,202.4,112.59,40.75,201.44,40.75s160.87,72.37,160.87,161.65Z"/>
      <path class="cls-105" d="m361.94,202.4c0-89.07-71.86-161.27-160.5-161.27S40.95,113.34,40.95,202.4s71.86,161.27,160.5,161.27,160.5-72.2,160.5-161.27h0Zm1.14,0c0,89.7-72.36,162.41-161.63,162.41S39.81,292.1,39.81,202.4,112.18,39.99,201.44,39.99s161.63,72.71,161.63,162.41Z"/>
      <path class="cls-126" d="m362.7,202.4c0-89.49-72.2-162.03-161.25-162.03S40.19,112.92,40.19,202.4s72.2,162.03,161.25,162.03,161.25-72.54,161.25-162.03h0Zm1.14,0c0,90.12-72.7,163.17-162.39,163.17S39.05,292.52,39.05,202.4,111.76,39.23,201.44,39.23s162.39,73.05,162.39,163.17Z"/>
      <path class="cls-159" d="m363.45,202.4c0-89.91-72.53-162.79-162.01-162.79S39.43,112.49,39.43,202.4s72.53,162.79,162.01,162.79,162.01-72.88,162.01-162.79h0Zm1.14,0c0,90.54-73.04,163.93-163.15,163.93S38.3,292.94,38.3,202.4,111.34,38.47,201.44,38.47s163.15,73.39,163.15,163.93Z"/>
      <path class="cls-159" d="m364.21,202.4c0-90.33-72.87-163.55-162.77-163.55S38.68,112.07,38.68,202.4s72.87,163.55,162.77,163.55,162.77-73.22,162.77-163.55h0Zm1.14,0c0,90.96-73.38,164.69-163.9,164.69S37.54,293.36,37.54,202.4,110.92,37.71,201.44,37.71s163.9,73.74,163.9,164.69Z"/>
      <path class="cls-160" d="m364.97,202.4c0-90.75-73.21-164.31-163.52-164.31S37.92,111.65,37.92,202.4s73.21,164.31,163.52,164.31,163.52-73.57,163.52-164.31h0Zm1.14,0c0,91.38-73.72,165.45-164.66,165.45S36.78,293.78,36.78,202.4,110.5,36.95,201.44,36.95s164.66,74.08,164.66,165.45Z"/>
      <path class="cls-106" d="m365.72,202.4c0-91.17-73.55-165.07-164.28-165.07S37.16,111.23,37.16,202.4s73.55,165.07,164.28,165.07,164.28-73.91,164.28-165.07h0Zm1.14,0c0,91.8-74.06,166.21-165.42,166.21S36.03,294.2,36.03,202.4,110.09,36.19,201.44,36.19s165.42,74.42,165.42,166.21Z"/>
      <path class="cls-106" d="m366.48,202.4c0-91.59-73.89-165.83-165.04-165.83S36.4,110.81,36.4,202.4s73.89,165.83,165.04,165.83,165.04-74.25,165.04-165.83h0Zm1.14,0c0,92.22-74.4,166.97-166.17,166.97S35.27,294.62,35.27,202.4,109.67,35.43,201.44,35.43s166.17,74.76,166.17,166.97Z"/>
      <path class="cls-59" d="m367.24,202.4c0-92.01-74.23-166.59-165.8-166.59S35.65,110.39,35.65,202.4s74.23,166.59,165.79,166.59,165.8-74.59,165.8-166.59h0Zm1.14,0c0,92.64-74.74,167.74-166.93,167.74S34.51,295.04,34.51,202.4,109.25,34.67,201.44,34.67s166.93,75.1,166.93,167.74Z"/>
      <path class="cls-74" d="m368,202.4c0-92.43-74.57-167.35-166.55-167.35S34.89,109.97,34.89,202.4s74.57,167.35,166.55,167.35,166.55-74.93,166.55-167.35h0Zm1.14,0c0,93.06-75.08,168.5-167.69,168.5S33.76,295.46,33.76,202.4,108.83,33.91,201.44,33.91s167.69,75.44,167.69,168.5Z"/>
      <path class="cls-27" d="m368.75,202.4c0-92.85-74.91-168.12-167.31-168.12S34.13,109.55,34.13,202.4s74.91,168.12,167.31,168.12,167.31-75.27,167.31-168.12h0Zm1.14,0c0,93.48-75.42,169.26-168.44,169.26S33,295.88,33,202.4,108.41,33.15,201.44,33.15s168.44,75.78,168.44,169.26Z"/>
      <path class="cls-27" d="m369.51,202.4c0-93.27-75.25-168.88-168.07-168.88S33.38,109.13,33.38,202.4s75.25,168.88,168.07,168.88,168.07-75.61,168.07-168.88h0Zm1.14,0c0,93.9-75.75,170.02-169.2,170.02S32.24,296.3,32.24,202.4,108,32.38,201.44,32.38s169.2,76.12,169.2,170.02Z"/>
      <path class="cls-33" d="m370.27,202.4c0-93.69-75.58-169.64-168.82-169.64S32.62,108.71,32.62,202.4s75.58,169.64,168.82,169.64,168.82-75.95,168.82-169.64h0Zm1.14,0c0,94.32-76.09,170.78-169.96,170.78S31.48,296.72,31.48,202.4,107.58,31.62,201.44,31.62s169.96,76.46,169.96,170.78Z"/>
      <path class="cls-33" d="m371.02,202.4c0-94.11-75.92-170.4-169.58-170.4S31.86,108.29,31.86,202.4s75.92,170.4,169.58,170.4,169.58-76.29,169.58-170.4h0Zm1.14,0c0,94.74-76.43,171.54-170.72,171.54S30.73,297.14,30.73,202.4,107.16,30.86,201.44,30.86s170.72,76.8,170.72,171.54Z"/>
      <path class="cls-178" d="m371.78,202.4c0-94.53-76.26-171.16-170.34-171.16S31.11,107.87,31.11,202.4s76.26,171.16,170.34,171.16,170.34-76.63,170.34-171.16h0Zm1.14,0c0,95.16-76.77,172.3-171.47,172.3S29.97,297.56,29.97,202.4,106.74,30.1,201.44,30.1s171.47,77.14,171.47,172.3Z"/>
      <path class="cls-17" d="m372.54,202.4c0-94.95-76.6-171.92-171.09-171.92S30.35,107.45,30.35,202.4s76.6,171.92,171.09,171.92,171.09-76.97,171.09-171.92h0Zm1.14,0c0,95.58-77.11,173.06-172.23,173.06S29.21,297.98,29.21,202.4,106.32,29.34,201.44,29.34s172.23,77.48,172.23,173.06Z"/>
      <path class="cls-17" d="m373.29,202.4c0-95.37-76.94-172.68-171.85-172.68S29.59,107.03,29.59,202.4s76.94,172.68,171.85,172.68,171.85-77.31,171.85-172.68h0Zm1.14,0c0,96-77.45,173.82-172.99,173.82S28.46,298.4,28.46,202.4,105.91,28.58,201.44,28.58s172.99,77.82,172.99,173.82Z"/>
      <path class="cls-117" d="m374.05,202.4c0-95.79-77.28-173.44-172.61-173.44S28.83,106.61,28.83,202.4s77.28,173.44,172.61,173.44,172.61-77.65,172.61-173.44h0Zm1.14,0c0,96.42-77.79,174.58-173.74,174.58S27.7,298.82,27.7,202.4,105.49,27.82,201.44,27.82s173.74,78.16,173.74,174.58Z"/>
      <path class="cls-158" d="m374.81,202.4c0-96.21-77.62-174.2-173.37-174.2S28.08,106.19,28.08,202.4s77.62,174.2,173.37,174.2,173.37-77.99,173.37-174.2h0Zm1.14,0c0,96.84-78.13,175.34-174.5,175.34S26.94,299.24,26.94,202.4,105.07,27.06,201.44,27.06s174.5,78.5,174.5,175.34Z"/>
      <path class="cls-135" d="m375.57,202.4c0-96.63-77.96-174.96-174.12-174.96S27.32,105.77,27.32,202.4s77.96,174.96,174.12,174.96,174.12-78.33,174.12-174.96h0Zm1.14,0c0,97.26-78.47,176.1-175.26,176.1S26.18,299.66,26.18,202.4,104.65,26.3,201.44,26.3s175.26,78.84,175.26,176.1Z"/>
      <path class="cls-135" d="m376.32,202.4c0-97.05-78.3-175.72-174.88-175.72S26.56,105.35,26.56,202.4s78.3,175.72,174.88,175.72,174.88-78.67,174.88-175.72h0Zm1.14,0c0,97.68-78.8,176.86-176.02,176.86S25.43,300.08,25.43,202.4,104.23,25.54,201.44,25.54s176.02,79.18,176.02,176.86Z"/>
      <path class="cls-80" d="m377.08,202.4c0-97.47-78.64-176.48-175.64-176.48S25.81,104.93,25.81,202.4s78.64,176.48,175.64,176.48,175.64-79.01,175.64-176.48h0Zm1.14,0c0,98.1-79.14,177.62-176.77,177.62S24.67,300.5,24.67,202.4,103.81,24.78,201.44,24.78s176.77,79.53,176.77,177.62Z"/>
      <path class="cls-94" d="m377.84,202.4c0-97.89-78.97-177.24-176.39-177.24S25.05,104.51,25.05,202.4s78.97,177.24,176.39,177.24,176.39-79.36,176.39-177.24h0Zm1.14,0c0,98.52-79.48,178.39-177.53,178.39S23.91,300.92,23.91,202.4,103.4,24.02,201.44,24.02s177.53,79.87,177.53,178.39Z"/>
      <path class="cls-94" d="m378.59,202.4c0-98.31-79.31-178-177.15-178S24.29,104.09,24.29,202.4s79.31,178,177.15,178,177.15-79.7,177.15-178h0Zm1.14,0c0,98.94-79.82,179.15-178.29,179.15S23.16,301.34,23.16,202.4,102.98,23.26,201.44,23.26s178.29,80.21,178.29,179.15Z"/>
      <path class="cls-184" d="m379.35,202.4c0-98.73-79.65-178.77-177.91-178.77S23.54,103.67,23.54,202.4s79.65,178.77,177.91,178.77,177.91-80.04,177.91-178.77h0Zm1.14,0c0,99.36-80.16,179.91-179.04,179.91S22.4,301.76,22.4,202.4,102.56,22.5,201.44,22.5s179.04,80.55,179.04,179.91Z"/>
      <path class="cls-145" d="m380.11,202.4c0-99.15-79.99-179.53-178.67-179.53S22.78,103.25,22.78,202.4s79.99,179.53,178.67,179.53,178.67-80.38,178.67-179.53h0Zm1.14,0c0,99.78-80.5,180.67-179.8,180.67S21.64,302.18,21.64,202.4,102.14,21.73,201.44,21.73s179.8,80.89,179.8,180.67Z"/>
      <path class="cls-171" d="m380.87,202.4c0-99.57-80.33-180.29-179.42-180.29S22.02,102.83,22.02,202.4s80.33,180.29,179.42,180.29,179.42-80.72,179.42-180.29h0Zm1.14,0c0,100.2-80.84,181.43-180.56,181.43S20.89,302.6,20.89,202.4,101.72,20.97,201.44,20.97s180.56,81.23,180.56,181.43Z"/>
      <path class="cls-171" d="m381.62,202.4c0-99.99-80.67-181.05-180.18-181.05S21.26,102.41,21.26,202.4s80.67,181.05,180.18,181.05,180.18-81.06,180.18-181.05h0Zm1.14,0c0,100.62-81.18,182.19-181.31,182.19S20.13,303.02,20.13,202.4,101.31,20.21,201.44,20.21s181.31,81.57,181.31,182.19Z"/>
      <path class="cls-141" d="m382.38,202.4c0-100.41-81.01-181.81-180.94-181.81S20.51,101.99,20.51,202.4s81.01,181.81,180.94,181.81,180.94-81.4,180.94-181.81h0Zm1.14,0c0,101.04-81.52,182.95-182.07,182.95S19.37,303.44,19.37,202.4,100.89,19.45,201.44,19.45s182.07,81.91,182.07,182.95Z"/>
      <path class="cls-177" d="m383.14,202.4c0-100.83-81.35-182.57-181.69-182.57S19.75,101.57,19.75,202.4s81.35,182.57,181.69,182.57,181.69-81.74,181.69-182.57h0Zm1.14,0c0,101.46-81.86,183.71-182.83,183.71S18.61,303.86,18.61,202.4,100.47,18.69,201.44,18.69s182.83,82.25,182.83,183.71Z"/>
      <path class="cls-177" d="m383.89,202.4c0-101.25-81.69-183.33-182.45-183.33S18.99,101.15,18.99,202.4s81.69,183.33,182.45,183.33,182.45-82.08,182.45-183.33h0Zm1.14,0c0,101.88-82.19,184.47-183.59,184.47S17.86,304.28,17.86,202.4,100.05,17.93,201.44,17.93s183.59,82.59,183.59,184.47Z"/>
      <path class="cls-142" d="m384.65,202.4c0-101.67-82.02-184.09-183.21-184.09S18.24,100.73,18.24,202.4s82.02,184.09,183.21,184.09,183.21-82.42,183.21-184.09h0Zm1.14,0c0,102.3-82.53,185.23-184.34,185.23S17.1,304.7,17.1,202.4,99.63,17.17,201.44,17.17s184.34,82.93,184.34,185.23Z"/>
      <path class="cls-142" d="m385.41,202.4c0-102.09-82.36-184.85-183.96-184.85S17.48,100.31,17.48,202.4s82.36,184.85,183.96,184.85,183.96-82.76,183.96-184.85h0Zm1.14,0c0,102.72-82.87,185.99-185.1,185.99S16.34,305.12,16.34,202.4,99.22,16.41,201.44,16.41s185.1,83.27,185.1,185.99Z"/>
      <path class="cls-32" d="m386.16,202.4c0-102.51-82.7-185.61-184.72-185.61S16.72,99.89,16.72,202.4s82.7,185.61,184.72,185.61,184.72-83.1,184.72-185.61h0Zm1.14,0c0,103.14-83.21,186.75-185.86,186.75S15.59,305.54,15.59,202.4,98.8,15.65,201.44,15.65s185.86,83.61,185.86,186.75Z"/>
      <path class="cls-154" d="m386.92,202.4c0-102.93-83.04-186.37-185.48-186.37S15.96,99.47,15.96,202.4s83.04,186.37,185.48,186.37,185.48-83.44,185.48-186.37h0Zm1.14,0c0,103.56-83.55,187.51-186.61,187.51S14.83,305.96,14.83,202.4,98.38,14.89,201.44,14.89s186.61,83.95,186.61,187.51Z"/>
      <path class="cls-71" d="m387.68,202.4c0-103.35-83.38-187.13-186.24-187.13S15.21,99.05,15.21,202.4s83.38,187.13,186.24,187.13,186.24-83.78,186.24-187.13h0Zm1.14,0c0,103.98-83.89,188.27-187.37,188.27S14.07,306.38,14.07,202.4,97.96,14.13,201.44,14.13s187.37,84.29,187.37,188.27Z"/>
      <path class="cls-71" d="m388.44,202.4c0-103.77-83.72-187.89-186.99-187.89S14.45,98.63,14.45,202.4s83.72,187.89,186.99,187.89,186.99-84.12,186.99-187.89h0Zm1.14,0c0,104.4-84.23,189.03-188.13,189.03S13.31,306.8,13.31,202.4,97.54,13.37,201.44,13.37s188.13,84.63,188.13,189.04Z"/>
      <path class="cls-120" d="m389.19,202.4c0-104.19-84.06-188.65-187.75-188.65S13.69,98.21,13.69,202.4s84.06,188.65,187.75,188.65,187.75-84.46,187.75-188.65h0Zm1.14,0c0,104.82-84.57,189.8-188.89,189.8S12.56,307.22,12.56,202.4,97.12,12.61,201.44,12.61s188.89,84.97,188.89,189.8Z"/>
      <path class="cls-9" d="m389.95,202.4c0-104.61-84.4-189.42-188.51-189.42S12.94,97.79,12.94,202.4s84.4,189.42,188.51,189.42,188.51-84.8,188.51-189.42h0Zm1.14,0c0,105.24-84.91,190.56-189.64,190.56S11.8,307.64,11.8,202.4,96.71,11.85,201.44,11.85s189.64,85.31,189.64,190.56Z"/>
      <path class="cls-9" d="m390.71,202.4c0-105.03-84.74-190.18-189.26-190.18S12.18,97.37,12.18,202.4s84.74,190.18,189.26,190.18,189.26-85.14,189.26-190.18h0Zm1.14,0c0,105.66-85.24,191.32-190.4,191.32S11.04,308.06,11.04,202.4,96.29,11.08,201.44,11.08s190.4,85.66,190.4,191.32Z"/>
      <path class="cls-53" d="m391.46,202.4c0-105.45-85.08-190.94-190.02-190.94S11.42,96.95,11.42,202.4s85.08,190.94,190.02,190.94,190.02-85.49,190.02-190.94h0Zm1.14,0c0,106.08-85.58,192.08-191.16,192.08S10.29,308.48,10.29,202.4,95.87,10.32,201.44,10.32s191.16,86,191.16,192.08Z"/>
      <path class="cls-53" d="m392.22,202.4c0-105.87-85.41-191.7-190.78-191.7S10.67,96.53,10.67,202.4s85.41,191.7,190.78,191.7,190.78-85.83,190.78-191.7h0Zm1.14,0c0,106.5-85.92,192.84-191.91,192.84S9.53,308.9,9.53,202.4,95.45,9.56,201.44,9.56s191.91,86.34,191.91,192.84Z"/>
      <path class="cls-1" d="m392.98,202.4c0-106.29-85.75-192.46-191.54-192.46S9.91,96.11,9.91,202.4s85.75,192.46,191.53,192.46,191.54-86.17,191.54-192.46h0Zm1.14,0c0,106.92-86.26,193.6-192.67,193.6S8.77,309.32,8.77,202.4,95.03,8.8,201.44,8.8s192.67,86.68,192.67,193.6Z"/>
      <path class="cls-39" d="m393.74,202.4c0-106.71-86.09-193.22-192.29-193.22S9.15,95.69,9.15,202.4s86.09,193.22,192.29,193.22,192.29-86.51,192.29-193.22h0Zm1.14,0c0,107.34-86.6,194.36-193.43,194.36S8.02,309.74,8.02,202.4,94.62,8.04,201.44,8.04s193.43,87.02,193.43,194.36Z"/>
      <path class="cls-50" d="m394.49,202.4c0-107.13-86.43-193.98-193.05-193.98S8.39,95.27,8.39,202.4s86.43,193.98,193.05,193.98,193.05-86.85,193.05-193.98h0Zm.76,0c0,107.55-86.77,194.74-193.81,194.74S7.64,309.95,7.64,202.4,94.41,7.66,201.44,7.66s193.81,87.19,193.81,194.74Z"/>
    </g>
    <ellipse class="cls-186" cx="201.44" cy="202.4" rx="193.81" ry="194.74"/>
    <ellipse class="cls-187" cx="201.44" cy="202.4" rx="198.94" ry="199.9"/>
    <path class="cls-99" d="m208.48,200.96h3.14v3.23c-3.47.9-3.6.78-3.14-3.23Z"/>
  </g>
  <g id="Layer_2" data-name="Layer 2">
    <ellipse class="cls-186" cx="201.44" cy="202.4" rx="195.05" ry="195.99"/>
  </g>
</svg>