<?xml version="1.0" encoding="UTF-8"?>
<svg id="Layer_1" data-name="Layer 1" xmlns="http://www.w3.org/2000/svg" viewBox="0 0 325.12 324.79">
  <defs>
    <style>
      .cls-1 {
        fill: #fff9ae;
        stroke: #fff9ae;
        stroke-miterlimit: 10;
        stroke-width: .25px;
      }
    </style>
  </defs>
  <path class="cls-1" d="m62.69.18h100.23v61.49h161.13v100.33h-61.43v161.13h-100.23v-61.43H1.24v-100.33h61.45V.18Zm162.18,62.66v98.24h98.17V62.84h-98.17Zm-61.63,259.24h98.19v-98.17h-98.19v98.17ZM2.14,260.45h98.29c.09-1.08.25-2.04.25-3.01,0-30.57-.05-61.15.03-91.72,0-2.79-.63-3.72-3.6-3.71-30.68.11-61.37.07-92.05.08-.93,0-1.86.14-2.92.23v98.12ZM162.11,1.26H63.89v98.11h98.22V1.26Zm39.11,161.01v60.23h60.17v-60.23h-60.17Zm-37.94-99.43v60.25h60.2v-60.25h-60.2Zm-1.22,137.37h-60.24v60.18h60.24v-60.18Zm-37.9-39.08v-60.26h-60.2v60.26h60.2Zm-22.29,1.09v36.67h36.39v-36.67h-36.39Zm85.22-37.82v36.62h36.36v-36.62h-36.36Zm-25.14,12.91v-36.51h-36.5v36.51h36.5Zm37.97,48.9c-.57-.14-1.09-.37-1.6-.37-10.98-.04-21.96-.02-32.94-.09-2.25-.01-2.33,1.27-2.32,2.96.04,10.55.02,21.1.04,31.65,0,.72.21,1.43.32,2.18h36.5v-36.34Zm-36.66-61.81v22.31h22.3v-22.31h-22.3Zm36.67,37.97h-22.29v22.21h22.29v-22.21Zm-60.31,36.72c7.22,0,14.15.03,21.09-.06.5,0,1.43-.83,1.43-1.29.09-7.03.06-14.07.06-21.19h-22.59v22.54Zm-14.16-38.12h22.26v-22.33h-22.26v22.33Zm50.74,23.71v-12.63h-12.92v12.63h12.92Zm-23.77-22.3h-12.81v12.83h12.81v-12.83Zm-3.29-23.73v12.63h12.89v-12.63h-12.89Zm36.57,9.48h-12.75v12.88h12.75v-12.88Zm-31.72,27.06h8.28c0-2.37.11-4.52-.07-6.65-.05-.59-.9-1.54-1.44-1.58-2.21-.18-4.44-.08-6.78-.08v8.3Zm14.12-13v8.18h8.04v-8.18h-8.04Zm3.27-14.02h-8.13v8.07h8.13v-8.07Zm-14.3,4.87h-7.83v8.02c9.87.24,8.13,1.81,8.12-7.63,0-.08-.12-.17-.29-.39Zm9.72,4.36c-1.37.09-2.39.16-3.36.22-.54,3.87-.19,4.17,3.36,3.05v-3.27Zm-8.11.02v3.64c3.85.26,3.93.16,3.03-3.5-.9-.04-1.85-.09-3.03-.14Zm3.37,4.62c-1.42.13-2.43.22-3.64.33.06,1.31.1,2.33.15,3.37h3.49v-3.7Zm4.67.45c-3.8-.57-4.08-.25-3.04,3.44.98-.05,2-.11,3.04-.16v-3.28Zm.07,4.72c-3.98-.45-4.1-.32-3.2,3.12h3.2v-3.12Zm4.52-6.06v-3.58h-3.41c.06,1.27.12,2.38.17,3.58h3.23Zm-12.69-8.13v3.51c1.31-.13,2.4-.24,3.63-.36-.07-1.3-.13-2.21-.18-3.15h-3.45Zm-1.55,12.78c.6-3.75.44-3.91-2.99-3.27v3.43c1.16-.06,2.09-.11,2.99-.16Z"/>
</svg>