<?xml version="1.0" encoding="UTF-8"?>
<svg id="Layer_1" data-name="Layer 1" xmlns="http://www.w3.org/2000/svg" xmlns:xlink="http://www.w3.org/1999/xlink" viewBox="0 0 333.58 381.89">
  <defs>
    <style>
      .cls-1 {
        fill: #004b3e;
      }

      .cls-1, .cls-2, .cls-3, .cls-4, .cls-5, .cls-6, .cls-7, .cls-8, .cls-9, .cls-10, .cls-11, .cls-12, .cls-13, .cls-14, .cls-15, .cls-16, .cls-17, .cls-18, .cls-19, .cls-20, .cls-21, .cls-22, .cls-23, .cls-24, .cls-25, .cls-26, .cls-27, .cls-28, .cls-29, .cls-30, .cls-31, .cls-32, .cls-33, .cls-34, .cls-35, .cls-36, .cls-37, .cls-38, .cls-39, .cls-40, .cls-41, .cls-42, .cls-43, .cls-44, .cls-45, .cls-46, .cls-47, .cls-48, .cls-49, .cls-50, .cls-51, .cls-52, .cls-53, .cls-54, .cls-55, .cls-56, .cls-57, .cls-58, .cls-59, .cls-60, .cls-61, .cls-62, .cls-63, .cls-64, .cls-65, .cls-66 {
        fill-rule: evenodd;
      }

      .cls-1, .cls-2, .cls-3, .cls-4, .cls-5, .cls-7, .cls-8, .cls-9, .cls-10, .cls-11, .cls-12, .cls-13, .cls-14, .cls-15, .cls-16, .cls-17, .cls-18, .cls-67, .cls-19, .cls-20, .cls-21, .cls-22, .cls-23, .cls-24, .cls-25, .cls-26, .cls-27, .cls-68, .cls-28, .cls-29, .cls-30, .cls-31, .cls-32, .cls-33, .cls-34, .cls-35, .cls-36, .cls-37, .cls-38, .cls-39, .cls-40, .cls-41, .cls-42, .cls-43, .cls-44, .cls-45, .cls-46, .cls-47, .cls-48, .cls-49, .cls-50, .cls-51, .cls-52, .cls-53, .cls-54, .cls-55, .cls-56, .cls-57, .cls-58, .cls-59, .cls-60, .cls-61, .cls-62, .cls-63, .cls-64, .cls-65, .cls-66 {
        stroke-width: 0px;
      }

      .cls-2 {
        fill: #002922;
      }

      .cls-3 {
        fill: #fff9ae;
      }

      .cls-4 {
        fill: #003f34;
      }

      .cls-5 {
        fill: #004035;
      }

      .cls-6, .cls-67, .cls-69 {
        fill: none;
      }

      .cls-6, .cls-69 {
        stroke: #fff9ae;
        stroke-miterlimit: 10;
        stroke-width: 3px;
      }

      .cls-7 {
        fill: #002e26;
      }

      .cls-8 {
        fill: #00332a;
      }

      .cls-9 {
        fill: #004d3f;
      }

      .cls-10 {
        fill: #004136;
      }

      .cls-11 {
        fill: #004236;
      }

      .cls-12 {
        fill: #003d32;
      }

      .cls-13 {
        fill: #00352b;
      }

      .cls-14 {
        fill: #004c3f;
      }

      .cls-15 {
        fill: #002b23;
      }

      .cls-16 {
        fill: #00473a;
      }

      .cls-17 {
        fill: #004c3e;
      }

      .cls-18 {
        fill: #004438;
      }

      .cls-19 {
        fill: #002f26;
      }

      .cls-20 {
        fill: #003027;
      }

      .cls-21 {
        fill: #00342b;
      }

      .cls-22 {
        fill: #003b31;
      }

      .cls-23 {
        fill: #00362c;
      }

      .cls-24 {
        fill: #003128;
      }

      .cls-25 {
        fill: #002c24;
      }

      .cls-26 {
        fill: #00483b;
      }

      .cls-27 {
        fill: #002a23;
      }

      .cls-68 {
        fill: #fff;
      }

      .cls-28 {
        fill: #00352c;
      }

      .cls-29 {
        fill: #004539;
      }

      .cls-30 {
        fill: #00362d;
      }

      .cls-31 {
        fill: #004337;
      }

      .cls-32 {
        fill: #002921;
      }

      .cls-33 {
        fill: #003f33;
      }

      .cls-70 {
        clip-path: url(#clippath);
      }

      .cls-34 {
        fill: #003028;
      }

      .cls-35 {
        fill: #00392f;
      }

      .cls-36 {
        fill: #004d40;
      }

      .cls-37 {
        fill: #00493c;
      }

      .cls-38 {
        fill: url(#GradientFill_1);
      }

      .cls-39 {
        fill: #003e33;
      }

      .cls-40 {
        fill: #004034;
      }

      .cls-41 {
        fill: #004639;
      }

      .cls-42 {
        fill: #003b30;
      }

      .cls-43 {
        fill: #00382e;
      }

      .cls-44 {
        fill: #002a22;
      }

      .cls-45 {
        fill: #004135;
      }

      .cls-46 {
        fill: #002d25;
      }

      .cls-47 {
        fill: #002e25;
      }

      .cls-48 {
        fill: #003a30;
      }

      .cls-49 {
        fill: #003a2f;
      }

      .cls-50 {
        fill: #003c31;
      }

      .cls-51 {
        fill: #003c32;
      }

      .cls-52 {
        fill: #003229;
      }

      .cls-53 {
        fill: #002b24;
      }

      .cls-54 {
        fill: #00342a;
      }

      .cls-55 {
        fill: #003329;
      }

      .cls-56 {
        fill: #002f27;
      }

      .cls-57 {
        fill: #004a3c;
      }

      .cls-58 {
        fill: #004a3d;
      }

      .cls-59 {
        fill: #00372d;
      }

      .cls-60 {
        fill: #004538;
      }

      .cls-61 {
        fill: #00392e;
      }

      .cls-62 {
        fill: #002821;
      }

      .cls-63 {
        fill: #004e40;
      }

      .cls-64 {
        fill: #00463a;
      }

      .cls-65 {
        fill: #00473b;
      }

      .cls-66 {
        fill: #004b3d;
      }
    </style>
    <clipPath id="clippath">
      <rect class="cls-67" x="50.03" y="74.38" width="233.52" height="237.45"/>
    </clipPath>
    <radialGradient id="GradientFill_1" data-name="GradientFill 1" cx="166.55" cy="191.03" fx="166.55" fy="191.03" r="221.72" gradientUnits="userSpaceOnUse">
      <stop offset="0" stop-color="#6bc399"/>
      <stop offset="1" stop-color="#006b5f"/>
    </radialGradient>
  </defs>
  <g class="cls-70">
    <path class="cls-63" d="m168.46,193.11c0,.94-.75,1.7-1.67,1.7s-1.67-.76-1.67-1.7.75-1.7,1.67-1.7,1.67.76,1.67,1.7Z"/>
    <path class="cls-63" d="m167.9,193.11c0-.62-.5-1.13-1.11-1.13s-1.11.51-1.11,1.13.5,1.13,1.11,1.13,1.11-.51,1.11-1.13h0Zm1.67,0c0,1.56-1.24,2.83-2.78,2.83s-2.78-1.27-2.78-2.83,1.24-2.83,2.78-2.83,2.78,1.27,2.78,2.83Z"/>
    <path class="cls-36" d="m169.01,193.11c0-1.25-1-2.26-2.22-2.26s-2.22,1.01-2.22,2.26,1,2.26,2.22,2.26,2.22-1.01,2.22-2.26h0Zm1.67,0c0,2.19-1.74,3.96-3.89,3.96s-3.89-1.77-3.89-3.96,1.74-3.96,3.89-3.96,3.89,1.77,3.89,3.96Z"/>
    <path class="cls-9" d="m170.12,193.11c0-1.87-1.49-3.39-3.34-3.39s-3.34,1.52-3.34,3.39,1.49,3.39,3.34,3.39,3.34-1.52,3.34-3.39h0Zm1.67,0c0,2.81-2.24,5.09-5,5.09s-5-2.28-5-5.09,2.24-5.09,5-5.09,5,2.28,5,5.09Z"/>
    <path class="cls-9" d="m171.24,193.11c0-2.5-1.99-4.52-4.45-4.52s-4.45,2.02-4.45,4.52,1.99,4.52,4.45,4.52,4.45-2.02,4.45-4.52h0Zm1.67,0c0,3.43-2.74,6.22-6.12,6.22s-6.12-2.78-6.12-6.22,2.74-6.22,6.12-6.22,6.12,2.78,6.12,6.22Z"/>
    <path class="cls-9" d="m172.35,193.11c0-3.12-2.49-5.65-5.56-5.65s-5.56,2.53-5.56,5.65,2.49,5.65,5.56,5.65,5.56-2.53,5.56-5.65h0Zm1.67,0c0,4.06-3.24,7.35-7.23,7.35s-7.23-3.29-7.23-7.35,3.24-7.35,7.23-7.35,7.23,3.29,7.23,7.35Z"/>
    <path class="cls-14" d="m173.46,193.11c0-3.75-2.99-6.78-6.67-6.78s-6.67,3.04-6.67,6.78,2.99,6.78,6.67,6.78,6.67-3.04,6.67-6.78h0Zm1.67,0c0,4.68-3.73,8.48-8.34,8.48s-8.34-3.8-8.34-8.48,3.73-8.48,8.34-8.48,8.34,3.8,8.34,8.48Z"/>
    <path class="cls-14" d="m174.57,193.11c0-4.37-3.48-7.91-7.78-7.91s-7.78,3.54-7.78,7.91,3.48,7.91,7.78,7.91,7.78-3.54,7.78-7.91h0Zm1.67,0c0,5.31-4.23,9.61-9.45,9.61s-9.45-4.3-9.45-9.61,4.23-9.61,9.45-9.61,9.45,4.3,9.45,9.61Z"/>
    <path class="cls-17" d="m175.68,193.11c0-5-3.98-9.05-8.9-9.05s-8.9,4.05-8.9,9.05,3.98,9.04,8.9,9.04,8.9-4.05,8.9-9.04h0Zm1.67,0c0,5.93-4.73,10.74-10.56,10.74s-10.56-4.81-10.56-10.74,4.73-10.74,10.56-10.74,10.56,4.81,10.56,10.74Z"/>
    <path class="cls-17" d="m176.8,193.11c0-5.62-4.48-10.18-10.01-10.18s-10.01,4.56-10.01,10.18,4.48,10.18,10.01,10.18,10.01-4.56,10.01-10.18h0Zm1.67,0c0,6.56-5.23,11.87-11.68,11.87s-11.67-5.32-11.67-11.87,5.23-11.87,11.67-11.87,11.68,5.32,11.68,11.87Z"/>
    <path class="cls-1" d="m177.91,193.11c0-6.24-4.98-11.31-11.12-11.31s-11.12,5.06-11.12,11.31,4.98,11.31,11.12,11.31,11.12-5.06,11.12-11.31h0Zm1.67,0c0,7.18-5.72,13-12.79,13s-12.79-5.82-12.79-13,5.73-13,12.79-13,12.79,5.82,12.79,13Z"/>
    <path class="cls-1" d="m179.02,193.11c0-6.87-5.48-12.44-12.23-12.44s-12.23,5.57-12.23,12.44,5.48,12.44,12.23,12.44,12.23-5.57,12.23-12.44h0Zm1.67,0c0,7.81-6.22,14.13-13.9,14.13s-13.9-6.33-13.9-14.13,6.22-14.13,13.9-14.13,13.9,6.33,13.9,14.13Z"/>
    <path class="cls-1" d="m180.13,193.11c0-7.49-5.97-13.57-13.34-13.57s-13.34,6.07-13.34,13.57,5.97,13.57,13.34,13.57,13.34-6.07,13.34-13.57h0Zm1.67,0c0,8.43-6.72,15.26-15.01,15.26s-15.01-6.83-15.01-15.26,6.72-15.26,15.01-15.26,15.01,6.83,15.01,15.26Z"/>
    <path class="cls-66" d="m181.24,193.11c0-8.12-6.47-14.7-14.45-14.7s-14.45,6.58-14.45,14.7,6.47,14.7,14.45,14.7,14.45-6.58,14.45-14.7h0Zm1.67,0c0,9.05-7.22,16.39-16.12,16.39s-16.12-7.34-16.12-16.39,7.22-16.39,16.12-16.39,16.12,7.34,16.12,16.39Z"/>
    <path class="cls-58" d="m182.36,193.11c0-8.74-6.97-15.83-15.57-15.83s-15.57,7.09-15.57,15.83,6.97,15.83,15.57,15.83,15.57-7.09,15.57-15.83h0Zm1.67,0c0,9.68-7.72,17.52-17.23,17.52s-17.23-7.85-17.23-17.52,7.72-17.52,17.23-17.52,17.23,7.85,17.23,17.52Z"/>
    <path class="cls-58" d="m183.47,193.11c0-9.37-7.47-16.96-16.68-16.96s-16.68,7.59-16.68,16.96,7.47,16.96,16.68,16.96,16.68-7.59,16.68-16.96h0Zm1.67,0c0,10.3-8.21,18.66-18.35,18.66s-18.35-8.35-18.35-18.66,8.21-18.66,18.35-18.66,18.35,8.35,18.35,18.66Z"/>
    <path class="cls-58" d="m184.58,193.11c0-9.99-7.96-18.09-17.79-18.09s-17.79,8.1-17.79,18.09,7.97,18.09,17.79,18.09,17.79-8.1,17.79-18.09h0Zm1.67,0c0,10.93-8.71,19.79-19.46,19.79s-19.46-8.86-19.46-19.79,8.71-19.79,19.46-19.79,19.46,8.86,19.46,19.79Z"/>
    <path class="cls-57" d="m185.69,193.11c0-10.62-8.46-19.22-18.9-19.22s-18.9,8.61-18.9,19.22,8.46,19.22,18.9,19.22,18.9-8.61,18.9-19.22h0Zm1.67,0c0,11.55-9.21,20.92-20.57,20.92s-20.57-9.36-20.57-20.92,9.21-20.92,20.57-20.92,20.57,9.36,20.57,20.92Z"/>
    <path class="cls-37" d="m186.8,193.11c0-11.24-8.96-20.35-20.01-20.35s-20.01,9.11-20.01,20.35,8.96,20.35,20.01,20.35,20.01-9.11,20.01-20.35h0Zm1.67,0c0,12.18-9.71,22.05-21.68,22.05s-21.68-9.87-21.68-22.05,9.71-22.05,21.68-22.05,21.68,9.87,21.68,22.05Z"/>
    <path class="cls-37" d="m187.92,193.11c0-11.86-9.46-21.48-21.13-21.48s-21.13,9.62-21.13,21.48,9.46,21.48,21.13,21.48,21.13-9.62,21.13-21.48h0Zm1.67,0c0,12.8-10.21,23.18-22.79,23.18s-22.79-10.38-22.79-23.18,10.21-23.18,22.79-23.18,22.79,10.38,22.79,23.18Z"/>
    <path class="cls-37" d="m189.03,193.11c0-12.49-9.96-22.61-22.24-22.61s-22.24,10.12-22.24,22.61,9.96,22.61,22.24,22.61,22.24-10.12,22.24-22.61h0Zm1.67,0c0,13.43-10.7,24.31-23.91,24.31s-23.91-10.88-23.91-24.31,10.7-24.31,23.91-24.31,23.91,10.88,23.91,24.31Z"/>
    <path class="cls-37" d="m190.14,193.11c0-13.11-10.45-23.74-23.35-23.74s-23.35,10.63-23.35,23.74,10.45,23.74,23.35,23.74,23.35-10.63,23.35-23.74h0Zm1.67,0c0,14.05-11.2,25.44-25.02,25.44s-25.02-11.39-25.02-25.44,11.2-25.44,25.02-25.44,25.02,11.39,25.02,25.44Z"/>
    <path class="cls-26" d="m191.25,193.11c0-13.74-10.95-24.87-24.46-24.87s-24.46,11.14-24.46,24.87,10.95,24.87,24.46,24.87,24.46-11.14,24.46-24.87h0Zm1.67,0c0,14.67-11.7,26.57-26.13,26.57s-26.13-11.9-26.13-26.57,11.7-26.57,26.13-26.57,26.13,11.9,26.13,26.57Z"/>
    <path class="cls-26" d="m192.36,193.11c0-14.36-11.45-26-25.57-26s-25.57,11.64-25.57,26,11.45,26,25.57,26,25.57-11.64,25.57-26h0Zm1.67,0c0,15.3-12.2,27.7-27.24,27.7s-27.24-12.4-27.24-27.7,12.2-27.7,27.24-27.7,27.24,12.4,27.24,27.7Z"/>
    <path class="cls-26" d="m193.47,193.11c0-14.99-11.95-27.14-26.69-27.14s-26.69,12.15-26.69,27.14,11.95,27.13,26.69,27.13,26.69-12.15,26.69-27.13h0Zm1.67,0c0,15.92-12.69,28.83-28.35,28.83s-28.35-12.91-28.35-28.83,12.69-28.83,28.35-28.83,28.35,12.91,28.35,28.83Z"/>
    <path class="cls-26" d="m194.59,193.11c0-15.61-12.45-28.27-27.8-28.27s-27.8,12.65-27.8,28.27,12.45,28.27,27.8,28.27,27.8-12.65,27.8-28.27h0Zm1.67,0c0,16.55-13.19,29.96-29.47,29.96s-29.47-13.41-29.47-29.96,13.19-29.96,29.47-29.96,29.47,13.41,29.47,29.96Z"/>
    <path class="cls-65" d="m195.7,193.11c0-16.24-12.94-29.4-28.91-29.4s-28.91,13.16-28.91,29.4,12.94,29.4,28.91,29.4,28.91-13.16,28.91-29.4h0Zm1.67,0c0,17.17-13.69,31.09-30.58,31.09s-30.58-13.92-30.58-31.09,13.69-31.09,30.58-31.09,30.58,13.92,30.58,31.09Z"/>
    <path class="cls-16" d="m196.81,193.11c0-16.86-13.44-30.53-30.02-30.53s-30.02,13.67-30.02,30.53,13.44,30.53,30.02,30.53,30.02-13.67,30.02-30.53h0Zm1.67,0c0,17.8-14.19,32.22-31.69,32.22s-31.69-14.43-31.69-32.22,14.19-32.22,31.69-32.22,31.69,14.43,31.69,32.22Z"/>
    <path class="cls-16" d="m197.92,193.11c0-17.48-13.94-31.66-31.13-31.66s-31.13,14.17-31.13,31.66,13.94,31.66,31.13,31.66,31.13-14.17,31.13-31.66h0Zm1.67,0c0,18.42-14.69,33.35-32.8,33.35s-32.8-14.93-32.8-33.35,14.69-33.35,32.8-33.35,32.8,14.93,32.8,33.35Z"/>
    <path class="cls-16" d="m199.03,193.11c0-18.11-14.44-32.79-32.25-32.79s-32.25,14.68-32.25,32.79,14.44,32.79,32.25,32.79,32.25-14.68,32.25-32.79h0Zm1.67,0c0,19.04-15.18,34.48-33.91,34.48s-33.91-15.44-33.91-34.48,15.18-34.48,33.91-34.48,33.91,15.44,33.91,34.48Z"/>
    <path class="cls-64" d="m200.15,193.11c0-18.73-14.93-33.92-33.36-33.92s-33.36,15.19-33.36,33.92,14.93,33.92,33.36,33.92,33.36-15.19,33.36-33.92h0Zm1.67,0c0,19.67-15.68,35.61-35.03,35.61s-35.03-15.95-35.03-35.61,15.68-35.61,35.03-35.61,35.03,15.95,35.03,35.61Z"/>
    <path class="cls-64" d="m201.26,193.11c0-19.36-15.43-35.05-34.47-35.05s-34.47,15.69-34.47,35.05,15.43,35.05,34.47,35.05,34.47-15.69,34.47-35.05h0Zm1.67,0c0,20.29-16.18,36.75-36.14,36.75s-36.14-16.45-36.14-36.75,16.18-36.75,36.14-36.75,36.14,16.45,36.14,36.75Z"/>
    <path class="cls-41" d="m202.37,193.11c0-19.98-15.93-36.18-35.58-36.18s-35.58,16.2-35.58,36.18,15.93,36.18,35.58,36.18,35.58-16.2,35.58-36.18h0Zm1.67,0c0,20.92-16.68,37.88-37.25,37.88s-37.25-16.96-37.25-37.88,16.68-37.88,37.25-37.88,37.25,16.96,37.25,37.88Z"/>
    <path class="cls-41" d="m203.48,193.11c0-20.61-16.43-37.31-36.69-37.31s-36.69,16.7-36.69,37.31,16.43,37.31,36.69,37.31,36.69-16.7,36.69-37.31h0Zm1.67,0c0,21.54-17.18,39.01-38.36,39.01s-38.36-17.46-38.36-39.01,17.17-39.01,38.36-39.01,38.36,17.46,38.36,39.01Z"/>
    <path class="cls-29" d="m204.59,193.11c0-21.23-16.93-38.44-37.81-38.44s-37.81,17.21-37.81,38.44,16.93,38.44,37.81,38.44,37.81-17.21,37.81-38.44h0Zm1.67,0c0,22.17-17.67,40.14-39.47,40.14s-39.47-17.97-39.47-40.14,17.67-40.14,39.47-40.14,39.47,17.97,39.47,40.14Z"/>
    <path class="cls-29" d="m205.71,193.11c0-21.86-17.42-39.57-38.92-39.57s-38.92,17.72-38.92,39.57,17.42,39.57,38.92,39.57,38.92-17.72,38.92-39.57h0Zm1.67,0c0,22.79-18.17,41.27-40.59,41.27s-40.59-18.48-40.59-41.27,18.17-41.27,40.59-41.27,40.59,18.48,40.59,41.27Z"/>
    <path class="cls-29" d="m206.82,193.11c0-22.48-17.92-40.7-40.03-40.7s-40.03,18.22-40.03,40.7,17.92,40.7,40.03,40.7,40.03-18.22,40.03-40.7h0Zm1.67,0c0,23.42-18.67,42.4-41.7,42.4s-41.7-18.98-41.7-42.4,18.67-42.4,41.7-42.4,41.7,18.98,41.7,42.4Z"/>
    <path class="cls-60" d="m207.93,193.11c0-23.1-18.42-41.83-41.14-41.83s-41.14,18.73-41.14,41.83,18.42,41.83,41.14,41.83,41.14-18.73,41.14-41.83h0Zm1.67,0c0,24.04-19.17,43.53-42.81,43.53s-42.81-19.49-42.81-43.53,19.17-43.53,42.81-43.53,42.81,19.49,42.81,43.53Z"/>
    <path class="cls-18" d="m209.04,193.11c0-23.73-18.92-42.96-42.25-42.96s-42.25,19.24-42.25,42.96,18.92,42.96,42.25,42.96,42.25-19.24,42.25-42.96h0Zm1.67,0c0,24.66-19.66,44.66-43.92,44.66s-43.92-19.99-43.92-44.66,19.66-44.66,43.92-44.66,43.92,19.99,43.92,44.66Z"/>
    <path class="cls-18" d="m210.15,193.11c0-24.35-19.42-44.09-43.37-44.09s-43.36,19.74-43.36,44.09,19.41,44.09,43.36,44.09,43.37-19.74,43.37-44.09h0Zm1.67,0c0,25.29-20.16,45.79-45.03,45.79s-45.03-20.5-45.03-45.79,20.16-45.79,45.03-45.79,45.03,20.5,45.03,45.79Z"/>
    <path class="cls-18" d="m211.27,193.11c0-24.98-19.91-45.23-44.48-45.23s-44.48,20.25-44.48,45.23,19.91,45.22,44.48,45.22,44.48-20.25,44.48-45.22h0Zm1.67,0c0,25.91-20.66,46.92-46.14,46.92s-46.14-21.01-46.14-46.92,20.66-46.92,46.14-46.92,46.14,21.01,46.14,46.92Z"/>
    <path class="cls-18" d="m212.38,193.11c0-25.6-20.41-46.36-45.59-46.36s-45.59,20.75-45.59,46.36,20.41,46.36,45.59,46.36,45.59-20.75,45.59-46.36h0Zm1.67,0c0,26.54-21.16,48.05-47.26,48.05s-47.26-21.51-47.26-48.05,21.16-48.05,47.26-48.05,47.26,21.51,47.26,48.05Z"/>
    <path class="cls-31" d="m213.49,193.11c0-26.23-20.91-47.49-46.7-47.49s-46.7,21.26-46.7,47.49,20.91,47.49,46.7,47.49,46.7-21.26,46.7-47.49h0Zm1.67,0c0,27.16-21.66,49.18-48.37,49.18s-48.37-22.02-48.37-49.18,21.66-49.18,48.37-49.18,48.37,22.02,48.37,49.18Z"/>
    <path class="cls-31" d="m214.6,193.11c0-26.85-21.41-48.62-47.81-48.62s-47.81,21.77-47.81,48.62,21.41,48.62,47.81,48.62,47.81-21.77,47.81-48.62h0Zm1.67,0c0,27.79-22.15,50.31-49.48,50.31s-49.48-22.53-49.48-50.31,22.15-50.31,49.48-50.31,49.48,22.53,49.48,50.31Z"/>
    <path class="cls-31" d="m215.71,193.11c0-27.47-21.9-49.75-48.92-49.75s-48.92,22.27-48.92,49.75,21.9,49.75,48.92,49.75,48.92-22.27,48.92-49.75h0Zm1.67,0c0,28.41-22.65,51.44-50.59,51.44s-50.59-23.03-50.59-51.44,22.65-51.44,50.59-51.44,50.59,23.03,50.59,51.44Z"/>
    <path class="cls-31" d="m216.83,193.11c0-28.1-22.4-50.88-50.04-50.88s-50.04,22.78-50.04,50.88,22.4,50.88,50.04,50.88,50.04-22.78,50.04-50.88h0Zm1.67,0c0,29.04-23.15,52.57-51.7,52.57s-51.7-23.54-51.7-52.57,23.15-52.57,51.7-52.57,51.7,23.54,51.7,52.57Z"/>
    <path class="cls-11" d="m217.94,193.11c0-28.72-22.9-52.01-51.15-52.01s-51.15,23.29-51.15,52.01,22.9,52.01,51.15,52.01,51.15-23.29,51.15-52.01h0Zm1.67,0c0,29.66-23.65,53.7-52.82,53.7s-52.82-24.04-52.82-53.7,23.65-53.7,52.82-53.7,52.82,24.04,52.82,53.7Z"/>
    <path class="cls-11" d="m219.05,193.11c0-29.35-23.4-53.14-52.26-53.14s-52.26,23.79-52.26,53.14,23.4,53.14,52.26,53.14,52.26-23.79,52.26-53.14h0Zm1.67,0c0,30.28-24.14,54.84-53.93,54.84s-53.93-24.55-53.93-54.84,24.14-54.84,53.93-54.84,53.93,24.55,53.93,54.84Z"/>
    <path class="cls-11" d="m220.16,193.11c0-29.97-23.9-54.27-53.37-54.27s-53.37,24.3-53.37,54.27,23.9,54.27,53.37,54.27,53.37-24.3,53.37-54.27h0Zm1.67,0c0,30.91-24.64,55.97-55.04,55.97s-55.04-25.06-55.04-55.97,24.64-55.97,55.04-55.97,55.04,25.06,55.04,55.97Z"/>
    <path class="cls-11" d="m221.27,193.11c0-30.6-24.39-55.4-54.48-55.4s-54.48,24.8-54.48,55.4,24.39,55.4,54.48,55.4,54.48-24.8,54.48-55.4h0Zm1.67,0c0,31.53-25.14,57.1-56.15,57.1s-56.15-25.56-56.15-57.1,25.14-57.1,56.15-57.1,56.15,25.56,56.15,57.1Z"/>
    <path class="cls-10" d="m222.39,193.11c0-31.22-24.89-56.53-55.6-56.53s-55.6,25.31-55.6,56.53,24.89,56.53,55.6,56.53,55.6-25.31,55.6-56.53h0Zm1.67,0c0,32.16-25.64,58.23-57.26,58.23s-57.26-26.07-57.26-58.23,25.64-58.23,57.26-58.23,57.26,26.07,57.26,58.23Z"/>
    <path class="cls-45" d="m223.5,193.11c0-31.85-25.39-57.66-56.71-57.66s-56.71,25.82-56.71,57.66,25.39,57.66,56.71,57.66,56.71-25.82,56.71-57.66h0Zm1.67,0c0,32.78-26.14,59.36-58.38,59.36s-58.38-26.58-58.38-59.36,26.14-59.36,58.38-59.36,58.38,26.58,58.38,59.36Z"/>
    <path class="cls-45" d="m224.61,193.11c0-32.47-25.89-58.79-57.82-58.79s-57.82,26.32-57.82,58.79,25.89,58.79,57.82,58.79,57.82-26.32,57.82-58.79h0Zm1.67,0c0,33.41-26.63,60.49-59.49,60.49s-59.49-27.08-59.49-60.49,26.63-60.49,59.49-60.49,59.49,27.08,59.49,60.49Z"/>
    <path class="cls-45" d="m225.72,193.11c0-33.09-26.38-59.92-58.93-59.92s-58.93,26.83-58.93,59.92,26.38,59.92,58.93,59.92,58.93-26.83,58.93-59.92h0Zm1.67,0c0,34.03-27.13,61.62-60.6,61.62s-60.6-27.59-60.6-61.62,27.13-61.62,60.6-61.62,60.6,27.59,60.6,61.62Z"/>
    <path class="cls-5" d="m226.83,193.11c0-33.72-26.88-61.05-60.04-61.05s-60.04,27.33-60.04,61.05,26.88,61.05,60.04,61.05,60.04-27.33,60.04-61.05h0Zm1.67,0c0,34.66-27.63,62.75-61.71,62.75s-61.71-28.09-61.71-62.75,27.63-62.75,61.71-62.75,61.71,28.09,61.71,62.75Z"/>
    <path class="cls-5" d="m227.94,193.11c0-34.34-27.38-62.18-61.16-62.18s-61.16,27.84-61.16,62.18,27.38,62.18,61.16,62.18,61.16-27.84,61.16-62.18h0Zm1.67,0c0,35.28-28.13,63.88-62.82,63.88s-62.82-28.6-62.82-63.88,28.13-63.88,62.82-63.88,62.82,28.6,62.82,63.88Z"/>
    <path class="cls-40" d="m229.06,193.11c0-34.97-27.88-63.32-62.27-63.32s-62.27,28.35-62.27,63.32,27.88,63.31,62.27,63.31,62.27-28.35,62.27-63.31h0Zm1.67,0c0,35.9-28.62,65.01-63.94,65.01s-63.94-29.11-63.94-65.01,28.63-65.01,63.94-65.01,63.94,29.11,63.94,65.01Z"/>
    <path class="cls-40" d="m230.17,193.11c0-35.59-28.38-64.45-63.38-64.45s-63.38,28.85-63.38,64.45,28.38,64.45,63.38,64.45,63.38-28.85,63.38-64.45h0Zm1.67,0c0,36.53-29.12,66.14-65.05,66.14s-65.05-29.61-65.05-66.14,29.12-66.14,65.05-66.14,65.05,29.61,65.05,66.14Z"/>
    <path class="cls-4" d="m231.28,193.11c0-36.22-28.87-65.58-64.49-65.58s-64.49,29.36-64.49,65.58,28.87,65.58,64.49,65.58,64.49-29.36,64.49-65.58h0Zm1.67,0c0,37.15-29.62,67.27-66.16,67.27s-66.16-30.12-66.16-67.27,29.62-67.27,66.16-67.27,66.16,30.12,66.16,67.27Z"/>
    <path class="cls-4" d="m232.39,193.11c0-36.84-29.37-66.71-65.6-66.71s-65.6,29.87-65.6,66.71,29.37,66.71,65.6,66.71,65.6-29.87,65.6-66.71h0Zm1.67,0c0,37.78-30.12,68.4-67.27,68.4s-67.27-30.62-67.27-68.4,30.12-68.4,67.27-68.4,67.27,30.63,67.27,68.4Z"/>
    <path class="cls-4" d="m233.5,193.11c0-37.47-29.87-67.84-66.72-67.84s-66.72,30.37-66.72,67.84,29.87,67.84,66.72,67.84,66.72-30.37,66.72-67.84h0Zm1.67,0c0,38.4-30.62,69.53-68.38,69.53s-68.38-31.13-68.38-69.53,30.62-69.53,68.38-69.53,68.38,31.13,68.38,69.53Z"/>
    <path class="cls-33" d="m234.62,193.11c0-38.09-30.37-68.97-67.83-68.97s-67.83,30.88-67.83,68.97,30.37,68.97,67.83,68.97,67.83-30.88,67.83-68.97h0Zm1.67,0c0,39.03-31.11,70.66-69.5,70.66s-69.5-31.64-69.5-70.66,31.11-70.66,69.5-70.66,69.5,31.64,69.5,70.66Z"/>
    <path class="cls-39" d="m235.73,193.11c0-38.71-30.87-70.1-68.94-70.1s-68.94,31.38-68.94,70.1,30.87,70.1,68.94,70.1,68.94-31.38,68.94-70.1h0Zm1.67,0c0,39.65-31.61,71.79-70.61,71.79s-70.61-32.14-70.61-71.79,31.61-71.79,70.61-71.79,70.61,32.14,70.61,71.79Z"/>
    <path class="cls-39" d="m236.84,193.11c0-39.34-31.36-71.23-70.05-71.23s-70.05,31.89-70.05,71.23,31.36,71.23,70.05,71.23,70.05-31.89,70.05-71.23h0Zm1.67,0c0,40.28-32.11,72.93-71.72,72.93s-71.72-32.65-71.72-72.93,32.11-72.93,71.72-72.93,71.72,32.65,71.72,72.93Z"/>
    <path class="cls-39" d="m237.95,193.11c0-39.96-31.86-72.36-71.16-72.36s-71.16,32.4-71.16,72.36,31.86,72.36,71.16,72.36,71.16-32.4,71.16-72.36h0Zm1.67,0c0,40.9-32.61,74.06-72.83,74.06s-72.83-33.16-72.83-74.06,32.61-74.06,72.83-74.06,72.83,33.16,72.83,74.06Z"/>
    <path class="cls-39" d="m239.06,193.11c0-40.59-32.36-73.49-72.28-73.49s-72.28,32.9-72.28,73.49,32.36,73.49,72.28,73.49,72.28-32.9,72.28-73.49h0Zm1.67,0c0,41.52-33.11,75.19-73.94,75.19s-73.94-33.66-73.94-75.19,33.11-75.19,73.94-75.19,73.94,33.66,73.94,75.19Z"/>
    <path class="cls-12" d="m240.18,193.11c0-41.21-32.86-74.62-73.39-74.62s-73.39,33.41-73.39,74.62,32.86,74.62,73.39,74.62,73.39-33.41,73.39-74.62h0Zm1.67,0c0,42.15-33.6,76.32-75.06,76.32s-75.05-34.17-75.05-76.32,33.6-76.32,75.05-76.32,75.06,34.17,75.06,76.32Z"/>
    <path class="cls-12" d="m241.29,193.11c0-41.84-33.35-75.75-74.5-75.75s-74.5,33.92-74.5,75.75,33.35,75.75,74.5,75.75,74.5-33.92,74.5-75.75h0Zm1.67,0c0,42.77-34.1,77.45-76.17,77.45s-76.17-34.67-76.17-77.45,34.1-77.45,76.17-77.45,76.17,34.67,76.17,77.45Z"/>
    <path class="cls-12" d="m242.4,193.11c0-42.46-33.85-76.88-75.61-76.88s-75.61,34.42-75.61,76.88,33.85,76.88,75.61,76.88,75.61-34.42,75.61-76.88h0Zm1.67,0c0,43.4-34.6,78.58-77.28,78.58s-77.28-35.18-77.28-78.58,34.6-78.58,77.28-78.58,77.28,35.18,77.28,78.58Z"/>
    <path class="cls-12" d="m243.51,193.11c0-43.09-34.35-78.01-76.72-78.01s-76.72,34.93-76.72,78.01,34.35,78.01,76.72,78.01,76.72-34.93,76.72-78.01h0Zm1.67,0c0,44.02-35.1,79.71-78.39,79.71s-78.39-35.69-78.39-79.71,35.1-79.71,78.39-79.71,78.39,35.69,78.39,79.71Z"/>
    <path class="cls-51" d="m244.62,193.11c0-43.71-34.85-79.14-77.83-79.14s-77.83,35.43-77.83,79.14,34.85,79.14,77.83,79.14,77.83-35.43,77.83-79.14h0Zm1.67,0c0,44.65-35.59,80.84-79.5,80.84s-79.5-36.19-79.5-80.84,35.59-80.84,79.5-80.84,79.5,36.19,79.5,80.84Z"/>
    <path class="cls-50" d="m245.74,193.11c0-44.33-35.35-80.27-78.95-80.27s-78.95,35.94-78.95,80.27,35.35,80.27,78.95,80.27,78.95-35.94,78.95-80.27h0Zm1.67,0c0,45.27-36.09,81.97-80.61,81.97s-80.61-36.7-80.61-81.97,36.09-81.97,80.61-81.97,80.61,36.7,80.61,81.97Z"/>
    <path class="cls-50" d="m246.85,193.11c0-44.96-35.84-81.41-80.06-81.41s-80.06,36.45-80.06,81.41,35.84,81.4,80.06,81.4,80.06-36.45,80.06-81.4h0Zm1.67,0c0,45.9-36.59,83.1-81.73,83.1s-81.73-37.21-81.73-83.1,36.59-83.1,81.73-83.1,81.73,37.21,81.73,83.1Z"/>
    <path class="cls-50" d="m247.96,193.11c0-45.58-36.34-82.54-81.17-82.54s-81.17,36.95-81.17,82.54,36.34,82.54,81.17,82.54,81.17-36.95,81.17-82.54h0Zm1.67,0c0,46.52-37.09,84.23-82.84,84.23s-82.84-37.71-82.84-84.23,37.09-84.23,82.84-84.23,82.84,37.71,82.84,84.23Z"/>
    <path class="cls-22" d="m249.07,193.11c0-46.21-36.84-83.67-82.28-83.67s-82.28,37.46-82.28,83.67,36.84,83.67,82.28,83.67,82.28-37.46,82.28-83.67h0Zm1.67,0c0,47.14-37.59,85.36-83.95,85.36s-83.95-38.22-83.95-85.36,37.59-85.36,83.95-85.36,83.95,38.22,83.95,85.36Z"/>
    <path class="cls-42" d="m250.18,193.11c0-46.83-37.34-84.8-83.39-84.8s-83.39,37.96-83.39,84.8,37.34,84.8,83.39,84.8,83.39-37.96,83.39-84.8h0Zm1.67,0c0,47.77-38.08,86.49-85.06,86.49s-85.06-38.72-85.06-86.49,38.08-86.49,85.06-86.49,85.06,38.72,85.06,86.49Z"/>
    <path class="cls-42" d="m251.3,193.11c0-47.46-37.83-85.93-84.51-85.93s-84.51,38.47-84.51,85.93,37.83,85.93,84.51,85.93,84.51-38.47,84.51-85.93h0Zm1.67,0c0,48.39-38.58,87.62-86.17,87.62s-86.17-39.23-86.17-87.62,38.58-87.62,86.17-87.62,86.17,39.23,86.17,87.62Z"/>
    <path class="cls-42" d="m252.41,193.11c0-48.08-38.33-87.06-85.62-87.06s-85.62,38.98-85.62,87.06,38.33,87.06,85.62,87.06,85.62-38.98,85.62-87.06h0Zm1.67,0c0,49.02-39.08,88.75-87.29,88.75s-87.29-39.74-87.29-88.75,39.08-88.75,87.29-88.75,87.29,39.74,87.29,88.75Z"/>
    <path class="cls-48" d="m253.52,193.11c0-48.71-38.83-88.19-86.73-88.19s-86.73,39.48-86.73,88.19,38.83,88.19,86.73,88.19,86.73-39.48,86.73-88.19h0Zm1.67,0c0,49.64-39.58,89.88-88.4,89.88s-88.4-40.24-88.4-89.88,39.58-89.88,88.4-89.88,88.4,40.24,88.4,89.88Z"/>
    <path class="cls-48" d="m254.63,193.11c0-49.33-39.33-89.32-87.84-89.32s-87.84,39.99-87.84,89.32,39.33,89.32,87.84,89.32,87.84-39.99,87.84-89.32h0Zm1.67,0c0,50.27-40.08,91.02-89.51,91.02s-89.51-40.75-89.51-91.02,40.07-91.02,89.51-91.02,89.51,40.75,89.51,91.02Z"/>
    <path class="cls-49" d="m255.74,193.11c0-49.95-39.83-90.45-88.95-90.45s-88.95,40.5-88.95,90.45,39.83,90.45,88.95,90.45,88.95-40.5,88.95-90.45h0Zm1.67,0c0,50.89-40.57,92.15-90.62,92.15s-90.62-41.26-90.62-92.15,40.57-92.15,90.62-92.15,90.62,41.26,90.62,92.15Z"/>
    <path class="cls-49" d="m256.85,193.11c0-50.58-40.32-91.58-90.07-91.58s-90.07,41-90.07,91.58,40.32,91.58,90.07,91.58,90.07-41,90.07-91.58h0Zm1.67,0c0,51.52-41.07,93.28-91.73,93.28s-91.73-41.76-91.73-93.28,41.07-93.28,91.73-93.28,91.73,41.76,91.73,93.28Z"/>
    <path class="cls-35" d="m257.97,193.11c0-51.2-40.82-92.71-91.18-92.71s-91.18,41.51-91.18,92.71,40.82,92.71,91.18,92.71,91.18-41.51,91.18-92.71h0Zm1.67,0c0,52.14-41.57,94.41-92.85,94.41s-92.85-42.27-92.85-94.41,41.57-94.41,92.85-94.41,92.85,42.27,92.85,94.41Z"/>
    <path class="cls-35" d="m259.08,193.11c0-51.83-41.32-93.84-92.29-93.84s-92.29,42.01-92.29,93.84,41.32,93.84,92.29,93.84,92.29-42.01,92.29-93.84h0Zm1.67,0c0,52.76-42.07,95.54-93.96,95.54s-93.96-42.77-93.96-95.54,42.07-95.54,93.96-95.54,93.96,42.77,93.96,95.54Z"/>
    <path class="cls-35" d="m260.19,193.11c0-52.45-41.82-94.97-93.4-94.97s-93.4,42.52-93.4,94.97,41.82,94.97,93.4,94.97,93.4-42.52,93.4-94.97h0Zm1.67,0c0,53.39-42.56,96.67-95.07,96.67s-95.07-43.28-95.07-96.67,42.56-96.67,95.07-96.67,95.07,43.28,95.07,96.67Z"/>
    <path class="cls-61" d="m261.3,193.11c0-53.08-42.32-96.1-94.51-96.1s-94.51,43.03-94.51,96.1,42.32,96.1,94.51,96.1,94.51-43.03,94.51-96.1h0Zm1.67,0c0,54.01-43.06,97.8-96.18,97.8s-96.18-43.79-96.18-97.8,43.06-97.8,96.18-97.8,96.18,43.79,96.18,97.8Z"/>
    <path class="cls-43" d="m262.41,193.11c0-53.7-42.81-97.23-95.63-97.23s-95.63,43.53-95.63,97.23,42.81,97.23,95.63,97.23,95.63-43.53,95.63-97.23h0Zm1.67,0c0,54.64-43.56,98.93-97.29,98.93s-97.29-44.29-97.29-98.93,43.56-98.93,97.29-98.93,97.29,44.29,97.29,98.93Z"/>
    <path class="cls-43" d="m263.53,193.11c0-54.33-43.31-98.36-96.74-98.36s-96.74,44.04-96.74,98.36,43.31,98.36,96.74,98.36,96.74-44.04,96.74-98.36h0Zm1.67,0c0,55.26-44.06,100.06-98.41,100.06s-98.41-44.8-98.41-100.06,44.06-100.06,98.41-100.06,98.41,44.8,98.41,100.06Z"/>
    <path class="cls-43" d="m264.64,193.11c0-54.95-43.81-99.5-97.85-99.5s-97.85,44.55-97.85,99.5,43.81,99.49,97.85,99.49,97.85-44.55,97.85-99.49h0Zm1.67,0c0,55.89-44.56,101.19-99.52,101.19s-99.52-45.3-99.52-101.19,44.56-101.19,99.52-101.19,99.52,45.3,99.52,101.19Z"/>
    <path class="cls-43" d="m265.75,193.11c0-55.57-44.31-100.63-98.96-100.63s-98.96,45.05-98.96,100.63,44.31,100.63,98.96,100.63,98.96-45.05,98.96-100.63h0Zm1.67,0c0,56.51-45.05,102.32-100.63,102.32s-100.63-45.81-100.63-102.32,45.05-102.32,100.63-102.32,100.63,45.81,100.63,102.32Z"/>
    <path class="cls-59" d="m266.86,193.11c0-56.2-44.8-101.76-100.07-101.76s-100.07,45.56-100.07,101.76,44.8,101.76,100.07,101.76,100.07-45.56,100.07-101.76h0Zm1.67,0c0,57.14-45.55,103.45-101.74,103.45s-101.74-46.32-101.74-103.45,45.55-103.45,101.74-103.45,101.74,46.32,101.74,103.45Z"/>
    <path class="cls-59" d="m267.97,193.11c0-56.82-45.3-102.89-101.19-102.89s-101.19,46.06-101.19,102.89,45.3,102.89,101.19,102.89,101.19-46.06,101.19-102.89h0Zm1.67,0c0,57.76-46.05,104.58-102.85,104.58s-102.85-46.82-102.85-104.58,46.05-104.58,102.85-104.58,102.85,46.82,102.85,104.58Z"/>
    <path class="cls-59" d="m269.09,193.11c0-57.45-45.8-104.02-102.3-104.02s-102.3,46.57-102.3,104.02,45.8,104.02,102.3,104.02,102.3-46.57,102.3-104.02h0Zm1.67,0c0,58.38-46.55,105.71-103.97,105.71s-103.97-47.33-103.97-105.71,46.55-105.71,103.97-105.71,103.97,47.33,103.97,105.71Z"/>
    <path class="cls-59" d="m270.2,193.11c0-58.07-46.3-105.15-103.41-105.15s-103.41,47.08-103.41,105.15,46.3,105.15,103.41,105.15,103.41-47.08,103.41-105.15h0Zm1.67,0c0,59.01-47.04,106.84-105.08,106.84s-105.08-47.84-105.08-106.84,47.04-106.84,105.08-106.84,105.08,47.84,105.08,106.84Z"/>
    <path class="cls-30" d="m271.31,193.11c0-58.7-46.8-106.28-104.52-106.28s-104.52,47.58-104.52,106.28,46.8,106.28,104.52,106.28,104.52-47.58,104.52-106.28h0Zm1.67,0c0,59.63-47.54,107.97-106.19,107.97s-106.19-48.34-106.19-107.97,47.54-107.98,106.19-107.98,106.19,48.34,106.19,107.98Z"/>
    <path class="cls-23" d="m272.42,193.11c0-59.32-47.29-107.41-105.63-107.41s-105.63,48.09-105.63,107.41,47.29,107.41,105.63,107.41,105.63-48.09,105.63-107.41h0Zm1.67,0c0,60.26-48.04,109.11-107.3,109.11s-107.3-48.85-107.3-109.11,48.04-109.11,107.3-109.11,107.3,48.85,107.3,109.11Z"/>
    <path class="cls-23" d="m273.53,193.11c0-59.95-47.79-108.54-106.75-108.54s-106.74,48.6-106.74,108.54,47.79,108.54,106.74,108.54,106.75-48.59,106.75-108.54h0Zm1.67,0c0,60.88-48.54,110.24-108.41,110.24s-108.41-49.35-108.41-110.24,48.54-110.24,108.41-110.24,108.41,49.35,108.41,110.24Z"/>
    <path class="cls-23" d="m274.65,193.11c0-60.57-48.29-109.67-107.86-109.67s-107.86,49.1-107.86,109.67,48.29,109.67,107.86,109.67,107.86-49.1,107.86-109.67h0Zm1.67,0c0,61.51-49.04,111.37-109.52,111.37s-109.52-49.86-109.52-111.37,49.04-111.37,109.52-111.37,109.52,49.86,109.52,111.37Z"/>
    <path class="cls-28" d="m275.76,193.11c0-61.19-48.79-110.8-108.97-110.8s-108.97,49.61-108.97,110.8,48.79,110.8,108.97,110.8,108.97-49.61,108.97-110.8h0Zm1.67,0c0,62.13-49.53,112.5-110.64,112.5s-110.64-50.37-110.64-112.5,49.53-112.5,110.64-112.5,110.64,50.37,110.64,112.5Z"/>
    <path class="cls-28" d="m276.87,193.11c0-61.82-49.28-111.93-110.08-111.93s-110.08,50.11-110.08,111.93,49.28,111.93,110.08,111.93,110.08-50.11,110.08-111.93h0Zm1.67,0c0,62.75-50.03,113.63-111.75,113.63s-111.75-50.87-111.75-113.63,50.03-113.63,111.75-113.63,111.75,50.87,111.75,113.63Z"/>
    <path class="cls-13" d="m277.98,193.11c0-62.44-49.78-113.06-111.19-113.06s-111.19,50.62-111.19,113.06,49.78,113.06,111.19,113.06,111.19-50.62,111.19-113.06h0Zm1.67,0c0,63.38-50.53,114.76-112.86,114.76s-112.86-51.38-112.86-114.76,50.53-114.76,112.86-114.76,112.86,51.38,112.86,114.76Z"/>
    <path class="cls-13" d="m279.09,193.11c0-63.07-50.28-114.19-112.3-114.19s-112.3,51.13-112.3,114.19,50.28,114.19,112.3,114.19,112.3-51.13,112.3-114.19h0Zm1.67,0c0,64-51.03,115.89-113.97,115.89s-113.97-51.89-113.97-115.89,51.03-115.89,113.97-115.89,113.97,51.89,113.97,115.89Z"/>
    <path class="cls-21" d="m280.21,193.11c0-63.69-50.78-115.32-113.42-115.32s-113.42,51.63-113.42,115.32,50.78,115.32,113.42,115.32,113.42-51.63,113.42-115.32h0Zm1.67,0c0,64.63-51.53,117.02-115.08,117.02s-115.08-52.39-115.08-117.02,51.53-117.02,115.08-117.02,115.08,52.39,115.08,117.02Z"/>
    <path class="cls-21" d="m281.32,193.11c0-64.32-51.28-116.45-114.53-116.45s-114.53,52.14-114.53,116.45,51.28,116.45,114.53,116.45,114.53-52.14,114.53-116.45h0Zm1.67,0c0,65.25-52.02,118.15-116.2,118.15s-116.2-52.9-116.2-118.15,52.02-118.15,116.2-118.15,116.2,52.9,116.2,118.15Z"/>
    <path class="cls-21" d="m282.43,193.11c0-64.94-51.77-117.59-115.64-117.59s-115.64,52.64-115.64,117.59,51.77,117.58,115.64,117.58,115.64-52.64,115.64-117.58h0Zm1.67,0c0,65.88-52.52,119.28-117.31,119.28s-117.31-53.4-117.31-119.28,52.52-119.28,117.31-119.28,117.31,53.4,117.31,119.28Z"/>
    <path class="cls-54" d="m283.54,193.11c0-65.57-52.27-118.72-116.75-118.72s-116.75,53.15-116.75,118.72,52.27,118.72,116.75,118.72,116.75-53.15,116.75-118.72h0Zm1.67,0c0,66.5-53.02,120.41-118.42,120.41s-118.42-53.91-118.42-120.41,53.02-120.41,118.42-120.41,118.42,53.91,118.42,120.41Z"/>
    <path class="cls-8" d="m284.65,193.11c0-66.19-52.77-119.85-117.86-119.85s-117.86,53.66-117.86,119.85,52.77,119.85,117.86,119.85,117.86-53.66,117.86-119.85h0Zm1.67,0c0,67.13-53.52,121.54-119.53,121.54s-119.53-54.42-119.53-121.54,53.52-121.54,119.53-121.54,119.53,54.42,119.53,121.54Z"/>
    <path class="cls-8" d="m285.77,193.11c0-66.81-53.27-120.98-118.98-120.98s-118.98,54.16-118.98,120.98,53.27,120.98,118.98,120.98,118.98-54.16,118.98-120.98h0Zm1.67,0c0,67.75-54.01,122.67-120.64,122.67s-120.64-54.92-120.64-122.67,54.01-122.67,120.64-122.67,120.64,54.92,120.64,122.67Z"/>
    <path class="cls-8" d="m286.88,193.11c0-67.44-53.77-122.11-120.09-122.11s-120.09,54.67-120.09,122.11,53.77,122.11,120.09,122.11,120.09-54.67,120.09-122.11h0Zm1.67,0c0,68.37-54.51,123.8-121.76,123.8s-121.76-55.43-121.76-123.8,54.51-123.8,121.76-123.8,121.76,55.43,121.76,123.8Z"/>
    <path class="cls-55" d="m287.99,193.11c0-68.06-54.26-123.24-121.2-123.24s-121.2,55.18-121.2,123.24,54.26,123.24,121.2,123.24,121.2-55.18,121.2-123.24h0Zm1.67,0c0,69-55.01,124.93-122.87,124.93s-122.87-55.93-122.87-124.93,55.01-124.93,122.87-124.93,122.87,55.93,122.87,124.93Z"/>
    <path class="cls-52" d="m289.1,193.11c0-68.69-54.76-124.37-122.31-124.37s-122.31,55.68-122.31,124.37,54.76,124.37,122.31,124.37,122.31-55.68,122.31-124.37h0Zm1.67,0c0,69.62-55.51,126.06-123.98,126.06s-123.98-56.44-123.98-126.06,55.51-126.06,123.98-126.06,123.98,56.44,123.98,126.06Z"/>
    <path class="cls-52" d="m290.21,193.11c0-69.31-55.26-125.5-123.42-125.5s-123.42,56.19-123.42,125.5,55.26,125.5,123.42,125.5,123.42-56.19,123.42-125.5h0Zm1.67,0c0,70.25-56.01,127.2-125.09,127.2s-125.09-56.95-125.09-127.2,56.01-127.2,125.09-127.2,125.09,56.95,125.09,127.2Z"/>
    <path class="cls-52" d="m291.32,193.11c0-69.94-55.76-126.63-124.54-126.63s-124.54,56.69-124.54,126.63,55.76,126.63,124.54,126.63,124.54-56.69,124.54-126.63h0Zm1.67,0c0,70.87-56.5,128.33-126.2,128.33s-126.2-57.45-126.2-128.33,56.5-128.33,126.2-128.33,126.2,57.45,126.2,128.33Z"/>
    <path class="cls-52" d="m292.44,193.11c0-70.56-56.25-127.76-125.65-127.76s-125.65,57.2-125.65,127.76,56.25,127.76,125.65,127.76,125.65-57.2,125.65-127.76h0Zm1.67,0c0,71.5-57,129.46-127.32,129.46s-127.32-57.96-127.32-129.46S96.47,63.65,166.79,63.65s127.32,57.96,127.32,129.46Z"/>
    <path class="cls-24" d="m293.55,193.11c0-71.18-56.75-128.89-126.76-128.89S40.03,121.92,40.03,193.11s56.75,128.89,126.76,128.89,126.76-57.71,126.76-128.89h0Zm1.67,0c0,72.12-57.5,130.59-128.43,130.59S38.36,265.23,38.36,193.11,95.86,62.52,166.79,62.52s128.43,58.47,128.43,130.59Z"/>
    <path class="cls-24" d="m294.66,193.11c0-71.81-57.25-130.02-127.87-130.02S38.92,121.3,38.92,193.11s57.25,130.02,127.87,130.02,127.87-58.21,127.87-130.02h0Zm1.67,0c0,72.75-58,131.72-129.54,131.72S37.25,265.85,37.25,193.11,95.25,61.39,166.79,61.39s129.54,58.97,129.54,131.72Z"/>
    <path class="cls-24" d="m295.77,193.11c0-72.43-57.75-131.15-128.98-131.15S37.81,120.67,37.81,193.11s57.75,131.15,128.98,131.15,128.98-58.72,128.98-131.15h0Zm1.67,0c0,73.37-58.49,132.85-130.65,132.85S36.14,266.48,36.14,193.11,94.63,60.26,166.79,60.26s130.65,59.48,130.65,132.85Z"/>
    <path class="cls-24" d="m296.88,193.11c0-73.06-58.25-132.28-130.1-132.28S36.69,120.05,36.69,193.11s58.25,132.28,130.1,132.28,130.1-59.23,130.1-132.28h0Zm1.67,0c0,73.99-58.99,133.98-131.76,133.98S35.03,267.1,35.03,193.11,94.02,59.13,166.79,59.13s131.76,59.98,131.76,133.98Z"/>
    <path class="cls-34" d="m298,193.11c0-73.68-58.74-133.41-131.21-133.41S35.58,119.43,35.58,193.11s58.74,133.41,131.21,133.41,131.21-59.73,131.21-133.41h0Zm1.67,0c0,74.62-59.49,135.11-132.88,135.11S33.91,267.73,33.91,193.11,93.4,58,166.79,58s132.88,60.49,132.88,135.11Z"/>
    <path class="cls-20" d="m299.11,193.11c0-74.31-59.24-134.54-132.32-134.54S34.47,118.8,34.47,193.11s59.24,134.54,132.32,134.54,132.32-60.24,132.32-134.54h0Zm1.67,0c0,75.24-59.99,136.24-133.99,136.24S32.8,268.35,32.8,193.11,92.79,56.87,166.79,56.87s133.99,61,133.99,136.24Z"/>
    <path class="cls-20" d="m300.22,193.11c0-74.93-59.74-135.68-133.43-135.68S33.36,118.18,33.36,193.11s59.74,135.68,133.43,135.68,133.43-60.74,133.43-135.68h0Zm1.67,0c0,75.87-60.49,137.37-135.1,137.37S31.69,268.98,31.69,193.11,92.18,55.74,166.79,55.74s135.1,61.5,135.1,137.37Z"/>
    <path class="cls-20" d="m301.33,193.11c0-75.56-60.24-136.81-134.54-136.81S32.25,117.55,32.25,193.11s60.24,136.81,134.54,136.81,134.54-61.25,134.54-136.81h0Zm1.67,0c0,76.49-60.98,138.5-136.21,138.5S30.58,269.6,30.58,193.11,91.56,54.61,166.79,54.61s136.21,62.01,136.21,138.5Z"/>
    <path class="cls-56" d="m302.44,193.11c0-76.18-60.73-137.94-135.66-137.94S31.13,116.93,31.13,193.11s60.73,137.94,135.65,137.94,135.66-61.76,135.66-137.94h0Zm1.67,0c0,77.12-61.48,139.63-137.32,139.63S29.47,270.23,29.47,193.11,90.95,53.48,166.79,53.48s137.32,62.52,137.32,139.63Z"/>
    <path class="cls-56" d="m303.56,193.11c0-76.8-61.23-139.07-136.77-139.07S30.02,116.3,30.02,193.11s61.23,139.07,136.77,139.07,136.77-62.26,136.77-139.07h0Zm1.67,0c0,77.74-61.98,140.76-138.44,140.76S28.35,270.85,28.35,193.11,90.33,52.35,166.79,52.35s138.44,63.02,138.44,140.76Z"/>
    <path class="cls-19" d="m304.67,193.11c0-77.43-61.73-140.2-137.88-140.2S28.91,115.68,28.91,193.11s61.73,140.2,137.88,140.2,137.88-62.77,137.88-140.2h0Zm1.67,0c0,78.37-62.48,141.89-139.55,141.89S27.24,271.47,27.24,193.11,89.72,51.21,166.79,51.21s139.55,63.53,139.55,141.89Z"/>
    <path class="cls-19" d="m305.78,193.11c0-78.05-62.23-141.33-138.99-141.33S27.8,115.05,27.8,193.11s62.23,141.33,138.99,141.33,138.99-63.27,138.99-141.33h0Zm1.67,0c0,78.99-62.97,143.02-140.66,143.02S26.13,272.1,26.13,193.11,89.11,50.08,166.79,50.08s140.66,64.03,140.66,143.02Z"/>
    <path class="cls-7" d="m306.89,193.11c0-78.68-62.73-142.46-140.1-142.46S26.69,114.43,26.69,193.11s62.73,142.46,140.1,142.46,140.1-63.78,140.1-142.46h0Zm1.67,0c0,79.61-63.47,144.15-141.77,144.15S25.02,272.72,25.02,193.11,88.49,48.95,166.79,48.95s141.77,64.54,141.77,144.16Z"/>
    <path class="cls-7" d="m308,193.11c0-79.3-63.22-143.59-141.21-143.59S25.57,113.81,25.57,193.11s63.22,143.59,141.21,143.59,141.21-64.29,141.21-143.59h0Zm1.67,0c0,80.24-63.97,145.29-142.88,145.29S23.91,273.35,23.91,193.11,87.88,47.82,166.79,47.82s142.88,65.05,142.88,145.29Z"/>
    <path class="cls-7" d="m309.12,193.11c0-79.93-63.72-144.72-142.33-144.72S24.46,113.18,24.46,193.11s63.72,144.72,142.33,144.72,142.33-64.79,142.33-144.72h0Zm1.67,0c0,80.86-64.47,146.42-143.99,146.42S22.79,273.97,22.79,193.11,87.26,46.69,166.79,46.69s143.99,65.55,143.99,146.42Z"/>
    <path class="cls-47" d="m310.23,193.11c0-80.55-64.22-145.85-143.44-145.85S23.35,112.56,23.35,193.11s64.22,145.85,143.44,145.85,143.44-65.3,143.44-145.85h0Zm1.67,0c0,81.49-64.97,147.55-145.11,147.55S21.68,274.6,21.68,193.11,86.65,45.56,166.79,45.56s145.11,66.06,145.11,147.55Z"/>
    <path class="cls-46" d="m311.34,193.11c0-81.18-64.72-146.98-144.55-146.98S22.24,111.93,22.24,193.11s64.72,146.98,144.55,146.98,144.55-65.81,144.55-146.98h0Zm1.67,0c0,82.11-65.46,148.68-146.22,148.68S20.57,275.22,20.57,193.11,86.03,44.43,166.79,44.43s146.22,66.57,146.22,148.68Z"/>
    <path class="cls-46" d="m312.45,193.11c0-81.8-65.22-148.11-145.66-148.11S21.13,111.31,21.13,193.11s65.22,148.11,145.66,148.11,145.66-66.31,145.66-148.11h0Zm1.67,0c0,82.74-65.96,149.81-147.33,149.81S19.46,275.84,19.46,193.11,85.42,43.3,166.79,43.3s147.33,67.07,147.33,149.81Z"/>
    <path class="cls-46" d="m313.56,193.11c0-82.42-65.71-149.24-146.77-149.24S20.01,110.68,20.01,193.11s65.71,149.24,146.77,149.24,146.77-66.82,146.77-149.24h0Zm1.67,0c0,83.36-66.46,150.94-148.44,150.94S18.35,276.47,18.35,193.11,84.81,42.17,166.79,42.17s148.44,67.58,148.44,150.94Z"/>
    <path class="cls-46" d="m314.68,193.11c0-83.05-66.21-150.37-147.89-150.37S18.9,110.06,18.9,193.11s66.21,150.37,147.89,150.37,147.89-67.32,147.89-150.37h0Zm1.67,0c0,83.99-66.96,152.07-149.55,152.07S17.23,277.09,17.23,193.11,84.19,41.04,166.79,41.04s149.55,68.08,149.55,152.07Z"/>
    <path class="cls-25" d="m315.79,193.11c0-83.67-66.71-151.5-149-151.5S17.79,109.44,17.79,193.11s66.71,151.5,149,151.5,149-67.83,149-151.5h0Zm1.67,0c0,84.61-67.46,153.2-150.67,153.2S16.12,277.72,16.12,193.11,83.58,39.91,166.79,39.91s150.67,68.59,150.67,153.2Z"/>
    <path class="cls-25" d="m316.9,193.11c0-84.3-67.21-152.63-150.11-152.63S16.68,108.81,16.68,193.11s67.21,152.63,150.11,152.63,150.11-68.34,150.11-152.63h0Zm1.67,0c0,85.23-67.95,154.33-151.78,154.33S15.01,278.34,15.01,193.11,82.96,38.78,166.79,38.78s151.78,69.1,151.78,154.33Z"/>
    <path class="cls-25" d="m318.01,193.11c0-84.92-67.7-153.77-151.22-153.77S15.57,108.19,15.57,193.11s67.7,153.76,151.22,153.76,151.22-68.84,151.22-153.76h0Zm1.67,0c0,85.86-68.45,155.46-152.89,155.46S13.9,278.97,13.9,193.11,82.35,37.65,166.79,37.65s152.89,69.6,152.89,155.46Z"/>
    <path class="cls-53" d="m319.12,193.11c0-85.55-68.2-154.9-152.33-154.9S14.45,107.56,14.45,193.11s68.2,154.9,152.33,154.9,152.33-69.35,152.33-154.9h0Zm1.67,0c0,86.48-68.95,156.59-154,156.59S12.79,279.59,12.79,193.11,81.74,36.52,166.79,36.52s154,70.11,154,156.59Z"/>
    <path class="cls-15" d="m320.23,193.11c0-86.17-68.7-156.03-153.45-156.03S13.34,106.94,13.34,193.11s68.7,156.03,153.45,156.03,153.45-69.86,153.45-156.03h0Zm1.67,0c0,87.11-69.45,157.72-155.11,157.72S11.68,280.22,11.68,193.11,81.12,35.39,166.79,35.39s155.11,70.61,155.11,157.72Z"/>
    <path class="cls-15" d="m321.35,193.11c0-86.8-69.2-157.16-154.56-157.16S12.23,106.31,12.23,193.11s69.2,157.16,154.56,157.16,154.56-70.36,154.56-157.16h0Zm1.67,0c0,87.73-69.94,158.85-156.23,158.85S10.56,280.84,10.56,193.11,80.51,34.26,166.79,34.26s156.23,71.12,156.23,158.85Z"/>
    <path class="cls-15" d="m322.46,193.11c0-87.42-69.7-158.29-155.67-158.29S11.12,105.69,11.12,193.11s69.7,158.29,155.67,158.29,155.67-70.87,155.67-158.29h0Zm1.67,0c0,88.36-70.44,159.98-157.34,159.98S9.45,281.46,9.45,193.11,79.89,33.12,166.79,33.12s157.34,71.63,157.34,159.98Z"/>
    <path class="cls-27" d="m323.57,193.11c0-88.04-70.19-159.42-156.78-159.42S10.01,105.06,10.01,193.11s70.19,159.42,156.78,159.42,156.78-71.37,156.78-159.42h0Zm1.67,0c0,88.98-70.94,161.11-158.45,161.11S8.34,282.09,8.34,193.11,79.28,31.99,166.79,31.99s158.45,72.13,158.45,161.11Z"/>
    <path class="cls-27" d="m324.68,193.11c0-88.67-70.69-160.55-157.89-160.55S8.9,104.44,8.9,193.11s70.69,160.55,157.89,160.55,157.89-71.88,157.89-160.55h0Zm1.67,0c0,89.61-71.44,162.24-159.56,162.24S7.23,282.71,7.23,193.11,78.67,30.86,166.79,30.86s159.56,72.64,159.56,162.24Z"/>
    <path class="cls-44" d="m325.79,193.11c0-89.29-71.19-161.68-159.01-161.68S7.78,103.82,7.78,193.11s71.19,161.68,159.01,161.68,159.01-72.39,159.01-161.68h0Zm1.67,0c0,90.23-71.94,163.38-160.67,163.38S6.12,283.34,6.12,193.11,78.05,29.73,166.79,29.73s160.67,73.15,160.67,163.38Z"/>
    <path class="cls-44" d="m326.91,193.11c0-89.92-71.69-162.81-160.12-162.81S6.67,103.19,6.67,193.11s71.69,162.81,160.12,162.81,160.12-72.89,160.12-162.81h0Zm1.67,0c0,90.85-72.43,164.51-161.79,164.51S5,283.96,5,193.11,77.44,28.6,166.79,28.6s161.79,73.65,161.79,164.51Z"/>
    <path class="cls-2" d="m328.02,193.11c0-90.54-72.18-163.94-161.23-163.94S5.56,102.57,5.56,193.11s72.18,163.94,161.23,163.94,161.23-73.4,161.23-163.94h0Zm1.67,0c0,91.48-72.93,165.64-162.9,165.64S3.89,284.59,3.89,193.11,76.82,27.47,166.79,27.47s162.9,74.16,162.9,165.64Z"/>
    <path class="cls-2" d="m329.13,193.11c0-91.17-72.68-165.07-162.34-165.07S4.45,101.94,4.45,193.11s72.68,165.07,162.34,165.07,162.34-73.9,162.34-165.07h0Zm1.67,0c0,92.1-73.43,166.77-164.01,166.77S2.78,285.21,2.78,193.11,76.21,26.34,166.79,26.34s164.01,74.66,164.01,166.77Z"/>
    <path class="cls-2" d="m330.24,193.11c0-91.79-73.18-166.2-163.45-166.2S3.34,101.32,3.34,193.11s73.18,166.2,163.45,166.2,163.45-74.41,163.45-166.2h0Zm1.67,0c0,92.73-73.93,167.9-165.12,167.9S1.67,285.84,1.67,193.11,75.6,25.21,166.79,25.21s165.12,75.17,165.12,167.9Z"/>
    <path class="cls-32" d="m331.35,193.11c0-92.42-73.68-167.33-164.57-167.33S2.22,100.69,2.22,193.11s73.68,167.33,164.56,167.33,164.57-74.92,164.57-167.33h0Zm1.67,0c0,93.35-74.42,169.03-166.23,169.03S.56,286.46.56,193.11,74.98,24.08,166.79,24.08s166.23,75.68,166.23,169.03Z"/>
    <path class="cls-62" d="m332.47,193.11c0-93.04-74.18-168.46-165.68-168.46S1.11,100.07,1.11,193.11s74.18,168.46,165.68,168.46,165.68-75.42,165.68-168.46h0Zm1.11,0c0,93.66-74.67,169.59-166.79,169.59S0,286.77,0,193.11,74.67,23.51,166.79,23.51s166.79,75.93,166.79,169.59Z"/>
  </g>
  <rect class="cls-69" x="50.03" y="74.38" width="233.52" height="237.45"/>
  <polygon class="cls-38" points="226.81 211.3 49.79 75.91 49.79 352.61 106.3 379.51 106.3 177.37 283.32 310.13 283.32 33.77 226.81 2.54 226.81 211.3"/>
  <polygon class="cls-6" points="49.79 352.61 49.79 75.91 226.81 211.3 226.81 2.54 283.32 33.77 283.32 310.13 106.3 177.37 106.3 379.51 49.79 352.61"/>
  <path class="cls-3" d="m55.46,74.38c0,3.13-2.54,5.67-5.67,5.67s-5.67-2.54-5.67-5.67,2.54-5.67,5.67-5.67,5.67,2.54,5.67,5.67Z"/>
  <path class="cls-3" d="m232.36,211.37c0,3.13-2.54,5.67-5.67,5.67s-5.67-2.54-5.67-5.67,2.54-5.67,5.67-5.67,5.67,2.54,5.67,5.67Z"/>
  <path class="cls-3" d="m289.22,311.83c0,3.13-2.54,5.67-5.67,5.67s-5.67-2.54-5.67-5.67,2.54-5.67,5.67-5.67,5.67,2.54,5.67,5.67Z"/>
  <path class="cls-3" d="m111.39,176.47c0,3.13-2.54,5.67-5.67,5.67s-5.67-2.54-5.67-5.67,2.54-5.67,5.67-5.67,5.67,2.54,5.67,5.67Z"/>
  <path class="cls-68" d="m173.82,190.49h3.14v3.23c-3.47.9-3.6.78-3.14-3.23Z"/>
</svg>