<?xml version="1.0" encoding="UTF-8"?>
<svg id="Layer_1" data-name="Layer 1" xmlns="http://www.w3.org/2000/svg" viewBox="0 0 1423.6 410.19">
  <defs>
    <style>
      .cls-1 {
        stroke: #fdf6b0;
        stroke-miterlimit: 10;
      }

      .cls-1, .cls-2 {
        fill: #fdf6b0;
      }

      .cls-2 {
        stroke-width: 0px;
      }
    </style>
  </defs>
  <path class="cls-1" d="m86.39.5h126.99v77.91h204.16v127.12h-77.83v204.16h-127v-77.84H8.52v-127.13h77.86V.5Zm205.5,79.39v124.48h124.39v-124.48h-124.39Zm-78.09,328.47h124.41v-124.38h-124.41v124.38ZM9.67,330.28h124.54c.12-1.37.32-2.59.32-3.81,0-38.74-.06-77.48.04-116.21,0-3.54-.8-4.71-4.56-4.7-38.88.14-77.76.08-116.64.1-1.18,0-2.36.18-3.7.29v124.33ZM212.35,1.86h-124.45v124.31h124.45V1.86Zm49.56,204.01v76.31h76.24v-76.31h-76.24Zm-48.07-125.98v76.33h76.28v-76.33h-76.28Zm-1.55,174.05h-76.33v76.25h76.33v-76.25Zm-48.02-49.52v-76.35h-76.28v76.35h76.28Zm-28.24,1.38v46.46h46.11v-46.46h-46.11Zm107.98-47.92v46.39h46.07v-46.39h-46.07Zm-31.86,16.36v-46.27h-46.25v46.27h46.25Zm48.11,61.96c-.73-.17-1.38-.46-2.03-.47-13.91-.05-27.82-.02-41.73-.11-2.85-.02-2.95,1.61-2.95,3.75.05,13.37.02,26.74.05,40.1,0,.91.26,1.82.41,2.76h46.25v-46.04Zm-46.46-78.31v28.26h28.25v-28.26h-28.25Zm46.46,48.1h-28.25v28.14h28.25v-28.14Zm-76.42,46.52c9.14,0,17.93.04,26.72-.07.64,0,1.81-1.05,1.82-1.63.12-8.91.08-17.82.08-26.85h-28.62v28.55Zm-17.94-48.31h28.21v-28.29h-28.21v28.29Zm64.29,30.04v-16h-16.37v16h16.37Zm-30.11-28.25h-16.22v16.26h16.22v-16.26Zm-4.17-30.07v16h16.33v-16h-16.33Zm46.33,12.01h-16.16v16.32h16.16v-16.32Zm-40.2,34.29h10.49c0-3,.13-5.72-.09-8.42-.06-.74-1.13-1.95-1.82-2-2.8-.23-5.62-.1-8.59-.1v10.52Zm17.89-16.47v10.36h10.18v-10.36h-10.18Zm4.15-17.77h-10.3v10.23h10.3v-10.23Zm-18.12,6.17h-9.93v10.16c12.51.3,10.3,2.3,10.29-9.67,0-.11-.16-.21-.37-.49Zm12.31,5.52c-1.74.12-3.03.2-4.25.28-.68,4.9-.24,5.28,4.25,3.86v-4.15Zm-10.27.02v4.62c4.88.33,4.98.21,3.84-4.43-1.15-.05-2.35-.11-3.84-.18Zm4.27,5.86c-1.8.16-3.08.28-4.61.42.07,1.66.13,2.95.19,4.27h4.42v-4.69Zm5.92.57c-4.82-.72-5.17-.32-3.85,4.36,1.24-.07,2.54-.14,3.85-.21v-4.15Zm.09,5.98c-5.04-.57-5.19-.41-4.06,3.96h4.06v-3.96Zm5.72-7.68v-4.53h-4.32c.08,1.61.15,3.01.22,4.53h4.1Zm-16.08-10.3v4.45c1.66-.16,3.04-.3,4.6-.45-.09-1.65-.16-2.8-.23-4h-4.37Zm-1.96,16.19c.76-4.75.56-4.96-3.79-4.14v4.34c1.47-.08,2.65-.14,3.79-.2Z"/>
  <path class="cls-2" d="m406.64,59.24c1.05,3.42,4.46,4.59,6.69,6.87,5.01,5.13,7.88,10.85,7.86,18.23-.13,33.07-.05,66.14-.04,99.22,0,14.42-9.85,25.3-24.61,25.38-57.21.31-114.43.12-171.64.24-5.06.01-6.72-1.89-6.7-6.86.15-39.93.16-79.85.09-119.78-.01-6.77,2.78-12.05,7.51-16.46,2.18-2.03,4.41-3.91,5.37-6.84h175.47Zm-39.32,86.14c7.13-.02,12.22-4.77,12.06-11.25-.17-6.67-5.46-11.97-11.92-11.94-6.79.03-12.32,5.01-12.52,11.28-.23,7.08,4.82,11.93,12.38,11.91Zm-94.97-23.23c-6.63-.01-12.13,5.43-11.98,11.86.15,6.85,4.94,11.35,12.08,11.35,7.05,0,11.77-4.56,11.91-11.47.13-6.6-5.11-11.72-12.01-11.73Zm46.77,23.22c7.49.17,12.64-4.4,12.87-11.43.19-5.96-5.59-11.67-11.96-11.82-6.42-.16-11.87,5.03-12.06,11.46-.21,7.21,3.97,11.62,11.15,11.79Z"/>
  <path class="cls-2" d="m0,220.14c3.46-1.01,4.38-4.46,6.41-6.81,5.91-6.83,12.82-11.02,22.25-11,60.78.1,121.57.17,182.35-.16,8.01-.04,8.6,3.56,8.57,9.87-.19,39.98-.49,79.98.1,119.95.18,12.25-3.2,21.61-13.11,28.68-1.18.84-1.82,2.44-2.71,3.69H17.31C11.54,358.6,5.77,352.83,0,347.06c0-1.28,0-2.56,0-3.85,2.28-1.54,1.73-3.9,1.73-6.06-.04-35.32-.09-70.65-.17-105.97,0-2.48.58-5.15-1.56-7.2v-3.85Zm72.72,63.48c.19-7.43-5.58-13.12-13.3-13.11-7.15,0-12.84,5.48-12.95,12.45-.12,7.2,6.07,13.4,13.31,13.34,6.77-.05,12.77-5.93,12.95-12.68Zm50.36.22c.08-6.84-5.79-13.86-11.56-13.82-7.43.05-15.17,6.82-14.52,13.53.74,7.67,5.51,12,13.3,12.5,7.07.45,12.7-5.03,12.78-12.21Zm51.1-.61c-.01-7.15-5.73-12.8-12.79-12.64-7.92.17-13.13,5.63-12.9,13.52.22,7.59,5.14,12.02,13.21,11.89,7.71-.13,12.5-5.02,12.48-12.76Z"/>
  <g>
    <path class="cls-1" d="m152.28,21.94c2,.43,4.05.7,5.99,1.32,11.5,3.69,19.18,15.02,18.24,26.78-1,12.52-9.99,22.42-22.15,24.4-15.02,2.44-28.97-8.27-30.51-23.42-1.47-14.39,9.03-27.38,23.37-28.91.25-.03.5-.11.75-.17,1.44,0,2.87,0,4.31,0Z"/>
    <path class="cls-1" d="m150.13,122.18c-13.5,0-27.01,0-40.51,0-2.47,0-3.57-1.12-3.54-3.6.25-18.58,13.97-34.48,32.37-37.46,1.67-.27,3.37-.4,5.06-.42,4.24-.06,8.48-.06,12.72-.02,17.05.17,32.06,11.78,36.54,28.24.87,3.19,1.34,6.44,1.39,9.75.04,2.35-1.1,3.51-3.43,3.51-13.54,0-27.07,0-40.61,0Z"/>
  </g>
  <g>
    <path class="cls-1" d="m278.16,301.82c2,.43,4.05.7,5.99,1.32,11.5,3.69,19.18,15.02,18.24,26.78-1,12.52-9.99,22.42-22.15,24.4-15.02,2.44-28.97-8.27-30.51-23.42-1.47-14.39,9.03-27.38,23.37-28.91.25-.03.5-.11.75-.17,1.44,0,2.87,0,4.31,0Z"/>
    <path class="cls-1" d="m276.01,402.06c-13.5,0-27.01,0-40.51,0-2.47,0-3.57-1.12-3.54-3.6.25-18.58,13.97-34.48,32.37-37.46,1.67-.27,3.37-.4,5.06-.42,4.24-.06,8.48-.06,12.72-.02,17.05.17,32.06,11.78,36.54,28.24.87,3.19,1.34,6.44,1.39,9.75.04,2.35-1.1,3.51-3.43,3.51-13.54,0-27.07,0-40.61,0Z"/>
  </g>
  <g>
    <path class="cls-2" d="m423.21,382.1v-128.8h20.47l90.66,75.91c3.09,2.52,5.81,4.89,8.16,7.13s4.51,4.53,6.46,6.88c-.49-7.23-.81-12.35-.97-15.35-.16-3.01-.24-5.32-.24-6.95v-67.63h26.93v128.8h-20.47l-94.56-79.57c-2.27-2.03-4.26-3.86-5.97-5.48-1.71-1.62-3.29-3.29-4.75-5,.41,3.98.71,7.74.91,11.27.2,3.53.3,6.6.3,9.2v69.58h-26.93Z"/>
    <path class="cls-2" d="m640.34,382.1v-128.8h29.98v128.8h-29.98Z"/>
    <path class="cls-2" d="m736.12,382.1v-128.8h110.15c10.24,0,17.65,1.97,22.24,5.91,4.59,3.94,6.88,10.3,6.88,19.07v30.22c0,8.69-2.29,15.03-6.88,19.01-4.59,3.98-12,5.97-22.24,5.97h-16.82l59.46,48.62h-43.01l-51.91-48.62h-28.39v48.62h-29.49Zm96.87-106.5h-67.38v35.82h67.38c5.2,0,8.75-.75,10.66-2.25s2.86-4.16,2.86-7.98v-15.48c0-3.74-.95-6.36-2.86-7.86s-5.46-2.25-10.66-2.25Z"/>
    <path class="cls-2" d="m919.87,301.43c0-9.59,1.87-16.12,5.61-19.62s11.01-5.24,21.81-5.24h81.64c10.89,0,18.18,1.75,21.87,5.24,3.7,3.49,5.54,10.03,5.54,19.62v55.69c0,9.67-1.89,16.25-5.67,19.74-3.78,3.49-11.03,5.24-21.75,5.24h-81.64c-10.8,0-18.07-1.75-21.81-5.24s-5.61-10.07-5.61-19.74v-55.69Zm25.71,60.44h85.05v-65.92h-85.05v65.92Z"/>
    <path class="cls-2" d="m1098.26,301.43c0-9.59,1.87-16.12,5.61-19.62,3.74-3.49,11.01-5.24,21.81-5.24h81.64c10.89,0,18.18,1.75,21.87,5.24,3.7,3.49,5.54,10.03,5.54,19.62v55.69c0,9.67-1.89,16.25-5.67,19.74-3.78,3.49-11.03,5.24-21.75,5.24h-81.64c-10.8,0-18.07-1.75-21.81-5.24-3.74-3.49-5.61-10.07-5.61-19.74v-55.69Zm25.71,60.44h85.05v-65.92h-85.05v65.92Z"/>
    <path class="cls-2" d="m1279.21,382.1v-105.52h20.59l51.66,62.63,51.42-62.63h20.71v105.52h-23.88v-72.62l-47.16,59.95h-5l-47.77-58.24v70.92h-20.59Z"/>
  </g>
</svg>