<?xml version="1.0" encoding="UTF-8"?>
<svg id="Layer_1" data-name="Layer 1" xmlns="http://www.w3.org/2000/svg" viewBox="0 0 325.02 324.87">
  <defs>
    <style>
      .cls-1 {
        stroke-width: 0px;
      }
    </style>
  </defs>
  <path class="cls-1" d="m0,263.03v-100.87h61.88V0h100.97v61.82h162.16v100.87h-61.83v162.18h-100.98v-61.85H0ZM63.06,99.8h98.87V1H63.06v98.8Zm260.9,62.02V63.01h-98.79v98.82h98.79Zm-62.02,162.13v-98.92c-1.09-.09-2.06-.25-3.02-.25-30.77,0-61.54.05-92.31-.03-2.81,0-3.74.63-3.73,3.62.11,30.88.07,61.76.08,92.64,0,.94.14,1.88.23,2.94h98.75ZM1.08,162.97v98.85h98.74v-98.85H1.08Zm162.04-39.37h60.61v-60.56h-60.61v60.56Zm-100.06,38.18h60.63v-60.59h-60.63v60.59Zm138.24,1.23v60.63h60.57v-60.63h-60.57Zm-39.33,38.14h-60.64v60.59h60.64v-60.59Zm1.1,22.43h36.91v-36.62h-36.91v36.62Zm-38.06-85.77h36.85v-36.59h-36.85v36.59Zm12.99,25.3h-36.75v36.74h36.75v-36.74Zm49.21-38.21c-.14.58-.37,1.1-.37,1.61-.04,11.05-.02,22.1-.09,33.15-.01,2.26,1.28,2.35,2.98,2.34,10.62-.04,21.24-.02,31.85-.04.72,0,1.44-.21,2.19-.32v-36.74h-36.57Zm-62.2,36.9h22.45v-22.44h-22.45v22.44Zm38.21-36.9v22.44h22.35v-22.44h-22.35Zm36.95,60.7c0-7.26.03-14.24-.06-21.22,0-.51-.84-1.44-1.29-1.44-7.08-.09-14.16-.06-21.33-.06v22.73h22.68Zm-38.37,14.25v-22.41h-22.47v22.41h22.47Zm23.86-51.07h-12.71v13h12.71v-13Zm-22.44,23.92v12.89h12.91v-12.89h-12.91Zm-23.88,3.31h12.71v-12.97h-12.71v12.97Zm9.54-36.8v12.83h12.96v-12.83h-12.96Zm27.23,31.93v-8.34c-2.38,0-4.55-.11-6.69.07-.59.05-1.55.9-1.59,1.45-.18,2.22-.08,4.47-.08,6.82h8.35Zm-13.08-14.21h8.23v-8.09h-8.23v8.09Zm-14.11-3.3v8.18h8.12v-8.18h-8.12Zm4.9,14.39v7.88h8.07c.24-9.94,1.82-8.18-7.68-8.17-.09,0-.17.12-.39.29Zm4.38-9.78c.09,1.38.16,2.41.23,3.38,3.89.54,4.19.19,3.07-3.38h-3.3Zm.02,8.16h3.67c.26-3.88.16-3.96-3.52-3.05-.04.91-.09,1.86-.14,3.05Zm4.65-3.39c.13,1.43.22,2.45.34,3.67,1.32-.06,2.35-.11,3.39-.15v-3.51h-3.73Zm.46-4.7c-.57,3.83-.25,4.11,3.46,3.05-.05-.99-.11-2.01-.16-3.05h-3.3Zm4.75-.07c-.45,4-.32,4.12,3.14,3.23v-3.23h-3.14Zm-6.1-4.54h-3.6v3.43c1.28-.06,2.39-.12,3.6-.18v-3.25Zm-8.18,12.77h3.53c-.13-1.32-.24-2.41-.36-3.65-1.31.07-2.23.13-3.17.18v3.47Zm12.86,1.56c-3.77-.6-3.94-.45-3.29,3.01h3.45c-.06-1.17-.11-2.11-.16-3.01Z"/>
  <path class="cls-1" d="m62.48,81.51v-31.04h19.04V.57h31.08v19.03h49.91v31.04h-19.03v49.91h-31.08v-19.03h-49.92Zm19.41-50.23h30.43V.87h-30.43v30.41Zm80.29,19.09v-30.41h-30.4v30.41h30.4Zm-19.09,49.9v-30.44c-.34-.03-.63-.08-.93-.08-9.47,0-18.94.01-28.41,0-.87,0-1.15.2-1.15,1.12.03,9.5.02,19.01.02,28.51,0,.29.04.58.07.9h30.39ZM62.82,50.72v30.42h30.39v-30.42h-30.39Zm49.87-12.11h18.65v-18.64h-18.65v18.64Zm-30.8,11.75h18.66v-18.65h-18.66v18.65Zm42.55.38v18.66h18.64v-18.66h-18.64Zm-12.11,11.74h-18.66v18.65h18.66v-18.65Zm.34,6.9h11.36v-11.27h-11.36v11.27Zm-11.71-26.4h11.34v-11.26h-11.34v11.26Zm4,7.79h-11.31v11.31h11.31v-11.31Zm15.15-11.76c-.04.18-.11.34-.11.5-.01,3.4,0,6.8-.03,10.2,0,.7.39.72.92.72,3.27-.01,6.54,0,9.8-.01.22,0,.44-.06.67-.1v-11.31h-11.25Zm-19.14,11.36h6.91v-6.91h-6.91v6.91Zm11.76-11.36v6.91h6.88v-6.91h-6.88Zm11.37,18.68c0-2.24,0-4.38-.02-6.53,0-.16-.26-.44-.4-.44-2.18-.03-4.36-.02-6.56-.02v7h6.98Zm-11.81,4.39v-6.9h-6.92v6.9h6.92Zm7.34-15.72h-3.91v4h3.91v-4Zm-6.91,7.36v3.97h3.97v-3.97h-3.97Zm-7.35,1.02h3.91v-3.99h-3.91v3.99Zm2.94-11.33v3.95h3.99v-3.95h-3.99Zm8.38,9.83v-2.57c-.73,0-1.4-.03-2.06.02-.18.01-.48.28-.49.45-.06.68-.02,1.38-.02,2.1h2.57Zm-4.02-4.37h2.53v-2.49h-2.53v2.49Zm-4.34-1.01v2.52h2.5v-2.52h-2.5Zm1.51,4.43v2.43h2.48c.07-3.06.56-2.52-2.36-2.52-.03,0-.05.04-.12.09Zm1.35-3.01c.03.42.05.74.07,1.04,1.2.17,1.29.06.94-1.04h-1.01Zm0,2.51h1.13c.08-1.19.05-1.22-1.08-.94-.01.28-.03.57-.04.94Zm1.43-1.04c.04.44.07.75.1,1.13.41-.02.72-.03,1.04-.05v-1.08h-1.15Zm.14-1.45c-.18,1.18-.08,1.26,1.07.94-.02-.3-.03-.62-.05-.94h-1.01Zm1.46-.02c-.14,1.23-.1,1.27.97.99v-.99h-.97Zm-1.88-1.4h-1.11v1.06c.39-.02.74-.04,1.11-.05v-1Zm-2.52,3.93h1.09c-.04-.41-.07-.74-.11-1.12-.4.02-.69.04-.98.06v1.07Zm3.96.48c-1.16-.18-1.21-.14-1.01.93h1.06c-.02-.36-.03-.65-.05-.93Z"/>
  <path class="cls-1" d="m224.55,143.38v-31.04h19.04v-49.91h31.08v19.03h49.91v31.04h-19.03v49.91h-31.08v-19.03h-49.92Zm19.41-50.23h30.43v-30.41h-30.43v30.41Zm80.29,19.09v-30.41h-30.4v30.41h30.4Zm-19.09,49.9v-30.44c-.34-.03-.63-.08-.93-.08-9.47,0-18.94.01-28.41,0-.87,0-1.15.2-1.15,1.12.03,9.5.02,19.01.02,28.51,0,.29.04.58.07.9h30.39Zm-80.28-49.55v30.42h30.39v-30.42h-30.39Zm49.87-12.11h18.65v-18.64h-18.65v18.64Zm-30.8,11.75h18.66v-18.65h-18.66v18.65Zm42.55.38v18.66h18.64v-18.66h-18.64Zm-12.11,11.74h-18.66v18.65h18.66v-18.65Zm.34,6.9h11.36v-11.27h-11.36v11.27Zm-11.71-26.4h11.34v-11.26h-11.34v11.26Zm4,7.79h-11.31v11.31h11.31v-11.31Zm15.15-11.76c-.04.18-.11.34-.11.5-.01,3.4,0,6.8-.03,10.2,0,.7.39.72.92.72,3.27-.01,6.54,0,9.8-.01.22,0,.44-.06.67-.1v-11.31h-11.25Zm-19.14,11.36h6.91v-6.91h-6.91v6.91Zm11.76-11.36v6.91h6.88v-6.91h-6.88Zm11.37,18.68c0-2.24,0-4.38-.02-6.53,0-.16-.26-.44-.4-.44-2.18-.03-4.36-.02-6.56-.02v7h6.98Zm-11.81,4.39v-6.9h-6.92v6.9h6.92Zm7.34-15.72h-3.91v4h3.91v-4Zm-6.91,7.36v3.97h3.97v-3.97h-3.97Zm-7.35,1.02h3.91v-3.99h-3.91v3.99Zm2.94-11.33v3.95h3.99v-3.95h-3.99Zm8.38,9.83v-2.57c-.73,0-1.4-.03-2.06.02-.18.01-.48.28-.49.45-.06.68-.02,1.38-.02,2.1h2.57Zm-4.02-4.37h2.53v-2.49h-2.53v2.49Zm-4.34-1.01v2.52h2.5v-2.52h-2.5Zm1.51,4.43v2.43h2.48c.07-3.06.56-2.52-2.36-2.52-.03,0-.05.04-.12.09Zm1.35-3.01c.03.42.05.74.07,1.04,1.2.17,1.29.06.94-1.04h-1.01Zm0,2.51h1.13c.08-1.19.05-1.22-1.08-.94-.01.28-.03.57-.04.94Zm1.43-1.04c.04.44.07.75.1,1.13.41-.02.72-.03,1.04-.05v-1.08h-1.15Zm.14-1.45c-.18,1.18-.08,1.26,1.07.94-.02-.3-.03-.62-.05-.94h-1.01Zm1.46-.02c-.14,1.23-.1,1.27.97.99v-.99h-.97Zm-1.88-1.4h-1.11v1.06c.39-.02.74-.04,1.11-.05v-1Zm-2.52,3.93h1.09c-.04-.41-.07-.74-.11-1.12-.4.02-.69.04-.98.06v1.07Zm3.96.48c-1.16-.18-1.21-.14-1.01.93h1.06c-.02-.36-.03-.65-.05-.93Z"/>
  <path class="cls-1" d="m.45,243.36v-31.04h19.04v-49.91h31.08v19.03h49.91v31.04h-19.03v49.91h-31.08v-19.03H.45Zm19.41-50.23h30.43v-30.41h-30.43v30.41Zm80.29,19.09v-30.41h-30.4v30.41h30.4Zm-19.09,49.9v-30.44c-.34-.03-.63-.08-.93-.08-9.47,0-18.94.01-28.41,0-.87,0-1.15.2-1.15,1.12.03,9.5.02,19.01.02,28.51,0,.29.04.58.07.9h30.39ZM.79,212.56v30.42h30.39v-30.42H.79Zm49.87-12.11h18.65v-18.64h-18.65v18.64Zm-30.8,11.75h18.66v-18.65h-18.66v18.65Zm42.55.38v18.66h18.64v-18.66h-18.64Zm-12.11,11.74h-18.66v18.65h18.66v-18.65Zm.34,6.9h11.36v-11.27h-11.36v11.27Zm-11.71-26.4h11.34v-11.26h-11.34v11.26Zm4,7.79h-11.31v11.31h11.31v-11.31Zm15.15-11.76c-.04.18-.11.34-.11.5-.01,3.4,0,6.8-.03,10.2,0,.7.39.72.92.72,3.27-.01,6.54,0,9.8-.01.22,0,.44-.06.67-.1v-11.31h-11.25Zm-19.14,11.36h6.91v-6.91h-6.91v6.91Zm11.76-11.36v6.91h6.88v-6.91h-6.88Zm11.37,18.68c0-2.24,0-4.38-.02-6.53,0-.16-.26-.44-.4-.44-2.18-.03-4.36-.02-6.56-.02v7h6.98Zm-11.81,4.39v-6.9h-6.92v6.9h6.92Zm7.34-15.72h-3.91v4h3.91v-4Zm-6.91,7.36v3.97h3.97v-3.97h-3.97Zm-7.35,1.02h3.91v-3.99h-3.91v3.99Zm2.94-11.33v3.95h3.99v-3.95h-3.99Zm8.38,9.83v-2.57c-.73,0-1.4-.03-2.06.02-.18.01-.48.28-.49.45-.06.68-.02,1.38-.02,2.1h2.57Zm-4.02-4.37h2.53v-2.49h-2.53v2.49Zm-4.34-1.01v2.52h2.5v-2.52h-2.5Zm1.51,4.43v2.43h2.48c.07-3.06.56-2.52-2.36-2.52-.03,0-.05.04-.12.09Zm1.35-3.01c.03.42.05.74.07,1.04,1.2.17,1.29.06.94-1.04h-1.01Zm0,2.51h1.13c.08-1.19.05-1.22-1.08-.94-.01.28-.03.57-.04.94Zm1.43-1.04c.04.44.07.75.1,1.13.41-.02.72-.03,1.04-.05v-1.08h-1.15Zm.14-1.45c-.18,1.18-.08,1.26,1.07.94-.02-.3-.03-.62-.05-.94h-1.01Zm1.46-.02c-.14,1.23-.1,1.27.97.99v-.99h-.97Zm-1.88-1.4h-1.11v1.06c.39-.02.74-.04,1.11-.05v-1Zm-2.52,3.93h1.09c-.04-.41-.07-.74-.11-1.12-.4.02-.69.04-.98.06v1.07Zm3.96.48c-1.16-.18-1.21-.14-1.01.93h1.06c-.02-.36-.03-.65-.05-.93Z"/>
  <path class="cls-1" d="m162.4,305.32v-31.04h19.04v-49.91h31.08v19.03h49.91v31.04h-19.03v49.91h-31.08v-19.03h-49.92Zm19.41-50.23h30.43v-30.41h-30.43v30.41Zm80.29,19.09v-30.41h-30.4v30.41h30.4Zm-19.09,49.9v-30.44c-.34-.03-.63-.08-.93-.08-9.47,0-18.94.01-28.41,0-.87,0-1.15.2-1.15,1.12.03,9.5.02,19.01.02,28.51,0,.29.04.58.07.9h30.39Zm-80.28-49.55v30.42h30.39v-30.42h-30.39Zm49.87-12.11h18.65v-18.64h-18.65v18.64Zm-30.8,11.75h18.66v-18.65h-18.66v18.65Zm42.55.38v18.66h18.64v-18.66h-18.64Zm-12.11,11.74h-18.66v18.65h18.66v-18.65Zm.34,6.9h11.36v-11.27h-11.36v11.27Zm-11.71-26.4h11.34v-11.26h-11.34v11.26Zm4,7.79h-11.31v11.31h11.31v-11.31Zm15.15-11.76c-.04.18-.11.34-.11.5-.01,3.4,0,6.8-.03,10.2,0,.7.39.72.92.72,3.27-.01,6.54,0,9.8-.01.22,0,.44-.06.67-.1v-11.31h-11.25Zm-19.14,11.36h6.91v-6.91h-6.91v6.91Zm11.76-11.36v6.91h6.88v-6.91h-6.88Zm11.37,18.68c0-2.24,0-4.38-.02-6.53,0-.16-.26-.44-.4-.44-2.18-.03-4.36-.02-6.56-.02v7h6.98Zm-11.81,4.39v-6.9h-6.92v6.9h6.92Zm7.34-15.72h-3.91v4h3.91v-4Zm-6.91,7.36v3.97h3.97v-3.97h-3.97Zm-7.35,1.02h3.91v-3.99h-3.91v3.99Zm2.94-11.33v3.95h3.99v-3.95h-3.99Zm8.38,9.83v-2.57c-.73,0-1.4-.03-2.06.02-.18.01-.48.28-.49.45-.06.68-.02,1.38-.02,2.1h2.57Zm-4.02-4.37h2.53v-2.49h-2.53v2.49Zm-4.34-1.01v2.52h2.5v-2.52h-2.5Zm1.51,4.43v2.43h2.48c.07-3.06.56-2.52-2.36-2.52-.03,0-.05.04-.12.09Zm1.35-3.01c.03.42.05.74.07,1.04,1.2.17,1.29.06.94-1.04h-1.01Zm0,2.51h1.13c.08-1.19.05-1.22-1.08-.94-.01.28-.03.57-.04.94Zm1.43-1.04c.04.44.07.75.1,1.13.41-.02.72-.03,1.04-.05v-1.08h-1.15Zm.14-1.45c-.18,1.18-.08,1.26,1.07.94-.02-.3-.03-.62-.05-.94h-1.01Zm1.46-.02c-.14,1.23-.1,1.27.97.99v-.99h-.97Zm-1.88-1.4h-1.11v1.06c.39-.02.74-.04,1.11-.05v-1Zm-2.52,3.93h1.09c-.04-.41-.07-.74-.11-1.12-.4.02-.69.04-.98.06v1.07Zm3.96.48c-1.16-.18-1.21-.14-1.01.93h1.06c-.02-.36-.03-.65-.05-.93Z"/>
</svg>